<?xml version="1.0" encoding="utf-8"?>
<!-- Generator: Adobe Illustrator 16.0.0, SVG Export Plug-In . SVG Version: 6.00 Build 0)  -->
<!DOCTYPE svg PUBLIC "-//W3C//DTD SVG 1.1//EN" "http://www.w3.org/Graphics/SVG/1.1/DTD/svg11.dtd">
<svg version="1.1" id="Layer_1" xmlns="http://www.w3.org/2000/svg" xmlns:xlink="http://www.w3.org/1999/xlink" x="0px" y="0px"
	 width="512px" height="512px" viewBox="0 0 512 512" enable-background="new 0 0 512 512" xml:space="preserve">
<path d="M95.75,0h-64c-17.594,0-32,14.406-32,32v448c0,17.594,14.406,32,32,32h64c17.594,0,32-14.406,32-32V32
	C127.75,14.406,113.344,0,95.75,0z M31.75,320h64v32h-64V320z M96.25,416h-64v-32h64V416z M96.25,96h-64V32h64V96z M288.25,0h-64
	c-17.594,0-32,14.406-32,32v448c0,17.594,14.406,32,32,32h64c17.594,0,32-14.406,32-32V32C320.25,14.406,305.844,0,288.25,0z
	 M224.25,320h64v32h-64V320z M288.75,416h-64v-32h64V416z M288.75,96h-64V32h64V96z M480.25,0h-64c-17.594,0-32,14.406-32,32v448
	c0,17.594,14.406,32,32,32h64c17.594,0,32-14.406,32-32V32C512.25,14.406,497.844,0,480.25,0z M416.25,320h64v32h-64V320z
	 M480.75,416h-64v-32h64V416z M480.75,96h-64V32h64V96z"/>
</svg>
