<?xml version="1.0" encoding="utf-8"?>
<!-- Generator: Adobe Illustrator 16.0.0, SVG Export Plug-In . SVG Version: 6.00 Build 0)  -->
<!DOCTYPE svg PUBLIC "-//W3C//DTD SVG 1.1//EN" "http://www.w3.org/Graphics/SVG/1.1/DTD/svg11.dtd">
<svg version="1.1" id="Layer_1" xmlns="http://www.w3.org/2000/svg" xmlns:xlink="http://www.w3.org/1999/xlink" x="0px" y="0px"
	 width="512px" height="512px" viewBox="0 0 512 512" enable-background="new 0 0 512 512" xml:space="preserve">
<path d="M480,256v256H224c-35.344,0-64-28.656-64-64V224c0-35.344,28.656-64,64-64h224v32v32h-32v-32H224c-17.672,0-32,14.313-32,32
	s14.328,32,32,32H480z M128,224c0-52.938,43.063-96,96-96h128V96H96c-17.672,0-32-14.313-32-32s14.328-32,32-32h192v32h32V32V0H96
	C60.656,0,32,28.656,32,64v224c0,35.344,28.656,64,64,64h32V224z"/>
</svg>
