<?xml version="1.0" encoding="utf-8"?>
<!-- Generator: Adobe Illustrator 16.0.0, SVG Export Plug-In . SVG Version: 6.00 Build 0)  -->
<!DOCTYPE svg PUBLIC "-//W3C//DTD SVG 1.1//EN" "http://www.w3.org/Graphics/SVG/1.1/DTD/svg11.dtd">
<svg version="1.1" id="Layer_1" xmlns="http://www.w3.org/2000/svg" xmlns:xlink="http://www.w3.org/1999/xlink" x="0px" y="0px"
	 width="512px" height="512px" viewBox="0 0 512 512" enable-background="new 0 0 512 512" xml:space="preserve">
<path d="M448,112h-32l-64-96H224l-64,96h-32c0-35.344-28.656-64-64-64S0,76.656,0,112v64v256c0,35.344,28.656,64,64,64h384
	c35.344,0,64-28.656,64-64V176C512,140.656,483.344,112,448,112z M80,224H48c-8.844,0-16-7.156-16-16s7.156-16,16-16h32
	c8.844,0,16,7.156,16,16S88.844,224,80,224z M64,144c-17.672,0-32-14.313-32-32s14.328-32,32-32s32,14.313,32,32S81.672,144,64,144z
	 M288,432c-79.406,0-144-64.594-144-144s64.594-144,144-144s144,64.594,144,144S367.406,432,288,432z M368,288
	c0,44.188-35.813,80-80,80s-80-35.813-80-80s35.813-80,80-80S368,243.813,368,288z"/>
</svg>
