<?xml version="1.0" encoding="utf-8"?>
<!-- Generator: Adobe Illustrator 16.0.0, SVG Export Plug-In . SVG Version: 6.00 Build 0)  -->
<!DOCTYPE svg PUBLIC "-//W3C//DTD SVG 1.1//EN" "http://www.w3.org/Graphics/SVG/1.1/DTD/svg11.dtd">
<svg version="1.1" id="Layer_1" xmlns="http://www.w3.org/2000/svg" xmlns:xlink="http://www.w3.org/1999/xlink" x="0px" y="0px"
	 width="512px" height="512px" viewBox="0 0 512 512" enable-background="new 0 0 512 512" xml:space="preserve">
<g>
	<path d="M480,352H32c-17.688,0-32,14.313-32,32v96c0,17.688,14.313,32,32,32h448c17.688,0,32-14.313,32-32v-96
		C512,366.313,497.688,352,480,352z M192,416H64v-32h128V416z M400,448c-8.844,0-16-7.156-16-16s7.156-16,16-16s16,7.156,16,16
		S408.844,448,400,448z M464,448c-8.844,0-16-7.156-16-16s7.156-16,16-16s16,7.156,16,16S472.844,448,464,448z"/>
	<path d="M64,256h160l-32,64h128l-32-64h160c17.688,0,32-14.313,32-32V32c0-17.656-14.313-32-32-32H64C46.313,0,32,14.344,32,32v192
		C32,241.688,46.313,256,64,256z M64,32h384v160H64V32z"/>
</g>
</svg>
