<?xml version="1.0" encoding="utf-8"?>
<!-- Generator: Adobe Illustrator 16.0.0, SVG Export Plug-In . SVG Version: 6.00 Build 0)  -->
<!DOCTYPE svg PUBLIC "-//W3C//DTD SVG 1.1//EN" "http://www.w3.org/Graphics/SVG/1.1/DTD/svg11.dtd">
<svg version="1.1" id="Layer_1" xmlns="http://www.w3.org/2000/svg" xmlns:xlink="http://www.w3.org/1999/xlink" x="0px" y="0px"
	 width="512px" height="512px" viewBox="0 0 512 512" enable-background="new 0 0 512 512" xml:space="preserve">
<g>
	<path d="M480,352H32c-17.688,0-32,14.313-32,32v96c0,17.688,14.313,32,32,32h448c17.688,0,32-14.344,32-32v-96
		C512,366.313,497.688,352,480,352z M64,480H32v-96h32V480z M128,480H96v-96h32V480z M336,480c-8.844,0-16-7.156-16-16
		s7.156-16,16-16s16,7.156,16,16S344.844,480,336,480z"/>
	<path d="M480,0H32C14.313,0,0,14.344,0,32v192c0,17.688,14.313,32,32,32h176v32c-17.688,0-32,14.313-32,32h160
		c0-17.688-14.313-32-32-32v-32h176c17.688,0,32-14.313,32-32V32C512,14.344,497.688,0,480,0z M480,224H32V32h448V224z"/>
</g>
</svg>
