<?xml version="1.0" encoding="utf-8"?>
<!-- Generator: Adobe Illustrator 16.0.0, SVG Export Plug-In . SVG Version: 6.00 Build 0)  -->
<!DOCTYPE svg PUBLIC "-//W3C//DTD SVG 1.1//EN" "http://www.w3.org/Graphics/SVG/1.1/DTD/svg11.dtd">
<svg version="1.1" id="Layer_1" xmlns="http://www.w3.org/2000/svg" xmlns:xlink="http://www.w3.org/1999/xlink" x="0px" y="0px"
	 width="512px" height="512px" viewBox="0 0 512 512" enable-background="new 0 0 512 512" xml:space="preserve">
<path d="M256,0C114.625,0,0,114.609,0,256c0,141.375,114.625,256,256,256s256-114.625,256-256C512,114.609,397.375,0,256,0z
	 M384.438,126.453C407.375,113.188,436.75,121.047,450,144c13.25,22.938,5.375,52.313-17.594,65.578
	c-22.938,13.25-52.313,5.375-65.563-17.563C353.625,169.063,361.469,139.688,384.438,126.453z M256,32c26.5,0,48,21.5,48,48
	s-21.5,48-48,48s-48-21.5-48-48S229.5,32,256,32z M127.563,385.563C104.625,398.813,75.25,390.938,62,368
	s-5.375-52.313,17.594-65.563s52.313-5.406,65.563,17.563C158.406,342.938,150.531,372.313,127.563,385.563z M145.156,192
	c-13.25,22.953-42.625,30.813-65.594,17.563C56.625,196.313,48.75,166.953,62,144s42.625-30.813,65.563-17.563
	C150.531,139.688,158.406,169.047,145.156,192z M256,480c-26.5,0-48-21.5-48-48s21.5-48,48-48s48,21.5,48,48S282.5,480,256,480z
	 M256,320c-35.344,0-64-28.656-64-64s28.656-64,64-64s64,28.656,64,64S291.344,320,256,320z M450,368
	c-13.25,22.938-42.625,30.813-65.594,17.563c-22.938-13.25-30.813-42.625-17.563-65.563s42.625-30.813,65.563-17.563
	C455.375,315.688,463.25,345.063,450,368z"/>
</svg>
