<?xml version="1.0" encoding="utf-8"?>
<!-- Generator: Adobe Illustrator 16.0.0, SVG Export Plug-In . SVG Version: 6.00 Build 0)  -->
<!DOCTYPE svg PUBLIC "-//W3C//DTD SVG 1.1//EN" "http://www.w3.org/Graphics/SVG/1.1/DTD/svg11.dtd">
<svg version="1.1" id="Layer_1" xmlns="http://www.w3.org/2000/svg" xmlns:xlink="http://www.w3.org/1999/xlink" x="0px" y="0px"
	 width="512px" height="512px" viewBox="0 0 512 512" enable-background="new 0 0 512 512" xml:space="preserve">
<path d="M495.938,448v48c0,8.844-7.156,16-16,16s-16-7.156-16-16V256c-3.688-46.094-22.25-87.625-50.656-120.219l-0.938,1.281
	c-10.344,14.25-30,16.813-43.656,5.688c0,0-57.5-46.75-112.688-46.75c-55.172,0-112.656,46.719-112.656,46.719
	c-13.656,11.094-33.297,8.531-43.656-5.688l-0.938-1.281c-28.406,32.594-47,74.125-50.688,120.25v240c0,8.844-7.156,16-16,16
	s-16-7.156-16-16v-48c-21.516-39.969-21.516-88.031,0-128v-64c3.906-56.781,27.406-107.719,63.484-146.688l-0.063-0.094
	C69.125,95,72.453,75.094,86.875,65c0,0,92.922-65,169.125-65c76.219,0,169.188,65.063,169.188,65.063
	c14.406,10.063,17.75,29.969,7.406,44.188l-0.094,0.125c36.031,38.969,59.531,89.875,63.438,146.625v64
	C517.438,359.969,517.438,408.031,495.938,448z M80.063,512h48V256h-48C58.734,340,58.734,428,80.063,512z M384.063,256v256h48
	c21.313-84,21.313-172,0-256H384.063z"/>
</svg>
