<?xml version="1.0" encoding="utf-8"?>
<!-- Generator: Adobe Illustrator 16.0.0, SVG Export Plug-In . SVG Version: 6.00 Build 0)  -->
<!DOCTYPE svg PUBLIC "-//W3C//DTD SVG 1.1//EN" "http://www.w3.org/Graphics/SVG/1.1/DTD/svg11.dtd">
<svg version="1.1" id="Layer_1" xmlns="http://www.w3.org/2000/svg" xmlns:xlink="http://www.w3.org/1999/xlink" x="0px" y="0px"
	 width="512px" height="512px" viewBox="0 0 512 512" enable-background="new 0 0 512 512" xml:space="preserve">
<path d="M377.563,51.5c-74.125-47.313-168.984-47.313-243.141,0C60.281,98.813,20.328,184.813,32,272v176c0,8.844,7.156,16,16,16
	s16-7.156,16-16v-16c0,35.344,28.656,64,64,64s64-28.656,64-64v-64c0-35.344-28.656-64-64-64s-64,28.656-64,64v-96
	c0-106.031,85.969-192,192-192s192,85.969,192,192v96c0-35.344-28.656-64-64-64s-64,28.656-64,64v64c0,35.344,28.656,64,64,64
	s64-28.656,64-64v16c0,8.844,7.156,16,16,16s16-7.156,16-16V272C491.688,184.813,451.719,98.813,377.563,51.5z"/>
</svg>
