<?xml version="1.0" encoding="utf-8"?>
<!-- Generator: Adobe Illustrator 16.0.0, SVG Export Plug-In . SVG Version: 6.00 Build 0)  -->
<!DOCTYPE svg PUBLIC "-//W3C//DTD SVG 1.1//EN" "http://www.w3.org/Graphics/SVG/1.1/DTD/svg11.dtd">
<svg version="1.1" id="Layer_1" xmlns="http://www.w3.org/2000/svg" xmlns:xlink="http://www.w3.org/1999/xlink" x="0px" y="0px"
	 width="512px" height="512px" viewBox="0 0 512 512" enable-background="new 0 0 512 512" xml:space="preserve">
<path d="M512,256C512,114.625,397.375,0,256,0S0,114.625,0,256c0,35.781,7.844,69.625,21.156,100.563C8.125,372.938,0,393.406,0,416
	c0,53.031,42.969,96,96,96c11.281,0,21.938-2.313,32-5.875v-180.25C117.938,322.313,107.281,320,96,320
	c-18.219,0-35.078,5.375-49.594,14.188C37.219,309.813,32,283.563,32,256C32,132.5,132.484,32,256,32c123.5,0,224,100.5,224,224
	c0,27.531-5.25,53.781-14.406,78.188C451.094,325.375,434.219,320,416,320c-11.281,0-21.938,2.313-32,5.875v180.25
	c10.063,3.563,20.719,5.875,32,5.875c53.031,0,96-42.969,96-96c0-22.594-8.125-43.094-21.188-59.469
	C504.125,325.594,512,291.781,512,256z M96,480c-35.297,0-64-28.719-64-64s28.703-64,64-64V480z M416,480V352
	c35.281,0,64,28.719,64,64S451.281,480,416,480z"/>
</svg>
