<?xml version="1.0" encoding="utf-8"?>
<!-- Generator: Adobe Illustrator 16.0.0, SVG Export Plug-In . SVG Version: 6.00 Build 0)  -->
<!DOCTYPE svg PUBLIC "-//W3C//DTD SVG 1.1//EN" "http://www.w3.org/Graphics/SVG/1.1/DTD/svg11.dtd">
<svg version="1.1" id="Layer_1" xmlns="http://www.w3.org/2000/svg" xmlns:xlink="http://www.w3.org/1999/xlink" x="0px" y="0px"
	 width="512px" height="512px" viewBox="0 0 512 512" enable-background="new 0 0 512 512" xml:space="preserve">
<path d="M112,311.875c-21,0-38.656,13.563-45.172,32.375c0.016-0.031,0.016-0.063,0.016-0.094c-0.953-0.031-1.875-0.281-2.844-0.281
	c-35.344,0-64,28.656-64,64s28.656,64,64,64c0.969,0,1.891-0.25,2.844-0.281c-0.016-0.031,0-0.063-0.016-0.094
	C73.344,490.281,91,503.875,112,503.875c26.5,0,48-21.5,48-48v-96C160,333.375,138.5,311.875,112,311.875z M128,455.875
	c0,8.813-7.188,16-16,16s-16-7.188-16-16v-96c0-8.813,7.188-16,16-16s16,7.188,16,16V455.875z M400,311.875
	c21,0,38.656,13.563,45.188,32.375c-0.031-0.031-0.031-0.063-0.031-0.094c0.969-0.031,1.875-0.281,2.844-0.281
	c35.344,0,64,28.656,64,64s-28.656,64-64,64c-0.969,0-1.875-0.25-2.844-0.281c0.031-0.031,0-0.063,0.031-0.094
	C438.656,490.281,421,503.875,400,503.875c-26.5,0-48-21.5-48-48v-96C352,333.375,373.5,311.875,400,311.875z M384,455.875
	c0,8.813,7.188,16,16,16s16-7.188,16-16v-96c0-8.813-7.188-16-16-16s-16,7.188-16,16V455.875z M480,327.875
	c-1.281,0-2.625-0.156-3.938-0.5c-8.563-2.156-13.75-10.875-11.563-19.438c21.969-86.531-12.563-178.844-85.906-229.688
	c-73.281-50.844-171.875-50.906-245.203,0C60.047,129.125,25.531,221.438,47.516,307.938c2.172,8.563-3.016,17.281-11.578,19.438
	c-8.5,2.188-17.266-2.969-19.453-11.563C-8.75,216.438,30.891,110.375,115.141,51.938s197.453-58.438,281.703,0
	S520.75,216.406,495.5,315.813C493.656,323.063,487.156,327.875,480,327.875z"/>
</svg>
