<?xml version="1.0" encoding="utf-8"?>
<!-- Generator: Adobe Illustrator 16.0.0, SVG Export Plug-In . SVG Version: 6.00 Build 0)  -->
<!DOCTYPE svg PUBLIC "-//W3C//DTD SVG 1.1//EN" "http://www.w3.org/Graphics/SVG/1.1/DTD/svg11.dtd">
<svg version="1.1" id="Layer_1" xmlns="http://www.w3.org/2000/svg" xmlns:xlink="http://www.w3.org/1999/xlink" x="0px" y="0px"
	 width="512px" height="512px" viewBox="0 0 512 512" enable-background="new 0 0 512 512" xml:space="preserve">
<path d="M512,352v64c0,35.344-28.656,64-64,64c-17.688,0-32-14.313-32-32V288c0-88.375-71.625-160-160-160
	c-88.359,0-160,71.625-160,160v160c0,17.688-14.313,32-32,32c-35.344,0-64-28.656-64-64v-64c0-35.344,28.656-64,64-64
	c-23.844-81.75,6.688-169.625,76.094-219c69.391-49.344,162.438-49.344,231.813,0c69.406,49.375,99.938,137.25,76.094,219
	C483.344,288,512,316.656,512,352z"/>
</svg>
