<?xml version="1.0" encoding="utf-8"?>
<!-- Generator: Adobe Illustrator 16.0.0, SVG Export Plug-In . SVG Version: 6.00 Build 0)  -->
<!DOCTYPE svg PUBLIC "-//W3C//DTD SVG 1.1//EN" "http://www.w3.org/Graphics/SVG/1.1/DTD/svg11.dtd">
<svg version="1.1" id="Layer_1" xmlns="http://www.w3.org/2000/svg" xmlns:xlink="http://www.w3.org/1999/xlink" x="0px" y="0px"
	 width="512px" height="512px" viewBox="0 0 512 512" enable-background="new 0 0 512 512" xml:space="preserve">
<path d="M0,64v384h512V64H0z M480,416H330.688C377.813,416,416,380.188,416,336v-80l-99.5,62.188
	c-17.813,11.125-28.5,29.844-28.5,49.938V288c35.344,0,64-28.656,64-64v-96l-64,64l-32-64l-32,64l-64-64v96
	c0,35.344,28.656,64,64,64v80.125c0-20.094-10.688-38.813-28.5-49.938L96,256v80c0,44.188,38.188,80,85.313,80H32V96h448V416z"/>
</svg>
