<?xml version="1.0" encoding="utf-8"?>
<!-- Generator: Adobe Illustrator 16.0.0, SVG Export Plug-In . SVG Version: 6.00 Build 0)  -->
<!DOCTYPE svg PUBLIC "-//W3C//DTD SVG 1.1//EN" "http://www.w3.org/Graphics/SVG/1.1/DTD/svg11.dtd">
<svg version="1.1" id="Layer_1" xmlns="http://www.w3.org/2000/svg" xmlns:xlink="http://www.w3.org/1999/xlink" x="0px" y="0px"
	 width="512px" height="512px" viewBox="0 0 512 512" enable-background="new 0 0 512 512" xml:space="preserve">
<path d="M448,32c17.656,0,32,14.375,32,32v288c0,17.656-14.344,32-32,32H64c-17.641,0-32-14.344-32-32V64c0-17.625,14.359-32,32-32
	H448 M448,0H64C28.656,0,0,28.656,0,64v384c0,35.344,28.656,64,64,64h384c35.344,0,64-28.656,64-64V64C512,28.656,483.344,0,448,0
	L448,0z M448,352L320.219,128L192.406,352H448z M198.797,276.188L159.875,224L64.406,352h91.156L198.797,276.188z M128,96
	c-17.672,0-32,14.313-32,32s14.328,32,32,32s32-14.313,32-32S145.672,96,128,96z"/>
</svg>
