<?xml version="1.0" encoding="utf-8"?>
<!-- Generator: Adobe Illustrator 16.0.0, SVG Export Plug-In . SVG Version: 6.00 Build 0)  -->
<!DOCTYPE svg PUBLIC "-//W3C//DTD SVG 1.1//EN" "http://www.w3.org/Graphics/SVG/1.1/DTD/svg11.dtd">
<svg version="1.1" id="Layer_1" xmlns="http://www.w3.org/2000/svg" xmlns:xlink="http://www.w3.org/1999/xlink" x="0px" y="0px"
	 width="512px" height="512px" viewBox="0 0 512 512" enable-background="new 0 0 512 512" xml:space="preserve">
<path fill="#010101" d="M448,48v256H64V48H448 M448,16H64c-17.688,0-32,14.328-32,32v256c0,17.688,14.313,32,32,32h384
	c17.688,0,32-14.313,32-32V48C480,30.328,465.688,16,448,16L448,16z M480,344H32L0,440h512L480,344z M58.813,360h394.344l19.219,64
	H39.625L58.813,360z M0,448v16c0,17.688,14.313,32,32,32h448c17.688,0,32-14.313,32-32v-16H0z M400,488c-8.844,0-16-7.156-16-16
	s7.156-16,16-16s16,7.156,16,16S408.844,488,400,488z M464,488c-8.844,0-16-7.156-16-16s7.156-16,16-16s16,7.156,16,16
	S472.844,488,464,488z"/>
</svg>
