<?xml version="1.0" encoding="utf-8"?>
<!-- Generator: Adobe Illustrator 16.0.0, SVG Export Plug-In . SVG Version: 6.00 Build 0)  -->
<!DOCTYPE svg PUBLIC "-//W3C//DTD SVG 1.1//EN" "http://www.w3.org/Graphics/SVG/1.1/DTD/svg11.dtd">
<svg version="1.1" id="Layer_1" xmlns="http://www.w3.org/2000/svg" xmlns:xlink="http://www.w3.org/1999/xlink" x="0px" y="0px"
	 width="512px" height="512px" viewBox="0 0 512 512" enable-background="new 0 0 512 512" xml:space="preserve">
<path d="M305,512"/>
<line x1="305" y1="512" x2="368" y2="512"/>
<path d="M144,512c20.641-35,56.266-58.031,96-62.938v-50.688C168.203,390.313,112,329.938,112,256v-32c0-8.844,7.156-16,16-16
	s16,7.156,16,16v32c0,61.75,50.25,112,112,112s112-50.25,112-112v-32c0-8.844,7.156-16,16-16s16,7.156,16,16v32
	c0,73.938-56.188,134.313-128,142.375v50.688C311.75,453.969,347.375,477,368,512h-63c-8.344-19.25-27.219-31.781-48.188-32
	c-20.938-0.219-40.094,12.938-48.813,32H144z"/>
<g>
	<path d="M256,0c-44.188,0-80,35.813-80,80v80v96c0,44.188,35.813,80,80,80s80-35.813,80-80v-96V80C336,35.813,300.188,0,256,0z
		 M208,160V80c0-26.469,21.531-48,48-48s48,21.531,48,48v80H208z"/>
</g>
</svg>
