<?xml version="1.0" encoding="utf-8"?>
<!-- Generator: Adobe Illustrator 16.0.0, SVG Export Plug-In . SVG Version: 6.00 Build 0)  -->
<!DOCTYPE svg PUBLIC "-//W3C//DTD SVG 1.1//EN" "http://www.w3.org/Graphics/SVG/1.1/DTD/svg11.dtd">
<svg version="1.1" id="Layer_1" xmlns="http://www.w3.org/2000/svg" xmlns:xlink="http://www.w3.org/1999/xlink" x="0px" y="0px"
	 width="512px" height="512px" viewBox="0 0 512 512" enable-background="new 0 0 512 512" xml:space="preserve">
<path d="M305,512"/>
<line x1="305" y1="512" x2="368" y2="512"/>
<path d="M160,128V96c0-53.016,42.969-96,96-96s96,42.984,96,96v32H160z M160,160v64c0,53.031,42.969,96,96,96s96-42.969,96-96v-64
	H160z M416,144c-8.844,0-16,7.156-16,16v64c0,79.406-64.594,144-144,144s-144-64.594-144-144v-64c0-8.844-7.156-16-16-16
	s-16,7.156-16,16v64c0,91.625,70.438,167.063,160,175.188V464h-48c-17.672,0-32,14.313-32,32c0,5.969,2.063,11.219,4.906,16h182.188
	c2.844-4.781,4.906-10.031,4.906-16c0-17.688-14.313-32-32-32h-48v-64.813c89.563-8.125,160-83.563,160-175.188v-64
	C432,151.156,424.844,144,416,144z"/>
</svg>
