<?xml version="1.0" encoding="utf-8"?>
<!-- Generator: Adobe Illustrator 16.0.0, SVG Export Plug-In . SVG Version: 6.00 Build 0)  -->
<!DOCTYPE svg PUBLIC "-//W3C//DTD SVG 1.1//EN" "http://www.w3.org/Graphics/SVG/1.1/DTD/svg11.dtd">
<svg version="1.1" id="Layer_1" xmlns="http://www.w3.org/2000/svg" xmlns:xlink="http://www.w3.org/1999/xlink" x="0px" y="0px"
	 width="512px" height="512px" viewBox="0 0 512 512" enable-background="new 0 0 512 512" xml:space="preserve">
<path d="M184,464h72h72c13.25,0,24,10.75,24,24s-10.75,24-24,24H184c-13.25,0-24-10.75-24-24S170.75,464,184,464z M480,240h-32
	c-8.844,0-16,7.156-16,16c0,97.031-78.969,176-176,176c-97.063,0-176-78.969-176-176c0-8.844-7.156-16-16-16H32v32h16.813
	C57.031,379.219,146.719,464,256,464s198.969-84.781,207.188-192H480V240z M325,240c0-8.844,7.156-16,16-16h48v-64h-48
	c-8.844,0-16-7.156-16-16s7.156-16,16-16h48C389,57.313,331.688,0,261,0S133,57.313,133,128h48c8.844,0,16,7.156,16,16
	s-7.156,16-16,16h-48v64h48c8.844,0,16,7.156,16,16s-7.156,16-16,16h-48c0,70.688,57.313,128,128,128s128-57.313,128-128h-48
	C332.156,256,325,248.844,325,240z"/>
</svg>
