<?xml version="1.0" encoding="utf-8"?>
<!-- Generator: Adobe Illustrator 16.0.0, SVG Export Plug-In . SVG Version: 6.00 Build 0)  -->
<!DOCTYPE svg PUBLIC "-//W3C//DTD SVG 1.1//EN" "http://www.w3.org/Graphics/SVG/1.1/DTD/svg11.dtd">
<svg version="1.1" id="Layer_1" xmlns="http://www.w3.org/2000/svg" xmlns:xlink="http://www.w3.org/1999/xlink" x="0px" y="0px"
	 width="512px" height="512px" viewBox="0 0 512 512" enable-background="new 0 0 512 512" xml:space="preserve">
<path d="M305,512"/>
<line x1="305" y1="512" x2="368" y2="512"/>
<path d="M313.842,42.897c38.313-24,93.844-15.5,132.313,22.953c38.438,38.453,46.938,94,22.969,132.328
	c-37.844-6.734-73.656-24.625-102.188-53.125C338.436,116.538,320.561,80.741,313.842,42.897z M344.311,167.679
	c-27.938-27.953-46.781-62.031-56.906-98.359c-23.969,38.328-15.469,93.844,22.969,132.297c38.469,38.453,93.969,46.953,132.313,23
	C406.342,214.46,372.279,195.632,344.311,167.679z M287.748,224.241c-14.969-14.969-26-32.125-33.641-50.109l-215.25,253.75
	c-12.516,12.531-12.5,32.781,0,45.281c12.484,12.469,32.75,12.5,45.25,0l253.766-215.25
	C319.873,250.272,302.717,239.21,287.748,224.241z"/>
</svg>
