<?xml version="1.0" encoding="utf-8"?>
<!-- Generator: Adobe Illustrator 16.0.0, SVG Export Plug-In . SVG Version: 6.00 Build 0)  -->
<!DOCTYPE svg PUBLIC "-//W3C//DTD SVG 1.1//EN" "http://www.w3.org/Graphics/SVG/1.1/DTD/svg11.dtd">
<svg version="1.1" id="Layer_1" xmlns="http://www.w3.org/2000/svg" xmlns:xlink="http://www.w3.org/1999/xlink" x="0px" y="0px"
	 width="512px" height="512px" viewBox="0 0 512 512" enable-background="new 0 0 512 512" xml:space="preserve">
<path d="M305,512"/>
<line x1="305" y1="512" x2="368" y2="512"/>
<g>
	<path d="M256,352c53,0,96-42.969,96-96V96c0-53.016-43-96-96-96c-53.016,0-96,42.984-96,96v160C160,309.031,202.984,352,256,352z"
		/>
	<path d="M400,192c-8.844,0-16,7.156-16,16v48c0,70.688-57.313,128-128,128s-128-57.313-128-128v-48c0-8.844-7.156-16-16-16
		s-16,7.156-16,16v48c0,77.75,55.5,142.438,129,156.875v39.906c-28.875,9-52.969,30.344-65,59.219h64c0-17.688,14.328-32,32-32
		s32,14.313,32,32h64c-11.75-28.188-35.031-49.094-63-58.469v-41C361.531,397.313,416,333.063,416,256v-48
		C416,199.156,408.844,192,400,192z"/>
</g>
</svg>
