<?xml version="1.0" encoding="utf-8"?>
<!-- Generator: Adobe Illustrator 16.0.0, SVG Export Plug-In . SVG Version: 6.00 Build 0)  -->
<!DOCTYPE svg PUBLIC "-//W3C//DTD SVG 1.1//EN" "http://www.w3.org/Graphics/SVG/1.1/DTD/svg11.dtd">
<svg version="1.1" id="Layer_1" xmlns="http://www.w3.org/2000/svg" xmlns:xlink="http://www.w3.org/1999/xlink" x="0px" y="0px"
	 width="512px" height="512px" viewBox="0 0 512 512" enable-background="new 0 0 512 512" xml:space="preserve">
<path d="M305,512"/>
<line x1="305" y1="512" x2="368" y2="512"/>
<path d="M272,480v-96c8.844,0,16-7.156,16-16s-7.156-16-16-16h-16h-16c-8.844,0-16,7.156-16,16s7.156,16,16,16v96h-48l-32,32h177h15
	l-32-32H272z M320,256h32c0,53.031-43,96-96,96c-53.016,0-96-42.969-96-96h32c8.844,0,16-7.156,16-16s-7.156-16-16-16h-32v-32h32
	c8.844,0,16-7.156,16-16s-7.156-16-16-16h-32v-32h32c8.844,0,16-7.156,16-16s-7.156-16-16-16h-32c0-28.313,12.5-53.516,32-71.078V48
	c0,8.844,7.156,16,16,16s16-7.156,16-16V5.875C234.063,2.313,244.719,0,256,0s21.938,2.313,32,5.875V48c0,8.844,7.156,16,16,16
	s16-7.156,16-16V24.922C339.5,42.5,352,67.688,352,96h-32c-8.844,0-16,7.156-16,16s7.156,16,16,16h32v32h-32
	c-8.844,0-16,7.156-16,16s7.156,16,16,16h32v32h-32c-8.844,0-16,7.156-16,16S311.156,256,320,256z"/>
</svg>
