<?xml version="1.0" encoding="utf-8"?>
<!-- Generator: Adobe Illustrator 16.0.0, SVG Export Plug-In . SVG Version: 6.00 Build 0)  -->
<!DOCTYPE svg PUBLIC "-//W3C//DTD SVG 1.1//EN" "http://www.w3.org/Graphics/SVG/1.1/DTD/svg11.dtd">
<svg version="1.1" id="Layer_1" xmlns="http://www.w3.org/2000/svg" xmlns:xlink="http://www.w3.org/1999/xlink" x="0px" y="0px"
	 width="512px" height="512px" viewBox="0 0 512 512" enable-background="new 0 0 512 512" xml:space="preserve">
<path fill="#010101" d="M368,0H144c-35.188,0-64,28.813-64,64v384c0,35.188,28.813,64,64,64h224c35.188,0,64-28.813,64-64V64
	C432,28.813,403.188,0,368,0z M192,32h128c8.844,0,16,7.156,16,16s-7.156,16-16,16H192c-8.844,0-16-7.156-16-16S183.156,32,192,32z
	 M256,488.938c-13.75,0-24.938-11.188-24.938-24.938S242.25,439.063,256,439.063S280.938,450.25,280.938,464
	S269.75,488.938,256,488.938z M368,416H144V96h224V416z"/>
</svg>
