<?xml version="1.0" encoding="utf-8"?>
<!-- Generator: Adobe Illustrator 16.0.0, SVG Export Plug-In . SVG Version: 6.00 Build 0)  -->
<!DOCTYPE svg PUBLIC "-//W3C//DTD SVG 1.1//EN" "http://www.w3.org/Graphics/SVG/1.1/DTD/svg11.dtd">
<svg version="1.1" id="Layer_1" xmlns="http://www.w3.org/2000/svg" xmlns:xlink="http://www.w3.org/1999/xlink" x="0px" y="0px"
	 width="512px" height="512px" viewBox="0 0 512 512" enable-background="new 0 0 512 512" xml:space="preserve">
<path fill="#010101" d="M384,0H128c-26.438,0-48,21.531-48,48v416c0,26.469,21.563,48,48,48h256c26.5,0,48-21.531,48-48V48
	C432,21.531,410.5,0,384,0z M400,464c0,8.813-7.188,16-16,16H128c-8.813,0-16-7.188-16-16V48c0-8.813,7.188-16,16-16h256
	c8.813,0,16,7.188,16,16V464z M272,448c0,8.813-7.188,16-16,16s-16-7.188-16-16s7.188-16,16-16S272,439.188,272,448z M368,400
	c0,8.844-7.156,16-16,16H160c-8.844,0-16-7.156-16-16V112c0-8.844,7.156-16,16-16h192c8.844,0,16,7.156,16,16V400z M336,64
	c0,8.844-7.156,16-16,16H192c-8.844,0-16-7.156-16-16l0,0c0-8.844,7.156-16,16-16h128C328.844,48,336,55.156,336,64L336,64z"/>
</svg>
