<?xml version="1.0" encoding="utf-8"?>
<!-- Generator: Adobe Illustrator 16.0.0, SVG Export Plug-In . SVG Version: 6.00 Build 0)  -->
<!DOCTYPE svg PUBLIC "-//W3C//DTD SVG 1.1//EN" "http://www.w3.org/Graphics/SVG/1.1/DTD/svg11.dtd">
<svg version="1.1" id="Layer_1" xmlns="http://www.w3.org/2000/svg" xmlns:xlink="http://www.w3.org/1999/xlink" x="0px" y="0px"
	 width="512px" height="512px" viewBox="0 0 512 512" enable-background="new 0 0 512 512" xml:space="preserve">
<path d="M432.375,68.969l-40.563-58.906l63.375-8.938l40.625,58.938L432.375,68.969z M369,77.875l-40.563-58.906l-63.375,8.906
	l40.563,58.906L369,77.875z M242.25,95.688l-40.563-58.906l-63.375,8.906l40.563,58.906L242.25,95.688z M74.938,54.594L11.563,63.5
	l8.875,63.375L115.5,113.5L74.938,54.594z M372.438,382.875v-64h-224v64H372.438z M468.438,190.875h32v256c0,35.344-28.625,64-64,64
	h-352c-35.313,0-64-28.656-64-64v-256v-64h96l-32,64h64l32-64h64l-32,64h64l32-64h64l-32,64h64l32-64h64L468.438,190.875z
	 M468.438,286.875h-416v32H115.5v64H52.438v32h416v-32h-64v-64h64V286.875z"/>
</svg>
