<?xml version="1.0" encoding="utf-8"?>
<!-- Generator: Adobe Illustrator 16.0.0, SVG Export Plug-In . SVG Version: 6.00 Build 0)  -->
<!DOCTYPE svg PUBLIC "-//W3C//DTD SVG 1.1//EN" "http://www.w3.org/Graphics/SVG/1.1/DTD/svg11.dtd">
<svg version="1.1" id="Layer_1" xmlns="http://www.w3.org/2000/svg" xmlns:xlink="http://www.w3.org/1999/xlink" x="0px" y="0px"
	 width="512px" height="512px" viewBox="0 0 512 512" enable-background="new 0 0 512 512" xml:space="preserve">
<path d="M160,96v304.625C142.984,390.406,120.703,384,96,384c-53.016,0-96,28.656-96,64s42.984,64,96,64s96-28.656,96-64V151.281
	l288-78.563v231.906C463,294.406,440.688,288,416,288c-53,0-96,28.656-96,64s43,64,96,64s96-28.656,96-64V0L160,96z M96,480
	c-39.063,0-64-18.938-64-32s24.938-32,64-32s64,18.938,64,32S135.063,480,96,480z M416,384c-39.063,0-64-18.938-64-32
	s24.938-32,64-32s64,18.938,64,32S455.063,384,416,384z"/>
</svg>
