<?xml version="1.0" encoding="utf-8"?>
<!-- Generator: Adobe Illustrator 16.0.0, SVG Export Plug-In . SVG Version: 6.00 Build 0)  -->
<!DOCTYPE svg PUBLIC "-//W3C//DTD SVG 1.1//EN" "http://www.w3.org/Graphics/SVG/1.1/DTD/svg11.dtd">
<svg version="1.1" id="Layer_1" xmlns="http://www.w3.org/2000/svg" xmlns:xlink="http://www.w3.org/1999/xlink" x="0px" y="0px"
	 width="512px" height="512px" viewBox="0 0 512 512" enable-background="new 0 0 512 512" xml:space="preserve">
<path d="M32,368H0V176h32c17.672,0,32,14.313,32,32v128C64,353.688,49.672,368,32,368z M256,176c-53.016,0-96,43-96,96
	s42.984,96,96,96c53,0,96-43,96-96S309,176,256,176z M512,144v256c0,17.688-14.313,32-32,32H32c-17.688,0-32-14.313-32-32h32
	c35.297,0,64-28.688,64-64V208c0-35.313-28.703-64-64-64H0c0-17.688,14.313-32,32-32h64V96c0-8.844,7.156-16,16-16h64
	c8.844,0,16,7.156,16,16v16h288C497.688,112,512,126.313,512,144z M384,272c0-70.563-57.406-128-128-128
	c-70.578,0-128,57.438-128,128c0,70.594,57.422,128,128,128C326.594,400,384,342.594,384,272z M448,144h-64v32h64V144z"/>
</svg>
