<?xml version="1.0" encoding="utf-8"?>
<!-- Generator: Adobe Illustrator 16.0.0, SVG Export Plug-In . SVG Version: 6.00 Build 0)  -->
<!DOCTYPE svg PUBLIC "-//W3C//DTD SVG 1.1//EN" "http://www.w3.org/Graphics/SVG/1.1/DTD/svg11.dtd">
<svg version="1.1" id="Layer_1" xmlns="http://www.w3.org/2000/svg" xmlns:xlink="http://www.w3.org/1999/xlink" x="0px" y="0px"
	 width="512px" height="512px" viewBox="0 0 512 512" enable-background="new 0 0 512 512" xml:space="preserve">
<path d="M448,176H320v-32h128V176z M512,144v256c0,35.344-28.656,64-64,64H64c-35.344,0-64-28.656-64-64V144
	c0-35.344,28.656-64,64-64c0-17.688,14.328-32,32-32h64c17.672,0,32,14.313,32,32h256C483.344,80,512,108.656,512,144z M352,336
	c0-53-42.969-96-96-96s-96,43-96,96s42.969,96,96,96S352,389,352,336z M480,144c0-17.656-14.344-32-32-32H64
	c-17.656,0-32,14.344-32,32v64h448V144z M256,272c-35.281,0-64,28.688-64,64s28.719,64,64,64s64-28.688,64-64S291.281,272,256,272z"
	/>
</svg>
