<?xml version="1.0" encoding="utf-8"?>
<!-- Generator: Adobe Illustrator 16.0.0, SVG Export Plug-In . SVG Version: 6.00 Build 0)  -->
<!DOCTYPE svg PUBLIC "-//W3C//DTD SVG 1.1//EN" "http://www.w3.org/Graphics/SVG/1.1/DTD/svg11.dtd">
<svg version="1.1" id="Layer_1" xmlns="http://www.w3.org/2000/svg" xmlns:xlink="http://www.w3.org/1999/xlink" x="0px" y="0px"
	 width="512px" height="512px" viewBox="0 0 512 512" enable-background="new 0 0 512 512" xml:space="preserve">
<path d="M64,96h64v64H64V96z M96,192c-17.688,0-32,14.313-32,32s14.313,32,32,32s32-14.313,32-32S113.688,192,96,192z M448,304
	c0,61.844-50.156,112-112,112s-112-50.156-112-112s50.156-112,112-112S448,242.156,448,304z M416,304c0-44.125-35.875-80-80-80
	s-80,35.875-80,80s35.875,80,80,80S416,348.125,416,304z M512,96v352c0,35.344-28.656,64-64,64H64c-35.344,0-64-28.656-64-64V96
	c0-35.344,28.656-64,64-64V0h64v32h320C483.344,32,512,60.656,512,96z M160,480V64H64c-17.625,0-32,14.375-32,32v352
	c0,17.656,14.375,32,32,32H160z M480,96c0-17.625-14.344-32-32-32H192v416h256c17.656,0,32-14.344,32-32V96z M416,96h-32
	c-17.688,0-32,14.313-32,32s14.313,32,32,32h32c17.688,0,32-14.313,32-32S433.688,96,416,96z"/>
</svg>
