<?xml version="1.0" encoding="utf-8"?>
<!-- Generator: Adobe Illustrator 16.0.0, SVG Export Plug-In . SVG Version: 6.00 Build 0)  -->
<!DOCTYPE svg PUBLIC "-//W3C//DTD SVG 1.1//EN" "http://www.w3.org/Graphics/SVG/1.1/DTD/svg11.dtd">
<svg version="1.1" id="Layer_1" xmlns="http://www.w3.org/2000/svg" xmlns:xlink="http://www.w3.org/1999/xlink" x="0px" y="0px"
	 width="512px" height="512px" viewBox="0 0 512 512" enable-background="new 0 0 512 512" xml:space="preserve">
<g>
	<path d="M448,256c0-17.688-14.313-32-32-32h-8c39.688,0,72-32.313,72-72V72c0-39.688-32.313-72-72-72h-80
		c-39.688,0-72,32.313-72,72v80c0,39.688,32.313,72,72,72h-8c-17.688,0-32,14.313-32,32h-96c0-17.688-14.328-32-32-32H96
		c-17.672,0-32,14.313-32,32c-35.344,0-64,28.656-64,64v128c0,35.344,28.656,64,64,64h384c35.344,0,64-28.656,64-64V320
		C512,284.656,483.344,256,448,256z M144,288h-32c-8.844,0-16-7.156-16-16s7.156-16,16-16h32c8.844,0,16,7.156,16,16
		S152.844,288,144,288z M288,152V72c0-22.094,17.875-40,40-40h80c22.125,0,40,17.906,40,40v80c0,22.094-17.875,40-40,40h-80
		C305.875,192,288,174.094,288,152z M368,496c-61.875,0-112-50.125-112-112s50.125-112,112-112s112,50.125,112,112
		S429.875,496,368,496z"/>
	<path d="M368,304c-44.125,0-80,35.875-80,80s35.875,80,80,80s80-35.875,80-80S412.125,304,368,304z"/>
</g>
</svg>
