<?xml version="1.0" encoding="utf-8"?>
<!-- Generator: Adobe Illustrator 16.0.0, SVG Export Plug-In . SVG Version: 6.00 Build 0)  -->
<!DOCTYPE svg PUBLIC "-//W3C//DTD SVG 1.1//EN" "http://www.w3.org/Graphics/SVG/1.1/DTD/svg11.dtd">
<svg version="1.1" id="Layer_1" xmlns="http://www.w3.org/2000/svg" xmlns:xlink="http://www.w3.org/1999/xlink" x="0px" y="0px"
	 width="512px" height="512px" viewBox="0 0 512 512" enable-background="new 0 0 512 512" xml:space="preserve">
<g>
	<rect x="191.992" y="416" width="128.016" height="32"/>
	<rect x="191.992" y="352" width="128.016" height="32"/>
	<path d="M480.008,192h-32v-64h-64V38.594L353.445,0H127.992v128h-64v64h-32c-17.688,0-32,14.313-32,32v96c0,17.688,14.313,32,32,32
		h96v160h256.016V352h96c17.688,0,32-14.313,32-32v-96C512.008,206.313,497.695,192,480.008,192z M95.992,224v-32h64v32H95.992z
		 M352.008,480H159.992V320h192.016V480z M352.008,128H159.992V32h128v64h64.016V128z"/>
</g>
</svg>
