<?xml version="1.0" encoding="utf-8"?>
<!-- Generator: Adobe Illustrator 16.0.0, SVG Export Plug-In . SVG Version: 6.00 Build 0)  -->
<!DOCTYPE svg PUBLIC "-//W3C//DTD SVG 1.1//EN" "http://www.w3.org/Graphics/SVG/1.1/DTD/svg11.dtd">
<svg version="1.1" id="Layer_1" xmlns="http://www.w3.org/2000/svg" xmlns:xlink="http://www.w3.org/1999/xlink" x="0px" y="0px"
	 width="512px" height="512px" viewBox="0 0 512 512" enable-background="new 0 0 512 512" xml:space="preserve">
<g>
	<path d="M128.008,32h255.984v64h32V32c0-17.656-14.313-32-32-32H128.008c-17.672,0-32,14.344-32,32v64h32V32z"/>
	<path d="M479.992,128H32.008c-17.672,0-32,14.344-32,32v160c0,17.688,14.328,32,32,32h64v128c0,17.688,14.328,32,32,32h255.984
		c17.688,0,32-14.313,32-32V352h64c17.688,0,32-14.313,32-32V160C511.992,142.344,497.68,128,479.992,128z M383.992,480H128.008V256
		h255.984V480z M447.992,224c-17.688,0-32-14.313-32-32c0-17.656,14.313-32,32-32s32,14.344,32,32
		C479.992,209.688,465.68,224,447.992,224z"/>
	<polygon points="303.992,352 256.008,416 208.008,384 160.008,448 351.992,448 	"/>
	<path d="M208.008,360c13.25,0,24-10.75,24-24s-10.75-24-24-24s-24,10.75-24,24S194.758,360,208.008,360z"/>
</g>
</svg>
