<?xml version="1.0" encoding="utf-8"?>
<!-- Generator: Adobe Illustrator 16.0.0, SVG Export Plug-In . SVG Version: 6.00 Build 0)  -->
<!DOCTYPE svg PUBLIC "-//W3C//DTD SVG 1.1//EN" "http://www.w3.org/Graphics/SVG/1.1/DTD/svg11.dtd">
<svg version="1.1" id="Layer_1" xmlns="http://www.w3.org/2000/svg" xmlns:xlink="http://www.w3.org/1999/xlink" x="0px" y="0px"
	 width="512px" height="512px" viewBox="0 0 512 512" enable-background="new 0 0 512 512" xml:space="preserve">
<g>
	<polygon points="96,32 320,32 320,128 416,128 416,256 448,256 448,96.031 352,0 64,0 64,256 96,256 	"/>
	<path d="M480,288H32c-17.672,0-32,14.313-32,32v160c0,17.688,14.328,32,32,32h448c17.688,0,32-14.313,32-32V320
		C512,302.313,497.688,288,480,288z M384,384h-32v-32h32V384z M480,384h-64v-32h64V384z"/>
</g>
</svg>
