<?xml version="1.0" encoding="utf-8"?>
<!-- Generator: Adobe Illustrator 16.0.0, SVG Export Plug-In . SVG Version: 6.00 Build 0)  -->
<!DOCTYPE svg PUBLIC "-//W3C//DTD SVG 1.1//EN" "http://www.w3.org/Graphics/SVG/1.1/DTD/svg11.dtd">
<svg version="1.1" id="Layer_1" xmlns="http://www.w3.org/2000/svg" xmlns:xlink="http://www.w3.org/1999/xlink" x="0px" y="0px"
	 width="512px" height="512px" viewBox="0 0 512 512" enable-background="new 0 0 512 512" xml:space="preserve">
<g>
	<rect x="192" y="416" width="128" height="32"/>
	<rect x="192" y="352" width="128" height="32"/>
	<path d="M480,128h-64V64h-32V0h-32H160h-32v64H96v64H32c-17.672,0-32,14.344-32,32v160c0,17.688,14.328,32,32,32h96v160h32h192h32
		V352h96c17.688,0,32-14.313,32-32V160C512,142.344,497.688,128,480,128z M352,352v32v96H160v-96v-32v-96h192V352z M352,128H160V32
		h192V128z M400,224c-8.844,0-16-7.156-16-16s7.156-16,16-16s16,7.156,16,16S408.844,224,400,224z M464,224c-8.844,0-16-7.156-16-16
		s7.156-16,16-16s16,7.156,16,16S472.844,224,464,224z"/>
</g>
</svg>
