<?xml version="1.0" encoding="utf-8"?>
<!-- Generator: Adobe Illustrator 16.0.0, SVG Export Plug-In . SVG Version: 6.00 Build 0)  -->
<!DOCTYPE svg PUBLIC "-//W3C//DTD SVG 1.1//EN" "http://www.w3.org/Graphics/SVG/1.1/DTD/svg11.dtd">
<svg version="1.1" id="Layer_1" xmlns="http://www.w3.org/2000/svg" xmlns:xlink="http://www.w3.org/1999/xlink" x="0px" y="0px"
	 width="512px" height="512px" viewBox="0 0 512 512" enable-background="new 0 0 512 512" xml:space="preserve">
<path d="M320,176c-53,0-96,43-96,96c0,53.031,43,96,96,96c53.031,0,96-42.969,96-96C416,219,373.031,176,320,176z M384,304H256v-64
	h128V304z M480,112H128V80H64v32H32c-17.672,0-32,14.313-32,32v256c0,17.688,14.328,32,32,32h448c17.688,0,32-14.313,32-32V144
	C512,126.313,497.688,112,480,112z M320,400c-70.578,0-128-57.406-128-128c0-70.563,57.422-128,128-128c70.594,0,128,57.438,128,128
	C448,342.594,390.594,400,320,400z M480,176h-32v-32h32V176z"/>
</svg>
