<?xml version="1.0" encoding="utf-8"?>
<!-- Generator: Adobe Illustrator 16.0.0, SVG Export Plug-In . SVG Version: 6.00 Build 0)  -->
<!DOCTYPE svg PUBLIC "-//W3C//DTD SVG 1.1//EN" "http://www.w3.org/Graphics/SVG/1.1/DTD/svg11.dtd">
<svg version="1.1" id="Layer_1" xmlns="http://www.w3.org/2000/svg" xmlns:xlink="http://www.w3.org/1999/xlink" x="0px" y="0px"
	 width="512px" height="512px" viewBox="0 0 512 512" enable-background="new 0 0 512 512" xml:space="preserve">
<path fill="#010101" d="M416,0H96C60.813,0,32,28.813,32,64v384c0,35.188,28.813,64,64,64h320c35.188,0,64-28.813,64-64V64
	C480,28.813,451.188,0,416,0z M256,496c-17.688,0-32-14.344-32-32s14.313-32,32-32s32,14.344,32,32S273.688,496,256,496z M416,416
	H96V64h320V416z"/>
</svg>
