<?xml version="1.0" encoding="utf-8"?>
<!-- Generator: Adobe Illustrator 16.0.0, SVG Export Plug-In . SVG Version: 6.00 Build 0)  -->
<!DOCTYPE svg PUBLIC "-//W3C//DTD SVG 1.1//EN" "http://www.w3.org/Graphics/SVG/1.1/DTD/svg11.dtd">
<svg version="1.1" id="Layer_1" xmlns="http://www.w3.org/2000/svg" xmlns:xlink="http://www.w3.org/1999/xlink" x="0px" y="0px"
	 width="512px" height="512px" viewBox="0 0 512 512" enable-background="new 0 0 512 512" xml:space="preserve">
<path d="M480,64H288c-17.688,0-32,14.313-32,32v32h-32V96c0-35.344-28.656-64-64-64H64C28.656,32,0,60.656,0,96v320
	c0,35.344,28.656,64,64,64h96c35.344,0,64-28.656,64-64V192h32v32c0,17.688,14.313,32,32,32h192c17.688,0,32-14.313,32-32V96
	C512,78.313,497.688,64,480,64z M144,448H80c-8.844,0-16-7.156-16-16s7.156-16,16-16h64c8.844,0,16,7.156,16,16S152.844,448,144,448
	z M144,384H80c-8.844,0-16-7.156-16-16s7.156-16,16-16h64c8.844,0,16,7.156,16,16S152.844,384,144,384z M112,224
	c-44.188,0-80-35.813-80-80s35.813-80,80-80s80,35.813,80,80S156.188,224,112,224z M161,112c0,8.844-7.156,16-16,16s-16-7.156-16-16
	s7.156-16,16-16S161,103.156,161,112z"/>
</svg>
