<?xml version="1.0" encoding="utf-8"?>
<!-- Generator: Adobe Illustrator 16.0.0, SVG Export Plug-In . SVG Version: 6.00 Build 0)  -->
<!DOCTYPE svg PUBLIC "-//W3C//DTD SVG 1.1//EN" "http://www.w3.org/Graphics/SVG/1.1/DTD/svg11.dtd">
<svg version="1.1" id="Layer_1" xmlns="http://www.w3.org/2000/svg" xmlns:xlink="http://www.w3.org/1999/xlink" x="0px" y="0px"
	 width="512px" height="512px" viewBox="0 0 512 512" enable-background="new 0 0 512 512" xml:space="preserve">
<path d="M416,240l96-64v256l-96-64V240z M384,240v128c0,35.344-28.656,64-64,64H64c-35.344,0-64-28.656-64-64V240
	c0-35.344,28.656-64,64-64h160c0-17.688,14.313-32,32-32v-32H80c-8.844,0-16-7.156-16-16s7.156-16,16-16h192c8.844,0,16,7.156,16,16
	v48c17.688,0,32,14.313,32,32C355.344,176,384,204.656,384,240z M192,240H64v128h128V240z M320,256c0-8.844-7.156-16-16-16h-16h-48
	c-8.844,0-16,7.156-16,16s7.156,16,16,16h64C312.844,272,320,264.844,320,256z"/>
</svg>
