<?xml version="1.0" encoding="utf-8"?>
<!-- Generator: Adobe Illustrator 16.0.0, SVG Export Plug-In . SVG Version: 6.00 Build 0)  -->
<!DOCTYPE svg PUBLIC "-//W3C//DTD SVG 1.1//EN" "http://www.w3.org/Graphics/SVG/1.1/DTD/svg11.dtd">
<svg version="1.1" id="Layer_1" xmlns="http://www.w3.org/2000/svg" xmlns:xlink="http://www.w3.org/1999/xlink" x="0px" y="0px"
	 width="512px" height="512px" viewBox="0 0 512 512" enable-background="new 0 0 512 512" xml:space="preserve">
<path d="M500.688,251.313C506.906,245.094,512,247.188,512,256v224c0,8.813-5.094,10.906-11.313,4.688l-73.375-73.375
	C421.094,405.094,416,392.813,416,384v-32c0-8.813,5.094-21.094,11.313-27.313L500.688,251.313z M352,240H32
	c-17.688,0-32,14.313-32,32v192c0,17.688,14.313,32,32,32h320c17.688,0,32-14.313,32-32V272C384,254.313,369.688,240,352,240z
	 M256,464H32V272h224V464z M320,336c-17.688,0-32-14.313-32-32s14.313-32,32-32s32,14.313,32,32S337.688,336,320,336z M96,48
	c35.344,0,64,28.656,64,64s-28.656,64-64,64s-64-28.656-64-64S60.656,48,96,48 M96,16C43.063,16,0,59.063,0,112s43.063,96,96,96
	s96-43.063,96-96S148.938,16,96,16L96,16z M288,48c35.344,0,64,28.656,64,64s-28.656,64-64,64s-64-28.656-64-64S252.656,48,288,48
	 M288,16c-52.938,0-96,43.063-96,96s43.063,96,96,96s96-43.063,96-96S340.938,16,288,16L288,16z"/>
</svg>
