<?xml version="1.0" encoding="utf-8"?>
<!-- Generator: Adobe Illustrator 16.0.0, SVG Export Plug-In . SVG Version: 6.00 Build 0)  -->
<!DOCTYPE svg PUBLIC "-//W3C//DTD SVG 1.1//EN" "http://www.w3.org/Graphics/SVG/1.1/DTD/svg11.dtd">
<svg version="1.1" id="Layer_1" xmlns="http://www.w3.org/2000/svg" xmlns:xlink="http://www.w3.org/1999/xlink" x="0px" y="0px"
	 width="512px" height="512px" viewBox="0 0 512 512" enable-background="new 0 0 512 512" xml:space="preserve">
<path d="M512,160v256l-96-64V224L512,160z M256,192c17.688,0,32-14.313,32-32v-32c0-17.688-14.313-32-32-32H96
	c-17.688,0-32,14.313-32,32v32c0,17.688,14.313,32,32,32H256z M0,192l32-32v-32L0,96V192z M384,192v192c0,17.688-14.313,32-32,32
	H128c-17.688,0-32-14.313-32-32V224h160c35.281,0,64-28.719,64-64h32C369.688,160,384,174.313,384,192z M352,368
	c0-8.844-7.156-16-16-16H208c-8.844,0-16,7.156-16,16s7.156,16,16,16h128C344.844,384,352,376.844,352,368z"/>
</svg>
