<?xml version="1.0" encoding="utf-8"?>
<!-- Generator: Adobe Illustrator 16.0.0, SVG Export Plug-In . SVG Version: 6.00 Build 0)  -->
<!DOCTYPE svg PUBLIC "-//W3C//DTD SVG 1.1//EN" "http://www.w3.org/Graphics/SVG/1.1/DTD/svg11.dtd">
<svg version="1.1" id="Layer_1" xmlns="http://www.w3.org/2000/svg" xmlns:xlink="http://www.w3.org/1999/xlink" x="0px" y="0px"
	 width="512px" height="512px" viewBox="0 0 512 512" enable-background="new 0 0 512 512" xml:space="preserve">
<g>
	<path d="M288,192H160c0-17.688-14.313-32-32-32v-32h128V64H96c-17.688,0-32,14.313-32,32v64c-17.688,0-32,14.313-32,32
		c-17.688,0-32,14.313-32,32v192c0,17.688,14.313,32,32,32h256c17.688,0,32-14.313,32-32V224C320,206.313,305.688,192,288,192z
		 M208,416H48c-8.844,0-16-7.156-16-16s7.156-16,16-16h160c8.844,0,16,7.156,16,16S216.844,416,208,416z"/>
	<path d="M416,96c0-17.688-14.313-32-32-32h-96v64h96C401.688,128,416,113.688,416,96z"/>
	<path d="M416,256h-32c-17.688,0-32,14.313-32,32v64c0,17.688,14.313,32,32,32h32l96,64V192L416,256z"/>
</g>
</svg>
