<?xml version="1.0" encoding="utf-8"?>
<!-- Generator: Adobe Illustrator 16.0.0, SVG Export Plug-In . SVG Version: 6.00 Build 0)  -->
<!DOCTYPE svg PUBLIC "-//W3C//DTD SVG 1.1//EN" "http://www.w3.org/Graphics/SVG/1.1/DTD/svg11.dtd">
<svg version="1.1" id="Layer_1" xmlns="http://www.w3.org/2000/svg" xmlns:xlink="http://www.w3.org/1999/xlink" x="0px" y="0px"
	 width="512px" height="512px" viewBox="0 0 512 512" enable-background="new 0 0 512 512" xml:space="preserve">
<path d="M128,128c-35.313,0-64,28.688-64,64s28.688,64,64,64s64-28.688,64-64S163.313,128,128,128z M128,224
	c-17.688,0-32-14.313-32-32s14.313-32,32-32s32,14.313,32,32S145.688,224,128,224z M480,64H250.125C236.906,26.813,201.75,0,160,0
	H96C43,0,0,43,0,96v320c0,53.031,43,96,96,96h64c53.031,0,96-42.969,96-96v-96h224c17.688,0,32-14.313,32-32V96
	C512,78.313,497.688,64,480,64z M176,448H80c-8.844,0-16-7.156-16-16s7.156-16,16-16h96c8.844,0,16,7.156,16,16S184.844,448,176,448
	z M128,288c-53,0-96-42.969-96-96c0-53,43-96,96-96s96,43,96,96C224,245.031,181,288,128,288z M480,288H256V96h224V288z"/>
</svg>
