<?xml version="1.0" encoding="utf-8"?>
<!-- Generator: Adobe Illustrator 16.0.0, SVG Export Plug-In . SVG Version: 6.00 Build 0)  -->
<!DOCTYPE svg PUBLIC "-//W3C//DTD SVG 1.1//EN" "http://www.w3.org/Graphics/SVG/1.1/DTD/svg11.dtd">
<svg version="1.1" id="Layer_1" xmlns="http://www.w3.org/2000/svg" xmlns:xlink="http://www.w3.org/1999/xlink" x="0px" y="0px"
	 width="512px" height="512px" viewBox="0 0 512 512" enable-background="new 0 0 512 512" xml:space="preserve">
<path d="M512,416c-70.688,0-128-35.813-128-80s57.313-80,128-80V416z M352,288v96c0,35.344-28.656,64-64,64H64
	c-35.344,0-64-28.656-64-64v-96c0-35.344,28.656-64,64-64h224C323.344,224,352,252.656,352,288z M288,400c0-8.844-7.156-16-16-16H80
	c-8.844,0-16,7.156-16,16s7.156,16,16,16h192C280.844,416,288,408.844,288,400z M64,64C28.656,64,0,92.656,0,128s28.656,64,64,64
	s64-28.656,64-64S99.344,64,64,64z M288,64c-35.344,0-64,28.656-64,64s28.656,64,64,64s64-28.656,64-64S323.344,64,288,64z"/>
</svg>
