<?xml version="1.0" encoding="utf-8"?>
<!-- Generator: Adobe Illustrator 16.0.0, SVG Export Plug-In . SVG Version: 6.00 Build 0)  -->
<!DOCTYPE svg PUBLIC "-//W3C//DTD SVG 1.1//EN" "http://www.w3.org/Graphics/SVG/1.1/DTD/svg11.dtd">
<svg version="1.1" id="Layer_1" xmlns="http://www.w3.org/2000/svg" xmlns:xlink="http://www.w3.org/1999/xlink" x="0px" y="0px"
	 width="512px" height="512px" viewBox="0 0 512 512" enable-background="new 0 0 512 512" xml:space="preserve">
<path d="M480,160H224c-17.688,0-32,14.313-32,32c0-4.438-0.438-8.75-1.313-12.906C184.344,132.25,144.594,96,96,96
	S7.656,132.25,1.313,179.094C0.438,183.25,0,187.563,0,192v160c0,35.344,28.656,64,64,64h64c35.344,0,64-28.656,64-64v-32
	c0,17.688,14.313,32,32,32h256c17.688,0,32-14.313,32-32V192C512,174.313,497.688,160,480,160z M128,384H64c-8.844,0-16-7.156-16-16
	s7.156-16,16-16h64c8.844,0,16,7.156,16,16S136.844,384,128,384z M96,256c-35.344,0-64-28.656-64-64s28.656-64,64-64
	s64,28.656,64,64S131.344,256,96,256z"/>
</svg>
