<?xml version="1.0" encoding="utf-8"?>
<!-- Generator: Adobe Illustrator 16.0.0, SVG Export Plug-In . SVG Version: 6.00 Build 0)  -->
<!DOCTYPE svg PUBLIC "-//W3C//DTD SVG 1.1//EN" "http://www.w3.org/Graphics/SVG/1.1/DTD/svg11.dtd">
<svg version="1.1" id="Layer_1" xmlns="http://www.w3.org/2000/svg" xmlns:xlink="http://www.w3.org/1999/xlink" x="0px" y="0px"
	 width="512px" height="512px" viewBox="0 0 512 512" enable-background="new 0 0 512 512" xml:space="preserve">
<path d="M512,200v192l-64-32v-16h-96v-96h96v-16L512,200z M384,104H256v16h-60.5c7.688,8.5,12.5,19.656,12.5,32h48v16h128
	c17.781,0.125,32.25-14.25,32.25-32S401.781,103.875,384,104z M320,216v160c0,17.688-14.313,32-32,32H32c-17.688,0-32-14.313-32-32
	v-80v-80v-64c0-17.688,14.313-32,32-32h128c17.688,0,32,14.313,32,32v32h96C305.688,184,320,198.313,320,216z M256,248H32v96h224
	V248z"/>
</svg>
