<?xml version="1.0" encoding="utf-8"?>
<!-- Generator: Adobe Illustrator 16.0.0, SVG Export Plug-In . SVG Version: 6.00 Build 0)  -->
<!DOCTYPE svg PUBLIC "-//W3C//DTD SVG 1.1//EN" "http://www.w3.org/Graphics/SVG/1.1/DTD/svg11.dtd">
<svg version="1.1" id="Layer_1" xmlns="http://www.w3.org/2000/svg" xmlns:xlink="http://www.w3.org/1999/xlink" x="0px" y="0px"
	 width="512px" height="512px" viewBox="0 0 512 512" enable-background="new 0 0 512 512" xml:space="preserve">
<path d="M486.279,324.124c2.75-20.812-7.344-41.28-25.531-51.78c-18.187-10.5-40.937-9-57.624,3.781
	c2.781-20.813-7.313-41.281-25.5-51.781c-10.375-5.968-22.156-7.656-33.5-5.968l-101.78,176.249
	c44.625,15,83.687,44.531,109.655,85.374H0.002C38.298,419.812,104.673,383.374,176,383.374c11.547,0,22.875,1.281,34.063,3.156
	l106.312-184.155c-4.188-10.688-11.531-20.063-21.875-26.031c-18.219-10.5-40.969-9-57.641,3.781
	c2.766-20.812-7.313-41.25-25.515-51.781c-18.203-10.5-40.953-9-57.625,3.781c50.312-87.125,158.624-119.749,248.029-77.562
	l8.406-14.563c4.406-7.656,14.188-10.25,21.844-5.844c7.656,4.406,10.281,14.188,5.844,21.844l-8.406,14.563
	C510.717,126.876,536.592,237,486.279,324.124z"/>
</svg>
