<?xml version="1.0" encoding="utf-8"?>
<!-- Generator: Adobe Illustrator 16.0.0, SVG Export Plug-In . SVG Version: 6.00 Build 0)  -->
<!DOCTYPE svg PUBLIC "-//W3C//DTD SVG 1.1//EN" "http://www.w3.org/Graphics/SVG/1.1/DTD/svg11.dtd">
<svg version="1.1" id="Layer_1" xmlns="http://www.w3.org/2000/svg" xmlns:xlink="http://www.w3.org/1999/xlink" x="0px" y="0px"
	 width="512px" height="512px" viewBox="0 0 512 512" enable-background="new 0 0 512 512" xml:space="preserve">
<path d="M236.016,16.781C247,3.031,256,6.188,256,23.781v256c0,17.594-14.406,32-32,32H32c-17.594,0-23-11.25-12.016-25
	L236.016,16.781z M288,279.781c0,17.594,14.406,32,32,32h64c17.594,0,26.656-13.375,20.125-29.719L299.875,21.5
	C293.344,5.156,288,6.188,288,23.781V279.781z M25.594,407.781h460.813l13.719-34.281c6.531-16.344-2.531-29.719-20.125-29.719H32
	c-17.594,0-26.656,13.375-20.109,29.719L25.594,407.781z M38.406,439.781l13.703,34.281c6.547,16.344,26.297,29.719,43.891,29.719
	h320c17.594,0,37.344-13.375,43.875-29.719l13.719-34.281H38.406z"/>
</svg>
