<?xml version="1.0" encoding="utf-8"?>
<!-- Generator: Adobe Illustrator 16.0.0, SVG Export Plug-In . SVG Version: 6.00 Build 0)  -->
<!DOCTYPE svg PUBLIC "-//W3C//DTD SVG 1.1//EN" "http://www.w3.org/Graphics/SVG/1.1/DTD/svg11.dtd">
<svg version="1.1" id="Layer_1" xmlns="http://www.w3.org/2000/svg" xmlns:xlink="http://www.w3.org/1999/xlink" x="0px" y="0px"
	 width="512px" height="512px" viewBox="0 0 512 512" enable-background="new 0 0 512 512" xml:space="preserve">
<path d="M448,448c0-17.688-14.313-32-32-32V224c17.688,0,32-14.313,32-32h64L256,0L0,192h64c0,17.688,14.313,32,32,32v192
	c-17.688,0-32,14.313-32,32c-35.344,0-64,28.656-64,64h512C512,476.656,483.344,448,448,448z M256,64c26.5,0,48,21.5,48,48
	s-21.5,48-48,48s-48-21.5-48-48S229.5,64,256,64z M192,448c0-17.688-14.313-32-32-32V224c17.688,0,32-14.313,32-32h128
	c0,17.688,14.313,32,32,32v192c-17.688,0-32,14.313-32,32H192z"/>
</svg>
