<?xml version="1.0" encoding="utf-8"?>
<!-- Generator: Adobe Illustrator 16.0.0, SVG Export Plug-In . SVG Version: 6.00 Build 0)  -->
<!DOCTYPE svg PUBLIC "-//W3C//DTD SVG 1.1//EN" "http://www.w3.org/Graphics/SVG/1.1/DTD/svg11.dtd">
<svg version="1.1" id="Layer_1" xmlns="http://www.w3.org/2000/svg" xmlns:xlink="http://www.w3.org/1999/xlink" x="0px" y="0px"
	 width="512px" height="512px" viewBox="0 0 512 512" enable-background="new 0 0 512 512" xml:space="preserve">
<path d="M320,192V64c0-35.344-28.656-64-64-64H64C28.656,0,0,28.656,0,64v448h320h192V288L320,192z M96,400c0,8.844-7.156,16-16,16
	H48c-8.844,0-16-7.156-16-16v-32c0-8.844,7.156-16,16-16h32c8.844,0,16,7.156,16,16V400z M96,304c0,8.844-7.156,16-16,16H48
	c-8.844,0-16-7.156-16-16v-32c0-8.844,7.156-16,16-16h32c8.844,0,16,7.156,16,16V304z M96,208c0,8.844-7.156,16-16,16H48
	c-8.844,0-16-7.156-16-16v-32c0-8.844,7.156-16,16-16h32c8.844,0,16,7.156,16,16V208z M96,112c0,8.844-7.156,16-16,16H48
	c-8.844,0-16-7.156-16-16V80c0-8.844,7.156-16,16-16h32c8.844,0,16,7.156,16,16V112z M192,400c0,8.844-7.156,16-16,16h-32
	c-8.844,0-16-7.156-16-16v-32c0-8.844,7.156-16,16-16h32c8.844,0,16,7.156,16,16V400z M192,304c0,8.844-7.156,16-16,16h-32
	c-8.844,0-16-7.156-16-16v-32c0-8.844,7.156-16,16-16h32c8.844,0,16,7.156,16,16V304z M192,208c0,8.844-7.156,16-16,16h-32
	c-8.844,0-16-7.156-16-16v-32c0-8.844,7.156-16,16-16h32c8.844,0,16,7.156,16,16V208z M192,112c0,8.844-7.156,16-16,16h-32
	c-8.844,0-16-7.156-16-16V80c0-8.844,7.156-16,16-16h32c8.844,0,16,7.156,16,16V112z M288,400c0,8.844-7.156,16-16,16h-32
	c-8.844,0-16-7.156-16-16v-32c0-8.844,7.156-16,16-16h32c8.844,0,16,7.156,16,16V400z M288,304c0,8.844-7.156,16-16,16h-32
	c-8.844,0-16-7.156-16-16v-32c0-8.844,7.156-16,16-16h32c8.844,0,16,7.156,16,16V304z M288,208c0,8.844-7.156,16-16,16h-32
	c-8.844,0-16-7.156-16-16v-32c0-8.844,7.156-16,16-16h32c8.844,0,16,7.156,16,16V208z M288,112c0,8.844-7.156,16-16,16h-32
	c-8.844,0-16-7.156-16-16V80c0-8.844,7.156-16,16-16h32c8.844,0,16,7.156,16,16V112z M448,480h-96V368c0-26.5,21.5-48,48-48
	s48,21.5,48,48V480z"/>
</svg>
