<?xml version="1.0" encoding="utf-8"?>
<!-- Generator: Adobe Illustrator 16.0.0, SVG Export Plug-In . SVG Version: 6.00 Build 0)  -->
<!DOCTYPE svg PUBLIC "-//W3C//DTD SVG 1.1//EN" "http://www.w3.org/Graphics/SVG/1.1/DTD/svg11.dtd">
<svg version="1.1" id="Layer_1" xmlns="http://www.w3.org/2000/svg" xmlns:xlink="http://www.w3.org/1999/xlink" x="0px" y="0px"
	 width="512px" height="512px" viewBox="0 0 512 512" enable-background="new 0 0 512 512" xml:space="preserve">
<path d="M304.5,256v-96h32l-64-64V64h32V32h-32V0h-32v32h-32v32h32v32l-64,64h32v96l-160,128h64v128h96v-80c0-26.5,21.484-48,48-48
	c26.5,0,48,21.5,48,48v80h96V384h64L304.5,256z M272.5,224h-32v-48c0-8.844,7.156-16,16-16s16,7.156,16,16V224z"/>
</svg>
