<?xml version="1.0" encoding="utf-8"?>
<!-- Generator: Adobe Illustrator 16.0.0, SVG Export Plug-In . SVG Version: 6.00 Build 0)  -->
<!DOCTYPE svg PUBLIC "-//W3C//DTD SVG 1.1//EN" "http://www.w3.org/Graphics/SVG/1.1/DTD/svg11.dtd">
<svg version="1.1" id="Layer_1" xmlns="http://www.w3.org/2000/svg" xmlns:xlink="http://www.w3.org/1999/xlink" x="0px" y="0px"
	 width="512px" height="512px" viewBox="0 0 512 512" enable-background="new 0 0 512 512" xml:space="preserve">
<path d="M259.016,219.094L328.5,80.156l112.844-75.25l17.75,26.625l-105.781,70.5l-58.531,117.063H259.016z M366.188,147.813
	l-14.438,28.906c13.313,7.594,21.156,16.625,21.156,26.375c0,23.531-45.188,43-104.734,47.125l-29.266,47.875v-47.219
	c-1.875-0.031-3.703-0.156-5.563-0.219l-32.438,102.438V248c-48.922-6.75-84-24.219-84-44.906c0-26.5,57.313-48,128-48
	c3.484,0,6.75,0.281,10.156,0.375l15.75-31.5c-8.5-0.5-17.094-0.875-25.906-0.875c-106.031,0-192,36.281-192,160s85.969,224,192,224
	s192-100.281,192-224C436.906,213.063,409.344,171.094,366.188,147.813z"/>
</svg>
