<?xml version="1.0" encoding="utf-8"?>
<!-- Generator: Adobe Illustrator 16.0.0, SVG Export Plug-In . SVG Version: 6.00 Build 0)  -->
<!DOCTYPE svg PUBLIC "-//W3C//DTD SVG 1.1//EN" "http://www.w3.org/Graphics/SVG/1.1/DTD/svg11.dtd">
<svg version="1.1" id="Layer_1" xmlns="http://www.w3.org/2000/svg" xmlns:xlink="http://www.w3.org/1999/xlink" x="0px" y="0px"
	 width="512px" height="512px" viewBox="0 0 512 512" enable-background="new 0 0 512 512" xml:space="preserve">
<path d="M512,256l-157.813-59.188l37.563-76.563l-76.344,38.156L256,0l-59.188,157.813L120.25,120.25l38.188,76.344L0,256
	l157.813,59.188L120.25,391.75l76.344-38.188L256,512l59.188-157.813l76.563,37.563l-38.188-76.344L512,256z M91.125,256
	l80.125-30.063L224,256H91.125z M256,420.875l-30.063-80.156L256,288V420.875z M256,224V91.125l30.063,80.125L256,224z M288,256
	h132.875l-80.156,30.063L288,256z"/>
</svg>
