<?xml version="1.0" encoding="utf-8"?>
<!-- Generator: Adobe Illustrator 16.0.0, SVG Export Plug-In . SVG Version: 6.00 Build 0)  -->
<!DOCTYPE svg PUBLIC "-//W3C//DTD SVG 1.1//EN" "http://www.w3.org/Graphics/SVG/1.1/DTD/svg11.dtd">
<svg version="1.1" id="Layer_1" xmlns="http://www.w3.org/2000/svg" xmlns:xlink="http://www.w3.org/1999/xlink" x="0px" y="0px"
	 width="512px" height="512px" viewBox="0 0 512 512" enable-background="new 0 0 512 512" xml:space="preserve">
<path d="M256,32c8.813,0,16,7.188,16,16s-7.188,16-16,16s-16-7.188-16-16S247.188,32,256,32 M256,0c-26.5,0-48,21.5-48,48
	s21.5,48,48,48s48-21.5,48-48S282.5,0,256,0L256,0z M256,128c97.031,0,176,78.969,176,176s-78.969,176-176,176S80,401.031,80,304
	S158.969,128,256,128 M256,96C141.125,96,48,189.125,48,304s93.125,208,208,208s208-93.125,208-208S370.875,96,256,96L256,96z
	 M357.813,202.188L210.75,258.75l-56.563,147.063L301.25,349.25L357.813,202.188z M233.375,326.625c-12.5-12.5-12.5-32.75,0-45.25
	s32.75-12.5,45.25,0s12.5,32.75,0,45.25S245.875,339.125,233.375,326.625z"/>
</svg>
