<?xml version="1.0" encoding="utf-8"?>
<!-- Generator: Adobe Illustrator 16.0.0, SVG Export Plug-In . SVG Version: 6.00 Build 0)  -->
<!DOCTYPE svg PUBLIC "-//W3C//DTD SVG 1.1//EN" "http://www.w3.org/Graphics/SVG/1.1/DTD/svg11.dtd">
<svg version="1.1" id="Layer_1" xmlns="http://www.w3.org/2000/svg" xmlns:xlink="http://www.w3.org/1999/xlink" x="0px" y="0px"
	 width="512px" height="512px" viewBox="0 0 512 512" enable-background="new 0 0 512 512" xml:space="preserve">
<path d="M256,480l-45.719-146.313L64,288l146.281-45.719L256,96l45.688,146.281L448,288l-146.313,45.688L256,480z M320.844,223.125
	l15.875,4.938l38.094-58.875l-58.906,38.125L320.844,223.125z M191.125,223.125l4.938-15.813l-58.875-38.125l38.125,58.875
	L191.125,223.125z M320.844,352.844l-4.938,15.844l58.906,38.125l-38.125-58.906L320.844,352.844z M191.125,352.844l-15.813-4.938
	l-38.125,58.906l58.875-38.094L191.125,352.844z M480,288c0,123.688-100.313,224-224,224C132.281,512,32,411.688,32,288
	C32,164.281,132.281,64,256,64C379.688,64,480,164.281,480,288z M448,288c0-105.875-86.125-192-192-192S64,182.125,64,288
	s86.125,192,192,192S448,393.875,448,288z M288,32c0-17.688-14.313-32-32-32s-32,14.313-32,32s14.313,32,32,32S288,49.688,288,32z"
	/>
</svg>
