<?xml version="1.0" encoding="utf-8"?>
<!-- Generator: Adobe Illustrator 16.0.0, SVG Export Plug-In . SVG Version: 6.00 Build 0)  -->
<!DOCTYPE svg PUBLIC "-//W3C//DTD SVG 1.1//EN" "http://www.w3.org/Graphics/SVG/1.1/DTD/svg11.dtd">
<svg version="1.1" id="Layer_1" xmlns="http://www.w3.org/2000/svg" xmlns:xlink="http://www.w3.org/1999/xlink" x="0px" y="0px"
	 width="512px" height="512px" viewBox="0 0 512 512" enable-background="new 0 0 512 512" xml:space="preserve">
<path d="M480,288L448,0h-64l-32,288h-32v-64l-64,64v-64l-64,64v-64l-64,64v-64l-64,64v-64L0,288v224h512V288H480z M96,416H32v-32h64
	V416z M96,352H32v-32h64V352z M192,416h-64v-32h64V416z M192,352h-64v-32h64V352z M288,416h-64v-32h64V416z M288,352h-64v-32h64V352
	z"/>
</svg>
