<?xml version="1.0" encoding="utf-8"?>
<!-- Generator: Adobe Illustrator 16.0.0, SVG Export Plug-In . SVG Version: 6.00 Build 0)  -->
<!DOCTYPE svg PUBLIC "-//W3C//DTD SVG 1.1//EN" "http://www.w3.org/Graphics/SVG/1.1/DTD/svg11.dtd">
<svg version="1.1" id="Layer_1" xmlns="http://www.w3.org/2000/svg" xmlns:xlink="http://www.w3.org/1999/xlink" x="0px" y="0px"
	 width="512px" height="512px" viewBox="0 0 512 512" enable-background="new 0 0 512 512" xml:space="preserve">
<path d="M284.75,221.75c24.375-6.375,49-19.875,70-40.875c49.969-49.938,60.094-120.906,22.625-158.375
	C348.438-6.438,299.75-6.75,256,17.438C212.25-6.75,163.531-6.406,134.625,22.5c-37.5,37.5-27.344,108.438,22.625,158.375
	c21,21,45.625,34.5,69.969,40.875c2.906,0.875,24.844,4,28.781,3.938C259.938,225.75,281.875,222.625,284.75,221.75z"/>
<path d="M256.125,257.688H255.5c-4.938,0-21.625-2.125-31.5-4V512l64-64V253.75C278.813,255.469,261.438,257.688,256.125,257.688z"
	/>
</svg>
