<?xml version="1.0" encoding="utf-8"?>
<!-- Generator: Adobe Illustrator 16.0.0, SVG Export Plug-In . SVG Version: 6.00 Build 0)  -->
<!DOCTYPE svg PUBLIC "-//W3C//DTD SVG 1.1//EN" "http://www.w3.org/Graphics/SVG/1.1/DTD/svg11.dtd">
<svg version="1.1" id="Layer_1" xmlns="http://www.w3.org/2000/svg" xmlns:xlink="http://www.w3.org/1999/xlink" x="0px" y="0px"
	 width="512px" height="512px" viewBox="0 0 512 512" enable-background="new 0 0 512 512" xml:space="preserve">
<path d="M192,416h-32V0h32V416z M384,96L512,0H224v192h288L384,96z M224,323.375v32.531c55.813,8.844,96,32.281,96,60.094
	c0,35.344-64.469,64-144,64S32,451.344,32,416c0-27.813,40.188-51.25,96-60.094v-32.531C58.875,333.219,0,364.625,0,416
	c0,63.031,88.563,96,176,96s176-32.969,176-96C352,364.625,293.125,333.219,224,323.375z"/>
</svg>
