<?xml version="1.0" encoding="utf-8"?>
<!-- Generator: Adobe Illustrator 16.0.0, SVG Export Plug-In . SVG Version: 6.00 Build 0)  -->
<!DOCTYPE svg PUBLIC "-//W3C//DTD SVG 1.1//EN" "http://www.w3.org/Graphics/SVG/1.1/DTD/svg11.dtd">
<svg version="1.1" id="Layer_1" xmlns="http://www.w3.org/2000/svg" xmlns:xlink="http://www.w3.org/1999/xlink" x="0px" y="0px"
	 width="512px" height="512px" viewBox="0 0 512 512" enable-background="new 0 0 512 512" xml:space="preserve">
<path d="M320,0H192c-53.016,0-96,43-96,96v128c0,53.031,42.984,96,96,96l64,192l64-192c53.031,0,96-42.969,96-96V96
	C416,43,373.031,0,320,0z M352,224c0,17.656-14.344,32-32,32H192c-17.641,0-32-14.344-32-32V96c0-17.625,14.359-32,32-32h128
	c17.656,0,32,14.375,32,32V224z"/>
</svg>
