<?xml version="1.0" encoding="utf-8"?>
<!-- Generator: Adobe Illustrator 16.0.0, SVG Export Plug-In . SVG Version: 6.00 Build 0)  -->
<!DOCTYPE svg PUBLIC "-//W3C//DTD SVG 1.1//EN" "http://www.w3.org/Graphics/SVG/1.1/DTD/svg11.dtd">
<svg version="1.1" id="Layer_1" xmlns="http://www.w3.org/2000/svg" xmlns:xlink="http://www.w3.org/1999/xlink" x="0px" y="0px"
	 width="512px" height="512px" viewBox="0 0 512 512" enable-background="new 0 0 512 512" xml:space="preserve">
<path d="M262.703,428.875c-1.516-49.156-13.469-195.563-100.656-264.75c-16.438,24.313-52.875,91.031-44.234,197.469
	c-11.891-46.969-40.281-121.438-20.328-218.125C67.125,150.375,12.531,165.563,0,187.75c5.906-30.063,52.453-95.281,102.172-108.5
	c-0.125-0.094-0.25-0.188-0.375-0.25c0.109-0.125,0.234-0.188,0.344-0.313c-9.453-20.656-31.516-62.813-56.109-68.031
	C69.875,9.438,117.875,22.563,146.547,45C233.469-9.5,318.25,1.063,369.438,0.469c-70.75,15.469-117.25,49.031-145.953,78.406
	C304.563,98,362.938,143.156,403.25,168.188C317.625,133.906,250.453,138.344,209.172,148
	c35.797,35.406,84.453,136.063,119.391,267.844c2.5-0.094,4.938-0.469,7.438-0.469c71.313,0,137.719,36.438,176,96.625H160
	C184.641,473.281,220.969,444.563,262.703,428.875z"/>
</svg>
