<?xml version="1.0" encoding="utf-8"?>
<!-- Generator: Adobe Illustrator 16.0.0, SVG Export Plug-In . SVG Version: 6.00 Build 0)  -->
<!DOCTYPE svg PUBLIC "-//W3C//DTD SVG 1.1//EN" "http://www.w3.org/Graphics/SVG/1.1/DTD/svg11.dtd">
<svg version="1.1" id="Layer_1" xmlns="http://www.w3.org/2000/svg" xmlns:xlink="http://www.w3.org/1999/xlink" x="0px" y="0px"
	 width="512px" height="512px" viewBox="0 0 512 512" enable-background="new 0 0 512 512" xml:space="preserve">
<path d="M32,512c-8.188,0-16.375-3.125-22.625-9.375c-12.5-12.5-12.5-32.75,0-45.25l96-96c6-6,14.141-9.375,22.625-9.375h215.375
	l113.563-118.188c12.25-12.719,32.469-13.125,45.25-0.875c12.719,12.25,13.125,32.5,0.875,45.25l-123,128
	C374.031,412.438,365.719,416,357,416H141.25l-86.625,86.625C48.375,508.875,40.188,512,32,512z M423.25,407.406l-20.125,20.938
	c-8.563,8.875-19.563,14.875-31.375,17.719L424.781,502c6.281,6.656,14.75,10,23.219,10c7.906,0,15.813-2.906,22-8.781
	c12.844-12.156,13.375-32.406,1.219-45.219L423.25,407.406z M132,60c-39.781,0-72,32.25-72,72s32.219,72,72,72s72-32.25,72-72
	S171.781,60,132,60z M38.672,55.625c-4.688-4.688-4.703-12.25,0-16.938c4.688-4.75,12.281-4.688,16.969,0L73.453,56.5
	c-6.375,4.906-12.047,10.563-16.969,16.938L38.672,55.625z M37.219,144H12c-6.625,0-12-5.344-12-12s5.375-12,12-12h25.219
	C36.703,124,36,127.875,36,132S36.703,140,37.219,144z M190.563,56.5l17.813-17.813c4.688-4.688,12.25-4.75,16.938,0
	c4.688,4.688,4.688,12.25,0,16.938L207.5,73.438C202.594,67.063,196.938,61.406,190.563,56.5z M120,37.219V12
	c0-6.625,5.344-12,12-12s12,5.375,12,12v25.219C140.016,36.688,136.094,36,132,36S123.984,36.688,120,37.219z M225.313,208.375
	c4.688,4.688,4.75,12.25,0,16.938c-4.688,4.75-12.25,4.75-16.938,0L190.563,207.5c6.375-4.906,12.031-10.563,16.938-16.938
	L225.313,208.375z M264,132c0,6.656-5.375,12-12,12h-25.219c0.531-4,1.219-7.875,1.219-12s-0.688-8-1.219-12H252
	C258.625,120,264,125.344,264,132z M73.453,207.5l-17.813,17.813c-4.688,4.75-12.281,4.75-16.969,0
	c-4.703-4.688-4.703-12.25,0-16.938l17.813-17.813C61.406,196.938,67.078,202.594,73.453,207.5z M144,226.781V252
	c0,6.656-5.344,12-12,12s-12-5.344-12-12v-25.219c3.984,0.531,7.906,1.219,12,1.219S140.016,227.313,144,226.781z"/>
</svg>
