<?xml version="1.0" encoding="utf-8"?>
<!-- Generator: Adobe Illustrator 16.0.0, SVG Export Plug-In . SVG Version: 6.00 Build 0)  -->
<!DOCTYPE svg PUBLIC "-//W3C//DTD SVG 1.1//EN" "http://www.w3.org/Graphics/SVG/1.1/DTD/svg11.dtd">
<svg version="1.1" id="Layer_1" xmlns="http://www.w3.org/2000/svg" xmlns:xlink="http://www.w3.org/1999/xlink" x="0px" y="0px"
	 width="512px" height="512px" viewBox="0 0 512 512" enable-background="new 0 0 512 512" xml:space="preserve">
<path d="M160.001,100.002c0,26.5-21.484,47.999-48,47.999c-26.515,0-47.999-21.5-47.999-47.999s21.484-48,47.999-48
	C138.518,52.003,160.001,73.503,160.001,100.002z M61.659,60.972c3.281-4.25,7.063-8.031,11.313-11.313L61.097,37.785
	c-3.125-3.125-8.188-3.156-11.313,0c-3.141,3.125-3.125,8.187,0,11.312L61.659,60.972z M48.003,100.002c0-2.75,0.469-5.344,0.813-8
	H32.003c-4.422,0-8,3.563-8,8s3.578,8,8,8h16.812C48.472,105.346,48.003,102.752,48.003,100.002z M162.345,60.972l11.875-11.875
	c3.125-3.125,3.125-8.187,0-11.312c-3.125-3.156-8.187-3.125-11.312,0l-11.875,11.875C155.283,52.94,159.064,56.722,162.345,60.972z
	 M112.002,36.003c2.734,0,5.344,0.469,8,0.813V20.003c0-4.406-3.563-8-8-8s-8,3.594-8,8v16.813
	C106.659,36.472,109.268,36.003,112.002,36.003z M162.345,139.033c-3.281,4.25-7.063,8.031-11.313,11.312l11.875,11.875
	c3.125,3.156,8.188,3.156,11.312,0c3.156-3.125,3.125-8.188,0-11.313L162.345,139.033z M192.001,92.002h-16.813
	c0.344,2.656,0.813,5.25,0.813,8s-0.469,5.344-0.813,8h16.813c4.406,0,8-3.562,8-8S196.407,92.002,192.001,92.002z M61.659,139.033
	l-11.875,11.875c-3.141,3.125-3.141,8.188,0,11.313c3.125,3.156,8.188,3.156,11.313,0l11.875-11.875
	C68.722,147.064,64.94,143.283,61.659,139.033z M112.002,164.001c-2.734,0-5.343-0.469-8-0.813v16.812c0,4.438,3.562,8,8,8
	s8-3.563,8-8v-16.812C117.346,163.533,114.736,164.001,112.002,164.001z M479.997,371.998h-91.655L504.59,232.5
	c11.313-13.594,9.469-33.75-4.094-45.062c-13.625-11.313-33.749-9.5-45.093,4.063L304.999,371.998H32.003c-17.672,0-32,14.313-32,32
	s14.328,31.999,32,31.999h32v48c0,8.843,7.156,15.999,16,15.999c8.844,0,16-7.156,16-15.999v-48h319.996v48
	c0,8.843,7.155,15.999,15.999,15.999s16-7.156,16-15.999v-48h32c17.687,0,31.999-14.312,31.999-31.999
	S497.684,371.998,479.997,371.998z"/>
</svg>
