<?xml version="1.0" encoding="utf-8"?>
<!-- Generator: Adobe Illustrator 16.0.0, SVG Export Plug-In . SVG Version: 6.00 Build 0)  -->
<!DOCTYPE svg PUBLIC "-//W3C//DTD SVG 1.1//EN" "http://www.w3.org/Graphics/SVG/1.1/DTD/svg11.dtd">
<svg version="1.1" id="Layer_1" xmlns="http://www.w3.org/2000/svg" xmlns:xlink="http://www.w3.org/1999/xlink" x="0px" y="0px"
	 width="512px" height="512px" viewBox="0 0 512 512" enable-background="new 0 0 512 512" xml:space="preserve">
<path d="M336.5,192h-32V64h-32V0h-32v64h-32v128h-32l-32,32v288h224V224L336.5,192z M208.5,448h-32v-32h32V448z M208.5,384h-32v-32
	h32V384z M208.5,320h-32v-32h32V320z M208.5,256h-32v-32h32V256z M272.5,448h-32v-32h32V448z M272.5,384h-32v-32h32V384z M272.5,320
	h-32v-32h32V320z M272.5,256h-32v-32h32V256z M272.5,192h-32v-32h32V192z M272.5,128h-32V96h32V128z M336.5,448h-32v-32h32V448z
	 M336.5,384h-32v-32h32V384z M336.5,320h-32v-32h32V320z M336.5,256h-32v-32h32V256z"/>
</svg>
