<?xml version="1.0" encoding="utf-8"?>
<!-- Generator: Adobe Illustrator 16.0.0, SVG Export Plug-In . SVG Version: 6.00 Build 0)  -->
<!DOCTYPE svg PUBLIC "-//W3C//DTD SVG 1.1//EN" "http://www.w3.org/Graphics/SVG/1.1/DTD/svg11.dtd">
<svg version="1.1" id="Layer_1" xmlns="http://www.w3.org/2000/svg" xmlns:xlink="http://www.w3.org/1999/xlink" x="0px" y="0px"
	 width="512px" height="512px" viewBox="0 0 512 512" enable-background="new 0 0 512 512" xml:space="preserve">
<g>
	<path d="M448,160h-98.438C340.063,66.125,303.031,0,256,0c-47.063,0-84.063,66.125-93.563,160H64L0,512h512L448,160z M256,32
		c25.125,0,52.469,52.469,61.031,128H194.969C203.531,84.469,230.875,32,256,32z M90.688,192h330.594l52.375,288H38.344L90.688,192z
		"/>
	<path d="M176,216c-13.25,0-24,10.75-24,24s10.75,24,24,24s24-10.75,24-24S189.25,216,176,216z"/>
	<path d="M336,216c-13.25,0-24,10.75-24,24s10.75,24,24,24s24-10.75,24-24S349.25,216,336,216z"/>
</g>
</svg>
