<?xml version="1.0" encoding="utf-8"?>
<!-- Generator: Adobe Illustrator 16.0.0, SVG Export Plug-In . SVG Version: 6.00 Build 0)  -->
<!DOCTYPE svg PUBLIC "-//W3C//DTD SVG 1.1//EN" "http://www.w3.org/Graphics/SVG/1.1/DTD/svg11.dtd">
<svg version="1.1" id="Layer_1" xmlns="http://www.w3.org/2000/svg" xmlns:xlink="http://www.w3.org/1999/xlink" x="0px" y="0px"
	 width="512px" height="512px" viewBox="0 0 512 512" enable-background="new 0 0 512 512" xml:space="preserve">
<path d="M448,64H64L0,512h512L448,64z M366.063,188.406C356.875,264.063,311.969,320,256,320s-100.875-55.938-110.063-131.594
	C135.438,183.188,128,172.563,128,160c0-17.688,14.313-32,32-32s32,14.313,32,32c0,10.938-5.844,20.125-14.25,25.906
	C185.5,243.375,218.188,288,256,288c37.844,0,70.5-44.625,78.25-102.094C325.844,180.125,320,170.938,320,160
	c0-17.688,14.313-32,32-32s32,14.313,32,32C384,172.563,376.594,183.188,366.063,188.406z"/>
</svg>
