<?xml version="1.0" encoding="utf-8"?>
<!-- Generator: Adobe Illustrator 16.0.0, SVG Export Plug-In . SVG Version: 6.00 Build 0)  -->
<!DOCTYPE svg PUBLIC "-//W3C//DTD SVG 1.1//EN" "http://www.w3.org/Graphics/SVG/1.1/DTD/svg11.dtd">
<svg version="1.1" id="Layer_1" xmlns="http://www.w3.org/2000/svg" xmlns:xlink="http://www.w3.org/1999/xlink" x="0px" y="0px"
	 width="512px" height="512px" viewBox="0 0 512 512" enable-background="new 0 0 512 512" xml:space="preserve">
<path d="M464,239.969c0-80.313-45.813-150-112.625-184.625c-1.344-11.813-8.969-22.5-20.938-26.688
	c-47.828-16.875-101.266-16.813-149.125,0.063c-11.938,4.25-19.547,14.906-20.875,26.688C93.734,90.094,48,159.719,48,239.969H0
	c0,35.344,28.656,64,64,64c0,106.031,85.969,192,192,192s192-85.969,192-192c35.344,0,64-28.656,64-64H464z M173.234,84.719
	c5.422,3.938,11.938,6.188,18.75,6.188c3.547,0,7.141-0.563,10.672-1.813C236.75,76.969,275.063,77,309.188,89.031
	c10.094,3.563,20.625,1.188,28.844-4.656C393.844,113.906,432,172.531,432,239.969H80C80,172.844,117.813,114.406,173.234,84.719z
	 M208,415.969c0,8.844-7.156,16-16,16s-16-7.156-16-16v-112h32V415.969z M272,415.969c0,8.844-7.156,16-16,16s-16-7.156-16-16v-112
	h32V415.969z M336,415.969c0,8.844-7.156,16-16,16s-16-7.156-16-16v-112h32V415.969z"/>
</svg>
