<?xml version="1.0" encoding="utf-8"?>
<!-- Generator: Adobe Illustrator 16.0.0, SVG Export Plug-In . SVG Version: 6.00 Build 0)  -->
<!DOCTYPE svg PUBLIC "-//W3C//DTD SVG 1.1//EN" "http://www.w3.org/Graphics/SVG/1.1/DTD/svg11.dtd">
<svg version="1.1" id="Layer_1" xmlns="http://www.w3.org/2000/svg" xmlns:xlink="http://www.w3.org/1999/xlink" x="0px" y="0px"
	 width="512px" height="512px" viewBox="0 0 512 512" enable-background="new 0 0 512 512" xml:space="preserve">
<path d="M461.781,240h-26.563L316.5,61.938c2.094-4.25,3.5-8.875,3.5-13.938c0-17.688-14.313-32-32-32c-17.672,0-32,14.313-32,32
	s14.328,32,32,32c0.656,0,1.219-0.344,1.844-0.375L396.781,240H115.234L222.141,79.625C222.797,79.656,223.344,80,224,80
	c17.672,0,32-14.313,32-32s-14.328-32-32-32s-32,14.313-32,32c0,5.063,1.406,9.656,3.5,13.906L76.766,240H50.234
	C12.5,240-8.594,269.313,3.328,305.094l59.516,144.188C74.766,485.094,115.391,496,153.109,496h205.766
	c37.719,0,78.344-10.906,90.313-46.719l59.469-144.188C520.625,269.313,499.469,240,461.781,240z M128,416c0,8.844-7.156,16-16,16
	s-16-7.156-16-16v-96c0-8.844,7.156-16,16-16s16,7.156,16,16V416z M224,416c0,8.844-7.156,16-16,16s-16-7.156-16-16v-96
	c0-8.844,7.156-16,16-16s16,7.156,16,16V416z M320,416c0,8.844-7.156,16-16,16s-16-7.156-16-16v-96c0-8.844,7.156-16,16-16
	s16,7.156,16,16V416z M416,416c0,8.844-7.156,16-16,16s-16-7.156-16-16v-96c0-8.844,7.156-16,16-16s16,7.156,16,16V416z"/>
</svg>
