<?xml version="1.0" encoding="utf-8"?>
<!-- Generator: Adobe Illustrator 16.0.0, SVG Export Plug-In . SVG Version: 6.00 Build 0)  -->
<!DOCTYPE svg PUBLIC "-//W3C//DTD SVG 1.1//EN" "http://www.w3.org/Graphics/SVG/1.1/DTD/svg11.dtd">
<svg version="1.1" id="Layer_1" xmlns="http://www.w3.org/2000/svg" xmlns:xlink="http://www.w3.org/1999/xlink" x="0px" y="0px"
	 width="512px" height="512px" viewBox="0 0 512 512" enable-background="new 0 0 512 512" xml:space="preserve">
<path d="M332.938,176h-75.125L356.75,15.25C366,0.188,385.625-4.563,400.781,4.75c15.031,9.25,19.719,28.969,10.469,44L332.938,176z
	 M512,192v96h-21.344l-64.531,193.656C420.563,498.344,401.594,512,384,512H128c-17.594,0-36.547-13.656-42.125-30.344L21.344,288H0
	v-96H512z M160,352c0-17.688-14.328-32-32-32s-32,14.313-32,32v64c0,17.688,14.328,32,32,32s32-14.313,32-32V352z M288,352
	c0-17.688-14.328-32-32-32s-32,14.313-32,32v64c0,17.688,14.328,32,32,32s32-14.313,32-32V352z M288,240c0-17.688-14.313-32-32-32
	s-32,14.313-32,32s14.313,32,32,32S288,257.688,288,240z M416,352c0-17.688-14.313-32-32-32s-32,14.313-32,32v64
	c0,17.688,14.313,32,32,32s32-14.313,32-32V352z"/>
</svg>
