<?xml version="1.0" encoding="utf-8"?>
<!-- Generator: Adobe Illustrator 16.0.0, SVG Export Plug-In . SVG Version: 6.00 Build 0)  -->
<!DOCTYPE svg PUBLIC "-//W3C//DTD SVG 1.1//EN" "http://www.w3.org/Graphics/SVG/1.1/DTD/svg11.dtd">
<svg version="1.1" id="Layer_1" xmlns="http://www.w3.org/2000/svg" xmlns:xlink="http://www.w3.org/1999/xlink" x="0px" y="0px"
	 width="512px" height="512px" viewBox="0 0 512 512" enable-background="new 0 0 512 512" xml:space="preserve">
<path d="M0,95.5v320h512v-320H0z M480,383.5H32v-256h448V383.5z M464,143.5H48v224h416V143.5z M96,175.5v48H80v-48H64v-16h16h16
	V175.5z M256,351.5c-53.016,0-96-42.969-96-96s42.984-96,96-96c53.031,0,96,42.969,96,96S309.031,351.5,256,351.5z M448,303.5v48
	h-16v-48h-16v-16h16h16V303.5z M240,215.5h8v32h-8c-3.594-0.094-8-1.563-8-8v-16C232,217.063,236.406,215.594,240,215.5z M264,263.5
	h8c3.594,0.094,8,1.563,8,8v16c0,6.438-4.406,7.906-8,8h-8V263.5z M256,175.5c-44.109,0-80,35.875-80,80s35.891,80,80,80
	c44.125,0,80-35.875,80-80S300.125,175.5,256,175.5z M272,247.5c9.656,0,24,6.375,24,24v16c0,17.625-14.344,24-24,24h-8v8
	c0,4.406-3.594,8-8,8s-8-3.594-8-8v-8h-24c-4.406,0-8-3.594-8-8s3.594-8,8-8h24v-32h-8c-9.656,0-24-6.375-24-24v-16
	c0-17.625,14.344-24,24-24h8v-8c0-4.406,3.594-8,8-8s8,3.594,8,8v8h24c4.406,0,8,3.594,8,8s-3.594,8-8,8h-24v32H272z"/>
</svg>
