<?xml version="1.0" encoding="utf-8"?>
<!-- Generator: Adobe Illustrator 16.0.0, SVG Export Plug-In . SVG Version: 6.00 Build 0)  -->
<!DOCTYPE svg PUBLIC "-//W3C//DTD SVG 1.1//EN" "http://www.w3.org/Graphics/SVG/1.1/DTD/svg11.dtd">
<svg version="1.1" id="Layer_1" xmlns="http://www.w3.org/2000/svg" xmlns:xlink="http://www.w3.org/1999/xlink" x="0px" y="0px"
	 width="512px" height="512px" viewBox="0 0 512 512" enable-background="new 0 0 512 512" xml:space="preserve">
<path d="M448,96c0-53-85.969-96-192-96S64,43,64,96v32c0,11.25,4.063,22.031,11.188,32.063c0,0,0-0.031-0.031-0.063
	C68.063,170.031,64,180.781,64,192v32c0,11.25,4.063,22.031,11.188,32.063c0,0,0-0.031-0.031-0.063C68.063,266.031,64,276.75,64,288
	v32c0,11.25,4.063,21.969,11.156,32C68.063,362.031,64,372.75,64,384v32c0,53.031,85.969,96,192,96s192-42.969,192-96v-32
	c0-11.25-4.063-21.969-11.156-32C443.938,341.969,448,331.25,448,320v-32c0-11.25-4.063-21.969-11.156-32
	c0,0.031-0.031,0.063-0.031,0.063C443.938,246.031,448,235.25,448,224v-32c0-11.219-4.063-21.969-11.156-32
	c0,0.031-0.031,0.063-0.031,0.063C443.938,150.031,448,139.25,448,128V96z M128,469c-13.375-6.875-24.156-14.5-32-22.625v-9.563
	c9.063,6.875,19.844,13.063,32,18.531V469z M288,494.5c-10.313,0.906-20.906,1.5-32,1.5v-16c10.938,0,21.563-0.563,32-1.438V494.5z
	 M352,482.219c-9.906,3.125-20.625,5.781-32,7.906v-15.813c11.188-2,21.875-4.5,32-7.438V482.219z M416,446.375
	c-7.844,8.125-18.625,15.75-32,22.625v-13.656c12.156-5.469,22.938-11.656,32-18.531V446.375z M256,464
	c-103.719,0-176-42.156-176-80c0-6.281,2.688-12.656,6.469-18.969C118.75,395.344,182.531,416,256,416
	c73.5,0,137.281-20.656,169.531-50.969C429.344,371.344,432,377.719,432,384C432,421.844,359.719,464,256,464z M128,359.344V373
	c-12.688-6.531-22.813-13.75-30.563-21.406c2-1.906,4.125-3.75,6.406-5.594C101.219,344.281,115.844,353.875,128,359.344z M256,400
	v-16c10.938,0,21.563-0.563,32-1.438V398.5C277.688,399.406,267.094,400,256,400z M320,394.125v-15.813
	c11.188-2,21.875-4.5,32-7.438v15.344C342.094,389.344,331.375,392,320,394.125z M414.563,351.594
	C406.844,359.25,396.688,366.469,384,373v-13.656c12.156-5.469,26.781-15.063,24.156-13.344
	C410.438,347.844,412.594,349.688,414.563,351.594z M256,368c-103.719,0-176-42.156-176-80c0-6.281,2.688-12.656,6.469-18.969
	C118.75,299.344,182.531,320,256,320s137.25-20.656,169.531-50.969C429.344,275.344,432,281.719,432,288
	C432,325.844,359.719,368,256,368z M97.438,255.594c2-1.906,4.125-3.781,6.406-5.594c7.313,4.781,15.219,9.313,24.156,13.344V277
	C115.313,270.5,105.188,263.25,97.438,255.594z M256,304v-16c10.938,0,21.563-0.563,32-1.438V302.5
	C277.688,303.406,267.094,304,256,304z M320,298.125v-15.813c11.188-2,21.875-4.5,32-7.438v15.344
	C342.094,293.344,331.375,296,320,298.125z M384,277v-13.656c8.938-4.031,16.844-8.594,24.156-13.344
	c2.281,1.813,4.406,3.688,6.406,5.563C406.844,263.25,396.688,270.5,384,277z M256,272c-103.719,0-176-42.156-176-80
	c0-6.281,2.688-12.625,6.469-18.938c-0.031-0.063-0.063-0.094-0.094-0.125C118.625,203.313,182.438,224,256,224
	s137.375-20.688,169.625-51.063c-0.031,0.031-0.063,0.063-0.094,0.125C429.344,179.375,432,185.719,432,192
	C432,229.844,359.719,272,256,272z M128,167.344V181c-12.688-6.5-22.813-13.75-30.563-21.406c2-1.906,4.125-3.75,6.406-5.594
	C101.219,152.25,115.844,161.875,128,167.344z M256,208v-16c10.938,0,21.563-0.563,32-1.438V206.5
	C277.688,207.406,267.094,208,256,208z M320,202.125v-15.813c11.188-2,21.875-4.5,32-7.438v15.344
	C342.094,197.344,331.375,200,320,202.125z M414.563,159.594C406.844,167.25,396.688,174.5,384,181v-13.656
	c12.156-5.469,26.781-15.094,24.156-13.344C410.438,155.813,412.563,157.688,414.563,159.594z M256,176
	c-103.719,0-176-42.156-176-80c0-37.813,72.281-80,176-80s176,42.188,176,80C432,133.844,359.719,176,256,176z M344.719,114.375
	c0,8.469-6.313,15.531-18.906,21.156c-12.594,5.656-30.781,8.969-54.563,9.969V160h-30.313v-14.406
	c-39.656-1.625-64.188-10.844-73.656-27.656l46.875-4.875c4.344,10.563,18.719,15.813,43.125,15.813
	c11.406,0,19.844-1.125,25.219-3.375s8.063-5,8.063-8.188c0-3.313-2.688-5.813-8.063-7.531s-17.344-3.875-35.875-6.5
	c-16.656-2.313-29.688-4.594-39.063-6.844s-17-5.438-22.844-9.5s-8.781-8.813-8.781-14.219c0-7.094,5.25-13.469,15.688-19.156
	c10.438-5.656,26.875-9.125,49.313-10.375V32h30.313v11.188c33.875,1.625,55.813,9.281,65.781,23l-41.75,6.844
	c-8.156-9.406-20.719-14.094-37.781-14.094c-8.563,0-15.438,1.063-20.594,3.156c-5.188,2.094-7.781,4.656-7.781,7.625
	c0,3.063,2.5,5.406,7.5,7.031c4.969,1.625,15.688,3.625,32.063,6.063c18,2.625,32.125,5.094,42.344,7.438
	c10.25,2.344,18.406,5.563,24.531,9.688C341.656,104.063,344.719,108.875,344.719,114.375z"/>
</svg>
