<?xml version="1.0" encoding="utf-8"?>
<!-- Generator: Adobe Illustrator 16.0.0, SVG Export Plug-In . SVG Version: 6.00 Build 0)  -->
<!DOCTYPE svg PUBLIC "-//W3C//DTD SVG 1.1//EN" "http://www.w3.org/Graphics/SVG/1.1/DTD/svg11.dtd">
<svg version="1.1" id="Layer_1" xmlns="http://www.w3.org/2000/svg" xmlns:xlink="http://www.w3.org/1999/xlink" x="0px" y="0px"
	 width="512px" height="512px" viewBox="0 0 512 512" enable-background="new 0 0 512 512" xml:space="preserve">
<path d="M444.938,143.375C446.813,148.781,448,154.313,448,160c0,53-85.969,96-192,96S64,213,64,160
	c0-5.688,1.156-11.219,3.063-16.625C99.656,181.813,171.031,208,256,208S412.344,181.813,444.938,143.375z M256,272
	c-84.969,0-156.344-26.188-188.938-64.625C65.156,212.781,64,218.313,64,224c0,53,85.969,96,192,96s192-43,192-96
	c0-5.688-1.188-11.219-3.063-16.625C412.344,245.813,340.969,272,256,272z M256,336c-84.969,0-156.344-26.188-188.938-64.625
	C65.156,276.781,64,282.313,64,288c0,53,85.969,96,192,96s192-43,192-96c0-5.688-1.188-11.219-3.063-16.625
	C412.344,309.813,340.969,336,256,336z M256,400c-84.969,0-156.344-26.188-188.938-64.625C65.156,340.781,64,346.313,64,352
	c0,53,85.969,96,192,96s192-43,192-96c0-5.688-1.188-11.219-3.063-16.625C412.344,373.813,340.969,400,256,400z M256,464
	c-84.969,0-156.344-26.188-188.938-64.625C65.156,404.781,64,410.313,64,416c0,53,85.969,96,192,96s192-43,192-96
	c0-5.688-1.188-11.219-3.063-16.625C412.344,437.813,340.969,464,256,464z M64,96c0-53,85.969-96,192-96s192,43,192,96
	s-85.969,96-192,96S64,149,64,96z M290.563,117.313c0,3.188-2.688,5.938-8.063,8.188c-5.375,2.281-13.813,3.406-25.219,3.406
	c-24.406,0-38.781-5.281-43.125-15.844l-46.875,4.875c9.469,16.813,34,26.031,73.656,27.656V160h30.313v-14.469
	c23.781-1,41.969-4.344,54.563-9.969c12.594-5.656,18.906-12.688,18.906-21.188c0-5.5-3.063-10.313-9.156-14.438
	c-6.125-4.094-14.281-7.344-24.531-9.688c-10.219-2.313-24.344-4.813-42.344-7.438c-16.375-2.406-27.094-4.438-32.063-6.063
	c-5-1.625-7.5-3.969-7.5-7c0-3,2.594-5.563,7.781-7.656c5.156-2.094,12.031-3.156,20.594-3.156c17.063,0,29.625,4.719,37.781,14.125
	l41.75-6.875c-9.969-13.688-31.906-21.375-65.781-23V32h-30.313v11.188c-22.438,1.281-38.875,4.75-49.313,10.406
	s-15.688,12.063-15.688,19.156c0,5.375,2.938,10.125,8.781,14.219c5.844,4.063,13.469,7.219,22.844,9.469s22.406,4.563,39.063,6.875
	c18.531,2.625,30.5,4.75,35.875,6.5C287.875,111.5,290.563,114,290.563,117.313z"/>
</svg>
