<?xml version="1.0" encoding="utf-8"?>
<!-- Generator: Adobe Illustrator 16.0.0, SVG Export Plug-In . SVG Version: 6.00 Build 0)  -->
<!DOCTYPE svg PUBLIC "-//W3C//DTD SVG 1.1//EN" "http://www.w3.org/Graphics/SVG/1.1/DTD/svg11.dtd">
<svg version="1.1" id="Layer_1" xmlns="http://www.w3.org/2000/svg" xmlns:xlink="http://www.w3.org/1999/xlink" x="0px" y="0px"
	 width="512px" height="512px" viewBox="0 0 512 512" enable-background="new 0 0 512 512" xml:space="preserve">
<path d="M480,96H32c-17.688,0-32,14.313-32,32v256c0,17.688,14.313,32,32,32h448c17.688,0,32-14.313,32-32V128
	C512,110.313,497.688,96,480,96z M112.5,160H128c11.719,0,21.5,6.625,27.094,16H112.5V160z M64,192c0-17.688,14.313-32,32-32h0.5v96
	H96c-17.688,0-32-14.313-32-32V192z M128,352H64v-32h64V352z M128,256h-15.5v-32H160C160,241.688,145.688,256,128,256z M160,208
	h-47.5v-16H160V208z M234.688,352h-64v-32h64V352z M341.344,352h-64.031v-32h64.031V352z M448,352h-64v-32h64V352z M400,256
	c-12.344,0-23.5-4.813-32-12.438C359.5,251.188,348.344,256,336,256c-26.5,0-48-21.5-48-48s21.5-48,48-48
	c12.344,0,23.5,4.813,32,12.438c8.5-7.625,19.656-12.438,32-12.438c26.5,0,48,21.5,48,48S426.5,256,400,256z"/>
</svg>
