<?xml version="1.0" encoding="utf-8"?>
<!-- Generator: Adobe Illustrator 16.0.0, SVG Export Plug-In . SVG Version: 6.00 Build 0)  -->
<!DOCTYPE svg PUBLIC "-//W3C//DTD SVG 1.1//EN" "http://www.w3.org/Graphics/SVG/1.1/DTD/svg11.dtd">
<svg version="1.1" id="Layer_1" xmlns="http://www.w3.org/2000/svg" xmlns:xlink="http://www.w3.org/1999/xlink" x="0px" y="0px"
	 width="512px" height="512px" viewBox="0 0 512 512" enable-background="new 0 0 512 512" xml:space="preserve">
<g>
	<path d="M480,96H32c-17.688,0-32,14.313-32,32h512C512,110.313,497.688,96,480,96z"/>
	<rect y="160" width="512" height="64"/>
	<path d="M0,256v128c0,17.688,14.313,32,32,32h448c17.688,0,32-14.313,32-32V256H0z M128,384H64v-32h64V384z M224,384h-64v-32h64
		V384z M400,384c-12.344,0-23.5-4.813-32-12.469C359.5,379.188,348.344,384,336,384c-26.5,0-48-21.5-48-48s21.5-48,48-48
		c12.344,0,23.5,4.813,32,12.469c8.5-7.656,19.656-12.469,32-12.469c26.5,0,48,21.5,48,48S426.5,384,400,384z"/>
</g>
</svg>
