<?xml version="1.0" encoding="utf-8"?>
<!-- Generator: Adobe Illustrator 16.0.0, SVG Export Plug-In . SVG Version: 6.00 Build 0)  -->
<!DOCTYPE svg PUBLIC "-//W3C//DTD SVG 1.1//EN" "http://www.w3.org/Graphics/SVG/1.1/DTD/svg11.dtd">
<svg version="1.1" id="Layer_1" xmlns="http://www.w3.org/2000/svg" xmlns:xlink="http://www.w3.org/1999/xlink" x="0px" y="0px"
	 width="512px" height="512px" viewBox="0 0 512 512" enable-background="new 0 0 512 512" xml:space="preserve">
<g>
	<path d="M192,226.188v108.438c-80,66.688-80-40-160,13.313V448H0V224h32v15.5C112,186.188,112,292.875,192,226.188z"/>
	<path d="M336,320c12.344,0,23.5-4.813,32-12.469c8.5,7.656,19.656,12.469,32,12.469c26.5,0,48-21.5,48-48s-21.5-48-48-48
		c-12.344,0-23.5,4.813-32,12.469C359.5,228.813,348.344,224,336,224c-26.5,0-48,21.5-48,48S309.5,320,336,320z"/>
	<path d="M480,64H96c-17.688,0-32,14.313-32,32v96h32h160h224v160H224v32h256c17.688,0,32-14.313,32-32V96
		C512,78.313,497.688,64,480,64z M480,128H96V96h384V128z"/>
</g>
</svg>
