<?xml version="1.0" encoding="utf-8"?>
<!-- Generator: Adobe Illustrator 16.0.0, SVG Export Plug-In . SVG Version: 6.00 Build 0)  -->
<!DOCTYPE svg PUBLIC "-//W3C//DTD SVG 1.1//EN" "http://www.w3.org/Graphics/SVG/1.1/DTD/svg11.dtd">
<svg version="1.1" id="Layer_1" xmlns="http://www.w3.org/2000/svg" xmlns:xlink="http://www.w3.org/1999/xlink" x="0px" y="0px"
	 width="512px" height="512px" viewBox="0 0 512 512" enable-background="new 0 0 512 512" xml:space="preserve">
<g>
	<path d="M480,96H32c-17.688,0-32,14.313-32,32v64h512v-64C512,110.313,497.688,96,480,96z"/>
	<path d="M0,256v128c0,17.688,14.313,32,32,32h448c17.688,0,32-14.313,32-32V256H0z M160,352H64v-64h96V352z M320,352h-32v-32h32
		V352z M384,352h-32v-32h32V352z M448,352h-32v-32h32V352z"/>
</g>
</svg>
