<?xml version="1.0" encoding="utf-8"?>
<!-- Generator: Adobe Illustrator 16.0.0, SVG Export Plug-In . SVG Version: 6.00 Build 0)  -->
<!DOCTYPE svg PUBLIC "-//W3C//DTD SVG 1.1//EN" "http://www.w3.org/Graphics/SVG/1.1/DTD/svg11.dtd">
<svg version="1.1" id="Layer_1" xmlns="http://www.w3.org/2000/svg" xmlns:xlink="http://www.w3.org/1999/xlink" x="0px" y="0px"
	 width="512px" height="512px" viewBox="0 0 512 512" enable-background="new 0 0 512 512" xml:space="preserve">
<path d="M0,431.5h448v-288H0V431.5z M32,239.5c35.344,0,64-28.656,64-64h256c0,35.344,28.656,64,64,64v96c-35.344,0-64,28.656-64,64
	H96c0-35.344-28.656-64-64-64V239.5z M144,287.5c0-44.188,35.813-80,80-80s80,35.813,80,80s-35.813,80-80,80S144,331.688,144,287.5z
	 M512,79.5v320h-32v-288H32v-32H512z"/>
</svg>
