<?xml version="1.0" encoding="utf-8"?>
<!-- Generator: Adobe Illustrator 16.0.0, SVG Export Plug-In . SVG Version: 6.00 Build 0)  -->
<!DOCTYPE svg PUBLIC "-//W3C//DTD SVG 1.1//EN" "http://www.w3.org/Graphics/SVG/1.1/DTD/svg11.dtd">
<svg version="1.1" id="Layer_1" xmlns="http://www.w3.org/2000/svg" xmlns:xlink="http://www.w3.org/1999/xlink" x="0px" y="0px"
	 width="512px" height="512px" viewBox="0 0 512 512" enable-background="new 0 0 512 512" xml:space="preserve">
<path d="M159.828,351.797v-64c0-17.688-14.328-32-32-32h-64c-17.672,0-32,14.313-32,32v64c-17.672,0-32,14.313-32,32v96
	c0,17.688,14.328,32,32,32h128c17.672,0,32-14.313,32-32v-96C191.828,366.109,177.5,351.797,159.828,351.797z M111.828,447.797
	c0,8.844-7.156,16-16,16s-16-7.156-16-16v-32c0-8.844,7.156-16,16-16s16,7.156,16,16V447.797z M127.828,351.797h-64v-64h64V351.797z
	 M204.109,47.797c-8.828-15.313-3.578-34.875,11.719-43.688c15.313-8.875,34.875-3.625,43.719,11.688l0.531,0.938
	c5.438-9.938,15.625-16.938,27.75-16.938s22.313,7,27.75,16.938l0.531-0.938c8.844-15.313,28.406-20.563,43.719-11.688
	c15.313,8.813,20.563,28.375,11.719,43.688l-19.719,56h-128L204.109,47.797z M367.828,143.797c0,4.438-3.594,8-8,8h-144
	c-4.422,0-8-3.563-8-8s3.578-8,8-8h144C364.234,135.797,367.828,139.359,367.828,143.797z M367.828,119.797c0,4.438-3.594,8-8,8
	h-144c-4.422,0-8-3.563-8-8s3.578-8,8-8h144C364.234,111.797,367.828,115.359,367.828,119.797z M482.016,451.422
	c7.063-24.125,19.719-91.906-32.188-163.625c-34-47-39-16-98-128h-128c-33.5,63.625-49.594,81.063-63.469,92.938
	c9.453,8.75,15.469,21.188,15.469,35.063v50.75c18.625,6.594,32,24.375,32,45.25v96c0,12.344-4.813,23.5-12.484,32h313.547
	c1.781-5.031,2.938-10.375,2.938-16C511.828,475.734,499.484,458.578,482.016,451.422z M451.297,442.422l-8.094,27.688
	c0,0-3.375-86.313-57.375-149.313c-51.688-60.281-53.125-129-53.125-129c32,58.344,48.625,74.594,67.969,90.375
	c7.625,6.219,13.625,11.125,23.219,24.375C467.078,366.203,457.453,421.453,451.297,442.422z"/>
</svg>
