<?xml version="1.0" encoding="utf-8"?>
<!-- Generator: Adobe Illustrator 16.0.0, SVG Export Plug-In . SVG Version: 6.00 Build 0)  -->
<!DOCTYPE svg PUBLIC "-//W3C//DTD SVG 1.1//EN" "http://www.w3.org/Graphics/SVG/1.1/DTD/svg11.dtd">
<svg version="1.1" id="Layer_1" xmlns="http://www.w3.org/2000/svg" xmlns:xlink="http://www.w3.org/1999/xlink" x="0px" y="0px"
	 width="512px" height="512px" viewBox="0 0 512 512" enable-background="new 0 0 512 512" xml:space="preserve">
<g>
	<path d="M288.297,415.516h16c7.188-0.188,16-3.125,16-16v-32c0-12.875-8.813-15.813-16-16h-16V415.516z"/>
	<path d="M224.297,271.516v32c0,12.875,8.813,15.813,16,16h16v-64h-16C233.109,255.703,224.297,258.641,224.297,271.516z"/>
	<path d="M343.047,149.953c5.719-5.781,9.25-13.688,9.25-22.438c0-17.25-13.719-31.125-30.844-31.75
		c10.719-7.094,92.781-62.719,62.844-87.969c-32-27-103,25.719-128,23.719c-25,2-96-50.719-128-23.719
		c-29.938,25.25,52.109,80.875,62.828,87.969c-17.094,0.625-30.828,14.5-30.828,31.75c0,8.75,3.547,16.656,9.234,22.438
		C88.922,193.547,32.297,296.016,32.297,415.516c0,22.031,2.094,43.375,5.75,64c142.375,42.656,294.125,42.656,436.5,0
		c3.656-20.625,5.75-41.969,5.75-64C480.297,296.016,423.672,193.547,343.047,149.953z M304.297,319.516c19.313,0,48,12.781,48,48
		v32c0,35.219-28.688,48-48,48h-16v16c0,8.813-7.188,16-16,16s-16-7.188-16-16v-16h-48c-8.813,0-16-7.188-16-16s7.188-16,16-16h48
		v-64h-16c-19.313,0-48-12.781-48-48v-32c0-35.219,28.688-48,48-48h16v-16c0-8.813,7.188-16,16-16s16,7.188,16,16v16h48
		c8.813,0,16,7.188,16,16s-7.188,16-16,16h-48v64H304.297z"/>
</g>
</svg>
