<?xml version="1.0" encoding="utf-8"?>
<!-- Generator: Adobe Illustrator 16.0.0, SVG Export Plug-In . SVG Version: 6.00 Build 0)  -->
<!DOCTYPE svg PUBLIC "-//W3C//DTD SVG 1.1//EN" "http://www.w3.org/Graphics/SVG/1.1/DTD/svg11.dtd">
<svg version="1.1" id="Layer_1" xmlns="http://www.w3.org/2000/svg" xmlns:xlink="http://www.w3.org/1999/xlink" x="0px" y="0px"
	 width="512px" height="512px" viewBox="0 0 512 512" enable-background="new 0 0 512 512" xml:space="preserve">
<path d="M304,99.5c6.625,0,12-5.375,12-12s-5.375-12-12-12h-36v-12c0-6.625-5.391-12-12-12s-12,5.375-12,12v12h-12
	c-14.484,0-36,9.563-36,36v24c0,26.438,21.516,36,36,36h12v48h-36c-6.609,0-12,5.375-12,12s5.391,12,12,12h36v12
	c0,6.625,5.391,12,12,12s12-5.375,12-12v-12h12c14.5,0,36-9.563,36-36v-24c0-26.438-21.5-36-36-36h-12v-48H304z M244,147.5h-12
	c-5.391-0.125-12-2.344-12-12v-24c0-9.656,6.609-11.875,12-12h12V147.5z M280,171.5c5.391,0.125,12,2.344,12,12v24
	c0,9.656-6.609,11.875-12,12h-12v-48H280z M448-0.5H64l-64,320h512L448-0.5z M416,287.5H96c0-28.625-18.922-52.438-44.859-60.563
	L78.031,92.531C83.75,94.313,89.688,95.5,96,95.5c35.344,0,64-28.656,64-64h192c0,35.344,28.656,64,64,64
	c6.313,0,12.281-1.188,18-2.938l26.844,134.344C434.938,235.063,416,258.875,416,287.5z M0,351.5h512v32H0V351.5z M0,415.5h512v32H0
	V415.5z M0,479.5h512v32H0V479.5z"/>
</svg>
