<?xml version="1.0" encoding="utf-8"?>
<!-- Generator: Adobe Illustrator 16.0.0, SVG Export Plug-In . SVG Version: 6.00 Build 0)  -->
<!DOCTYPE svg PUBLIC "-//W3C//DTD SVG 1.1//EN" "http://www.w3.org/Graphics/SVG/1.1/DTD/svg11.dtd">
<svg version="1.1" id="Layer_1" xmlns="http://www.w3.org/2000/svg" xmlns:xlink="http://www.w3.org/1999/xlink" x="0px" y="0px"
	 width="512px" height="512px" viewBox="0 0 512 512" enable-background="new 0 0 512 512" xml:space="preserve">
<path d="M256,447.781c0-12.594-6.266-23.063-16.078-31.906c9.797-8.938,16.078-19.5,16.078-32.094s-6.266-23.063-16.078-31.906
	c9.797-8.938,16.078-19.5,16.078-32.094c0-84-256-84-256,0c0,12.594,6.281,23.156,16.078,32.094C6.266,360.719,0,371.188,0,383.781
	s6.281,23.156,16.078,32.094C6.266,424.719,0,435.188,0,447.781c0,42.031,64.391,64,128,64S256,489.813,256,447.781z M128,479.781
	c-59.547,0-96-20.688-96-32c0-4,4.828-9.219,13.484-14.281c23.359,9.344,52.891,14.281,82.516,14.281s59.156-4.938,82.516-14.281
	c8.656,5.063,13.484,10.281,13.484,14.281C224,459.094,187.547,479.781,128,479.781z M128,415.781c-59.547,0-96-20.688-96-32
	c0-4,4.828-9.219,13.484-14.281c23.359,9.344,52.891,14.281,82.516,14.281s59.156-4.938,82.516-14.281
	c8.656,5.063,13.484,10.281,13.484,14.281C224,395.094,187.547,415.781,128,415.781z M128,351.781c-59.547,0-96-20.688-96-32
	c0-11.25,36.453-32,96-32s96,20.75,96,32C224,331.094,187.547,351.781,128,351.781z M368,119.781c0,4.438-3.594,8-8,8H216
	c-4.422,0-8-3.563-8-8s3.578-8,8-8h144C364.406,111.781,368,115.344,368,119.781z M368,143.781c0,4.438-3.594,8-8,8H216
	c-4.422,0-8-3.563-8-8s3.578-8,8-8h144C364.406,135.781,368,139.344,368,143.781z M204.281,47.781
	C195.453,32.469,200.703,12.906,216,4.094c15.313-8.875,34.875-3.625,43.719,11.688l0.531,0.938
	C265.688,6.781,275.875-0.219,288-0.219s22.313,7,27.75,16.938l0.531-0.938C325.125,0.469,344.688-4.781,360,4.094
	c15.313,8.813,20.563,28.375,11.719,43.688l-19.719,56H224L204.281,47.781z M482.188,451.406
	C489.25,427.281,501.906,359.5,450,287.781c-34-47-39-16-98-128H224c-26.391,50.125-41.953,71.531-54.172,84.188
	c55.438,7.938,102.172,32,102.172,75.813c0,11.469-3.563,22.188-10.625,32.031c7.063,9.813,10.625,20.5,10.625,31.969
	s-3.563,22.188-10.625,32.031c7.063,9.813,10.625,20.5,10.625,31.969c0,30.188-22.859,51.063-54.672,64h291.734
	c1.781-5.031,2.938-10.375,2.938-16C512,475.719,499.656,458.563,482.188,451.406z M451.469,442.406l-8.094,27.688
	c0,0-3.375-86.313-57.375-149.313c-51.688-60.281-53.125-129-53.125-129c32,58.344,48.625,74.594,67.969,90.375
	c7.625,6.219,13.625,11.125,23.219,24.375C467.25,366.188,457.625,421.438,451.469,442.406z"/>
</svg>
