<?xml version="1.0" encoding="utf-8"?>
<!-- Generator: Adobe Illustrator 16.0.0, SVG Export Plug-In . SVG Version: 6.00 Build 0)  -->
<!DOCTYPE svg PUBLIC "-//W3C//DTD SVG 1.1//EN" "http://www.w3.org/Graphics/SVG/1.1/DTD/svg11.dtd">
<svg version="1.1" id="Layer_1" xmlns="http://www.w3.org/2000/svg" xmlns:xlink="http://www.w3.org/1999/xlink" x="0px" y="0px"
	 width="512px" height="512px" viewBox="0 0 512 512" enable-background="new 0 0 512 512" xml:space="preserve">
<path d="M450.188,451.406C457.25,427.281,469.906,359.5,418,287.781c-34-47-39-16-98-128H192c-59,112-64,81-98,128
	c-51.875,71.719-39.25,139.5-32.172,163.625C44.344,458.563,32,475.719,32,495.781c0,5.625,1.156,10.969,2.938,16h442.125
	c1.781-5.031,2.938-10.375,2.938-16C480,475.719,467.656,458.563,450.188,451.406z M419.469,442.406l-8.094,27.688
	c0,0-3.375-86.313-57.375-149.313c-51.688-60.281-53.125-129-53.125-129c32,58.344,48.625,74.594,67.969,90.375
	c7.625,6.219,13.625,11.125,23.219,24.375C435.25,366.188,425.625,421.438,419.469,442.406z M172.281,47.781
	C163.453,32.469,168.703,12.906,184,4.094c15.297-8.875,34.875-3.625,43.719,11.688l0.547,0.938
	C233.688,6.781,243.875-0.219,256-0.219s22.313,7,27.734,16.938l0.547-0.938C293.125,0.469,312.688-4.781,328,4.094
	c15.313,8.813,20.563,28.375,11.719,43.688l-19.719,56H192L172.281,47.781z M336,143.781c0,4.438-3.594,8-8,8H184
	c-4.422,0-8-3.563-8-8s3.578-8,8-8h144C332.406,135.781,336,139.344,336,143.781z M336,119.781c0,4.438-3.594,8-8,8H184
	c-4.422,0-8-3.563-8-8s3.578-8,8-8h144C332.406,111.781,336,115.344,336,119.781z"/>
</svg>
