<?xml version="1.0" encoding="utf-8"?>
<!-- Generator: Adobe Illustrator 16.0.0, SVG Export Plug-In . SVG Version: 6.00 Build 0)  -->
<!DOCTYPE svg PUBLIC "-//W3C//DTD SVG 1.1//EN" "http://www.w3.org/Graphics/SVG/1.1/DTD/svg11.dtd">
<svg version="1.1" id="Layer_1" xmlns="http://www.w3.org/2000/svg" xmlns:xlink="http://www.w3.org/1999/xlink" x="0px" y="0px"
	 width="512px" height="512px" viewBox="0 0 512 512" enable-background="new 0 0 512 512" xml:space="preserve">
<path d="M0,96v320h512V96H0z M480,384H32V128h448V384z M96,368h122.016C193.109,346.313,176,304.563,176,256
	s17.109-90.313,42.016-112H96c0,26.531-21.5,48-48,48v128C74.5,320,96,341.469,96,368z M120,232c13.25,0,24,10.75,24,24
	s-10.75,24-24,24s-24-10.75-24-24S106.75,232,120,232z M293.969,368H416c0-26.531,21.5-48,48-48V192c-26.5,0-48-21.469-48-48
	H293.969C318.906,165.688,336,207.438,336,256S318.906,346.313,293.969,368z M392,232c13.25,0,24,10.75,24,24s-10.75,24-24,24
	s-24-10.75-24-24S378.75,232,392,232z M216,240c0,17.625,14.344,24,24,24h8v32h-24c-4.406,0-8,3.594-8,8s3.594,8,8,8h24v8
	c0,4.406,3.594,8,8,8s8-3.594,8-8v-8h8c9.656,0,24-6.375,24-24v-16c0-17.625-14.344-24-24-24h-8v-32h24c4.406,0,8-3.594,8-8
	s-3.594-8-8-8h-24v-8c0-4.406-3.594-8-8-8s-8,3.594-8,8v8h-8c-9.656,0-24,6.375-24,24V240z M264,264h8c3.594,0.094,8,1.563,8,8v16
	c0,6.438-4.406,7.906-8,8h-8V264z M232,224c0-6.438,4.406-7.906,8-8h8v32h-8c-3.594-0.094-8-1.563-8-8V224z"/>
</svg>
