<?xml version="1.0" encoding="utf-8"?>
<!-- Generator: Adobe Illustrator 16.0.0, SVG Export Plug-In . SVG Version: 6.00 Build 0)  -->
<!DOCTYPE svg PUBLIC "-//W3C//DTD SVG 1.1//EN" "http://www.w3.org/Graphics/SVG/1.1/DTD/svg11.dtd">
<svg version="1.1" id="Layer_1" xmlns="http://www.w3.org/2000/svg" xmlns:xlink="http://www.w3.org/1999/xlink" x="0px" y="0px"
	 width="512px" height="512px" viewBox="0 0 512 512" enable-background="new 0 0 512 512" xml:space="preserve">
<path d="M0,96v320h512V96H0z M480,320c-35.344,0-64,28.656-64,64H96c0-35.344-28.656-64-64-64V192c35.344,0,64-28.656,64-64h320
	c0,35.344,28.656,64,64,64V320z M352,256c0,53.031-42.969,96-96,96s-96-42.969-96-96s42.969-96,96-96S352,202.969,352,256z"/>
</svg>
