<?xml version="1.0" encoding="utf-8"?>
<!-- Generator: Adobe Illustrator 16.0.0, SVG Export Plug-In . SVG Version: 6.00 Build 0)  -->
<!DOCTYPE svg PUBLIC "-//W3C//DTD SVG 1.1//EN" "http://www.w3.org/Graphics/SVG/1.1/DTD/svg11.dtd">
<svg version="1.1" id="Layer_1" xmlns="http://www.w3.org/2000/svg" xmlns:xlink="http://www.w3.org/1999/xlink" x="0px" y="0px"
	 width="512px" height="512px" viewBox="0 0 512 512" enable-background="new 0 0 512 512" xml:space="preserve">
<path d="M340.906,114.375c0,8.438-10.125,15.5-22.719,21.125c-12.594,5.688-30.188,9-62.188,10V160l0,0v-14.438
	c-64-1.625-71.719-10.844-81.188-27.625l39.375-4.906c4.313,10.563,18.719,15.844,43.125,15.844c11.406,0,19.875-1.125,25.25-3.375
	c5.375-2.281,8.125-5,8.125-8.188c0-3.313-2.563-5.844-7.938-7.563c-5.375-1.688-17.125-3.844-35.656-6.469
	c-16.656-2.313-29.219-4.594-38.594-6.875c-9.375-2.219-16.063-5.406-21.906-9.469s-6.906-8.813-6.906-14.188
	c0-7.125,9.031-13.5,19.469-19.188C209.594,47.906,224,44.438,256,43.188V32l0,0v11.188c64,1.625,63.438,9.313,73.406,23
	l-34.125,6.844c-8.156-9.406-20.719-14.094-37.781-14.094c-8.563,0-15.438,1.063-20.594,3.156c-5.188,2.094-7.781,4.656-7.781,7.656
	c0,3.031,2.5,5.375,7.5,7c4.969,1.625,15.688,3.625,32.063,6.063c18,2.625,32.125,5.125,42.344,7.438
	c10.25,2.344,18.406,5.563,24.531,9.688C341.656,104.063,340.906,108.875,340.906,114.375z M448,128c0,11.25-4.094,22-11.219,32.063
	c0.031-0.031,0.063-0.063,0.063-0.063C443.938,170,448,180.75,448,192v32c0,11.25-4.094,22.063-11.25,32.094
	c0.031-0.031,0.063-0.063,0.094-0.094C443.938,266,448,276.75,448,288v32c0,11.281-4.094,22.031-11.25,32.094
	c0.031-0.031,0.063-0.063,0.094-0.094C443.938,362,448,372.75,448,384v32c0,53-86,96-192,96c-106.031,0-192-43-192-96v-32
	c0-11.25,4.063-22,11.156-32c0,0.031,0.031,0.031,0.063,0.063C68.063,342.031,64,331.25,64,320v-32c0-11.25,4.063-22,11.156-32
	c0,0.031,0.031,0.063,0.063,0.063C68.063,246.031,64,235.25,64,224v-32c0-11.25,4.063-22,11.156-32c0,0,0,0.031,0.031,0.031
	C68.063,150,64,139.25,64,128V96c0-53,85.969-96,192-96c106,0,192,43,192,96V128z M432,384c0-6.375-2.281-12.875-6.188-19.25
	c0.094-0.094,0.156-0.219,0.25-0.313C394,395.063,329.906,416,256,416c-73.594,0-137.438-20.719-169.656-51.125
	c0.031,0.063,0.063,0.094,0.125,0.156C82.656,371.344,80,377.719,80,384c0,37.844,72.281,80,176,80S432,421.844,432,384z M432,288
	c0-6.375-2.281-12.875-6.188-19.25c0.063-0.063,0.094-0.125,0.125-0.188C393.813,299.125,329.781,320,256,320
	c-73.594,0-137.438-20.719-169.656-51.125c0.031,0.063,0.063,0.125,0.125,0.156C82.656,275.344,80,281.719,80,288
	c0,37.844,72.281,80,176,80S432,325.844,432,288z M432,192c0-6.375-2.281-12.875-6.188-19.25c0.031-0.063,0.031-0.063,0.063-0.094
	C393.719,203.188,329.75,224,256,224c-73.531,0-137.344-20.688-169.594-51.063c0,0.063,0.031,0.063,0.063,0.094
	C82.656,179.344,80,185.719,80,192c0,37.844,72.281,80,176,80S432,229.844,432,192z M432,96c0-10.5-5.594-21.375-15.875-31.563
	C389.406,38,330.875,16,256,16C152.281,16,80,58.156,80,96s72.281,80,176,80S432,133.844,432,96z"/>
</svg>
