<?xml version="1.0" encoding="utf-8"?>
<!-- Generator: Adobe Illustrator 16.0.0, SVG Export Plug-In . SVG Version: 6.00 Build 0)  -->
<!DOCTYPE svg PUBLIC "-//W3C//DTD SVG 1.1//EN" "http://www.w3.org/Graphics/SVG/1.1/DTD/svg11.dtd">
<svg version="1.1" id="Layer_1" xmlns="http://www.w3.org/2000/svg" xmlns:xlink="http://www.w3.org/1999/xlink" x="0px" y="0px"
	 width="512px" height="512px" viewBox="0 0 512 512" enable-background="new 0 0 512 512" xml:space="preserve">
<path d="M16,400h192c8.844,0,16-5.375,16-12v-24c0-6.625-7.156-12-16-12H16c-8.844,0-16,5.375-16,12v24C0,394.625,7.156,400,16,400z
	 M16,464h192c8.844,0,16-5.375,16-12v-24c0-6.625-7.156-12-16-12H16c-8.844,0-16,5.375-16,12v24C0,458.625,7.156,464,16,464z
	 M16,336h192c8.844,0,16-5.375,16-12v-24c0-6.625-7.156-12-16-12H16c-8.844,0-16,5.375-16,12v24C0,330.625,7.156,336,16,336z
	 M255.297,329.625c0.25-1.875,0.703-3.688,0.703-5.625v-24c0-24.688-21.078-44-48-44h-64c0-44.188,35.813-80,80-80s80,35.813,80,80
	C304,289.063,283.922,317.438,255.297,329.625z M0,112h448v288H254.094c1.141-3.813,1.906-7.813,1.906-12v-20h96
	c0-35.344,28.656-64,64-64v-96c-35.344,0-64-28.656-64-64H96c0,35.344-28.656,64-64,64v48H16c-5.672,0-10.984,1.031-16,2.594V112z
	 M512,48v320h-32V80H32V48H512z"/>
</svg>
