<?xml version="1.0" encoding="utf-8"?>
<!-- Generator: Adobe Illustrator 16.0.0, SVG Export Plug-In . SVG Version: 6.00 Build 0)  -->
<!DOCTYPE svg PUBLIC "-//W3C//DTD SVG 1.1//EN" "http://www.w3.org/Graphics/SVG/1.1/DTD/svg11.dtd">
<svg version="1.1" id="Layer_1" xmlns="http://www.w3.org/2000/svg" xmlns:xlink="http://www.w3.org/1999/xlink" x="0px" y="0px"
	 width="512px" height="512px" viewBox="0 0 512 512" enable-background="new 0 0 512 512" xml:space="preserve">
<path d="M175.5,224h160v32h-160V224z M175.5,320h160v-32h-160V320z M175.5,192h160v-32h-160V192z M431.5,0v512h-96v-64h-32v64h-96
	v-64h-32v64h-96V0h96v64h32V0h96v64h32V0H431.5z M399.5,32h-32v64h-96V32h-32v64h-96V32h-32v448h32v-64h96v64h32v-64h96v64h32V32z"
	/>
</svg>
