<?xml version="1.0" encoding="utf-8"?>
<!-- Generator: Adobe Illustrator 16.0.0, SVG Export Plug-In . SVG Version: 6.00 Build 0)  -->
<!DOCTYPE svg PUBLIC "-//W3C//DTD SVG 1.1//EN" "http://www.w3.org/Graphics/SVG/1.1/DTD/svg11.dtd">
<svg version="1.1" id="Layer_1" xmlns="http://www.w3.org/2000/svg" xmlns:xlink="http://www.w3.org/1999/xlink" x="0px" y="0px"
	 width="512px" height="512px" viewBox="0 0 512 512" enable-background="new 0 0 512 512" xml:space="preserve">
<path d="M144.25,0l-32,352H14.875v80c0,44.125,35.875,80,80,80h288c44.125,0,80-35.875,79.938-78.781L496.125,0H144.25z M94.875,480
	c-26.5,0-48-21.531-48-48v-48h256v48c0,18,5.938,34.625,16,48H94.875z M430.875,432c0,26.469-21.563,48-48,48
	c-26.5,0-48-21.531-48-48v-80h-190.5L173.5,32h288.063L430.875,432z M385.125,192H223.188l2.938-32h161.438L385.125,192z M390,128
	H229l2.938-32H392.5L390,128z M252.188,256h-34.813l2.875-32h34.375L252.188,256z M284.25,224h66.375l-2.438,32h-66.813L284.25,224z
	"/>
</svg>
