<?xml version="1.0" encoding="utf-8"?>
<!-- Generator: Adobe Illustrator 16.0.0, SVG Export Plug-In . SVG Version: 6.00 Build 0)  -->
<!DOCTYPE svg PUBLIC "-//W3C//DTD SVG 1.1//EN" "http://www.w3.org/Graphics/SVG/1.1/DTD/svg11.dtd">
<svg version="1.1" id="Layer_1" xmlns="http://www.w3.org/2000/svg" xmlns:xlink="http://www.w3.org/1999/xlink" x="0px" y="0px"
	 width="512px" height="512px" viewBox="0 0 512 512" enable-background="new 0 0 512 512" xml:space="preserve">
<path d="M399.5,0v64h-32V0h-96v64h-32V0h-96v64h-32V0h-96v512h96v-64h32v64h96v-64h32v64h96v-64h32v64h96V0H399.5z M463.5,480h-32
	v-64h-96v64h-32v-64h-96v64h-32v-64h-96v64h-32V32h32v64h96V32h32v64h96V32h32v64h96V32h32V480z M111.5,160h320v32h-320V160z
	 M111.5,224h320v32h-320V224z M111.5,288h160v32h-160V288z"/>
</svg>
