<?xml version="1.0" encoding="utf-8"?>
<!-- Generator: Adobe Illustrator 16.0.0, SVG Export Plug-In . SVG Version: 6.00 Build 0)  -->
<!DOCTYPE svg PUBLIC "-//W3C//DTD SVG 1.1//EN" "http://www.w3.org/Graphics/SVG/1.1/DTD/svg11.dtd">
<svg version="1.1" id="Layer_1" xmlns="http://www.w3.org/2000/svg" xmlns:xlink="http://www.w3.org/1999/xlink" x="0px" y="0px"
	 width="512px" height="512px" viewBox="0 0 512 512" enable-background="new 0 0 512 512" xml:space="preserve">
<path d="M399.5,0v32h-32V0h-32v32h-32V0h-32v32h-32V0h-32v32h-32V0h-32v32h-32V0h-32v512h32v-32h32v32h32v-32h32v32h32v-32h32v32h32
	v-32h32v32h32v-32h32v32h32V0H399.5z M399.5,448h-288V64h288V448z M303.5,192h-160v-32h160V192z M303.5,256h-160v-32h160V256z
	 M239.5,320h-96v-32h96V320z"/>
</svg>
