<?xml version="1.0" encoding="utf-8"?>
<!-- Generator: Adobe Illustrator 16.0.0, SVG Export Plug-In . SVG Version: 6.00 Build 0)  -->
<!DOCTYPE svg PUBLIC "-//W3C//DTD SVG 1.1//EN" "http://www.w3.org/Graphics/SVG/1.1/DTD/svg11.dtd">
<svg version="1.1" id="Layer_1" xmlns="http://www.w3.org/2000/svg" xmlns:xlink="http://www.w3.org/1999/xlink" x="0px" y="0px"
	 width="512px" height="512px" viewBox="0 0 512 512" enable-background="new 0 0 512 512" xml:space="preserve">
<path d="M128,0C57.313,0,0,57.313,0,128v384h0.031l0,0l0,0l0,0l0,0h32L64,480l32,32h32l32-32l32,32h32l32-32l32,32h32l32-32l32,32
	V128C384,57.313,441.313,0,512,0H128z M224,352H64v-32h160V352z M224,288H64v-32h160V288z M224,224H64v-32h160V224z M320,352h-32
	v-32h32V352z M320,288h-32v-32h32V288z M320,224h-32v-32h32V224z"/>
</svg>
