<?xml version="1.0" encoding="utf-8"?>
<!-- Generator: Adobe Illustrator 16.0.0, SVG Export Plug-In . SVG Version: 6.00 Build 0)  -->
<!DOCTYPE svg PUBLIC "-//W3C//DTD SVG 1.1//EN" "http://www.w3.org/Graphics/SVG/1.1/DTD/svg11.dtd">
<svg version="1.1" id="Layer_1" xmlns="http://www.w3.org/2000/svg" xmlns:xlink="http://www.w3.org/1999/xlink" x="0px" y="0px"
	 width="512px" height="512px" viewBox="0 0 512 512" enable-background="new 0 0 512 512" xml:space="preserve">
<path d="M32,0v432c0,44.125,35.875,80,80,80c18,0,34.625-5.969,48-16.031C173.375,506.031,190,512,208,512s34.625-5.969,48-16.031
	C269.375,506.031,286,512,304,512s34.625-5.969,48-16.031C365.375,506.031,382,512,400,512c44.125,0,80-35.875,80-80V0H32z M160,64
	h192v64H160V64z M416,352H96v-32h320V352z M416,288H96v-32h320V288z M416,224H96v-32h320V224z"/>
</svg>
