<?xml version="1.0" encoding="utf-8"?>
<!-- Generator: Adobe Illustrator 16.0.0, SVG Export Plug-In . SVG Version: 6.00 Build 0)  -->
<!DOCTYPE svg PUBLIC "-//W3C//DTD SVG 1.1//EN" "http://www.w3.org/Graphics/SVG/1.1/DTD/svg11.dtd">
<svg version="1.1" id="Layer_1" xmlns="http://www.w3.org/2000/svg" xmlns:xlink="http://www.w3.org/1999/xlink" x="0px" y="0px"
	 width="512px" height="512px" viewBox="0 0 512 512" enable-background="new 0 0 512 512" xml:space="preserve">
<path d="M64,512h384l49.781-224H14.219L64,512z M384,368c0-8.844,7.156-16,16-16s16,7.156,16,16v96c0,8.844-7.156,16-16,16
	s-16-7.156-16-16V368z M288,368c0-8.844,7.156-16,16-16s16,7.156,16,16v96c0,8.844-7.156,16-16,16s-16-7.156-16-16V368z M192,368
	c0-8.844,7.156-16,16-16s16,7.156,16,16v96c0,8.844-7.156,16-16,16s-16-7.156-16-16V368z M96,368c0-8.844,7.156-16,16-16
	s16,7.156,16,16v96c0,8.844-7.156,16-16,16s-16-7.156-16-16V368z M469.688,224l0.906-1L300.188,66.781C302.625,61,304,54.688,304,48
	c0-26.5-21.5-48-48-48c-26.516,0-48,21.5-48,48c0,6.688,1.375,13,3.828,18.781L41.391,223l0.906,1H0l7.109,32h497.766L512,224
	H469.688z M87.688,224L233.625,90.219C240.328,93.813,247.875,96,256,96s15.656-2.219,22.375-5.781L424.313,224H87.688z"/>
</svg>
