<?xml version="1.0" encoding="utf-8"?>
<!-- Generator: Adobe Illustrator 16.0.0, SVG Export Plug-In . SVG Version: 6.00 Build 0)  -->
<!DOCTYPE svg PUBLIC "-//W3C//DTD SVG 1.1//EN" "http://www.w3.org/Graphics/SVG/1.1/DTD/svg11.dtd">
<svg version="1.1" id="Layer_1" xmlns="http://www.w3.org/2000/svg" xmlns:xlink="http://www.w3.org/1999/xlink" x="0px" y="0px"
	 width="512px" height="512px" viewBox="0 0 512 512" enable-background="new 0 0 512 512" xml:space="preserve">
<g>
	<path d="M496,0h-80c-7.719,0-14.344,5.531-15.75,13.125L356.094,256H137.188L29.828,71.938c-4.469-7.625-14.266-10.188-21.891-5.75
		s-10.203,14.25-5.766,21.875l112,192C117.047,285,122.313,288,128,288h222.281l-11.625,64H160c-8.844,0-16,7.156-16,16
		s7.156,16,16,16h192c7.719,0,14.344-5.531,15.75-13.125L429.344,32H496c8.844,0,16-7.156,16-16S504.844,0,496,0z"/>
	<path d="M208,416c-26.5,0-48,21.469-48,48s21.5,48,48,48s48-21.469,48-48S234.5,416,208,416z"/>
	<path d="M336,416c-26.531,0-48,21.469-48,48s21.469,48,48,48s48-21.469,48-48S362.531,416,336,416z"/>
</g>
</svg>
