<?xml version="1.0" encoding="utf-8"?>
<!-- Generator: Adobe Illustrator 16.0.0, SVG Export Plug-In . SVG Version: 6.00 Build 0)  -->
<!DOCTYPE svg PUBLIC "-//W3C//DTD SVG 1.1//EN" "http://www.w3.org/Graphics/SVG/1.1/DTD/svg11.dtd">
<svg version="1.1" id="Layer_1" xmlns="http://www.w3.org/2000/svg" xmlns:xlink="http://www.w3.org/1999/xlink" x="0px" y="0px"
	 width="512px" height="512px" viewBox="0 0 512 512" enable-background="new 0 0 512 512" xml:space="preserve">
<g>
	<path d="M64,192v320h384V192H64z M176,288c-8.844,0-16-7.156-16-16s7.156-16,16-16s16,7.156,16,16S184.844,288,176,288z M336,288
		c-8.844,0-16-7.156-16-16s7.156-16,16-16s16,7.156,16,16S344.844,288,336,288z"/>
	<path d="M193.438,160c6.688-75.063,36-128,62.563-128s55.844,52.938,62.531,128h32.156C343.469,66.906,305.219,0,256,0
		c-49.25,0-87.469,66.906-94.688,160H193.438z"/>
</g>
</svg>
