<?xml version="1.0" encoding="utf-8"?>
<!-- Generator: Adobe Illustrator 16.0.0, SVG Export Plug-In . SVG Version: 6.00 Build 0)  -->
<!DOCTYPE svg PUBLIC "-//W3C//DTD SVG 1.1//EN" "http://www.w3.org/Graphics/SVG/1.1/DTD/svg11.dtd">
<svg version="1.1" id="Layer_1" xmlns="http://www.w3.org/2000/svg" xmlns:xlink="http://www.w3.org/1999/xlink" x="0px" y="0px"
	 width="512px" height="512px" viewBox="0 0 512 512" enable-background="new 0 0 512 512" xml:space="preserve">
<path d="M421.875,216L301.719,15.75c-4.563-7.563-14.359-10-21.953-5.469c-7.578,4.531-10.031,14.375-5.484,21.969L384.563,216
	H127.469l110.25-183.75c4.547-7.594,2.094-17.438-5.484-21.969s-17.422-2.094-21.953,5.469L90.141,216H0v64h32v192
	c0,17.688,14.328,32,32,32h384c17.688,0,32-14.313,32-32V280h32v-64H421.875z M80,280c-8.844,0-16-7.156-16-16s7.156-16,16-16
	s16,7.156,16,16S88.844,280,80,280z M160,440H96V312h64V440z M288,440h-64V312h64V440z M416,440h-64V312h64V440z M432,280
	c-8.844,0-16-7.156-16-16s7.156-16,16-16s16,7.156,16,16S440.844,280,432,280z"/>
</svg>
