<?xml version="1.0" encoding="utf-8"?>
<!-- Generator: Adobe Illustrator 16.0.0, SVG Export Plug-In . SVG Version: 6.00 Build 0)  -->
<!DOCTYPE svg PUBLIC "-//W3C//DTD SVG 1.1//EN" "http://www.w3.org/Graphics/SVG/1.1/DTD/svg11.dtd">
<svg version="1.1" id="Layer_1" xmlns="http://www.w3.org/2000/svg" xmlns:xlink="http://www.w3.org/1999/xlink" x="0px" y="0px"
	 width="512px" height="512px" viewBox="0 0 512 512" enable-background="new 0 0 512 512" xml:space="preserve">
<path d="M288,256c0,17.688-14.313,32-32,32l0,0c-17.688,0-32-14.313-32-32V32c0-17.688,14.313-32,32-32l0,0
	c17.688,0,32,14.313,32,32V256z M512,256c0,17.688-14.313,32-32,32h-32v192c0,17.688-14.313,32-32,32H96c-17.688,0-32-14.313-32-32
	V288H32c-17.688,0-32-14.313-32-32s14.313-32,32-32h176v32c0,26.469,21.531,48,48,48s48-21.531,48-48v-32h176
	C497.688,224,512,238.313,512,256z M176,336c0-8.844-7.156-16-16-16s-16,7.156-16,16v96c0,8.844,7.156,16,16,16s16-7.156,16-16V336z
	 M240,336c0-8.844-7.156-16-16-16s-16,7.156-16,16v96c0,8.844,7.156,16,16,16s16-7.156,16-16V336z M304,336c0-8.844-7.156-16-16-16
	s-16,7.156-16,16v96c0,8.844,7.156,16,16,16s16-7.156,16-16V336z M368,336c0-8.844-7.156-16-16-16s-16,7.156-16,16v96
	c0,8.844,7.156,16,16,16s16-7.156,16-16V336z"/>
</svg>
