<?xml version="1.0" encoding="utf-8"?>
<!-- Generator: Adobe Illustrator 16.0.0, SVG Export Plug-In . SVG Version: 6.00 Build 0)  -->
<!DOCTYPE svg PUBLIC "-//W3C//DTD SVG 1.1//EN" "http://www.w3.org/Graphics/SVG/1.1/DTD/svg11.dtd">
<svg version="1.1" id="Layer_1" xmlns="http://www.w3.org/2000/svg" xmlns:xlink="http://www.w3.org/1999/xlink" x="0px" y="0px"
	 width="512px" height="512px" viewBox="0 0 512 512" enable-background="new 0 0 512 512" xml:space="preserve">
<g>
	<path d="M303.375,196.469C299.219,94.875,272.188,0,224,0s-75.219,94.875-79.375,196.469C134.875,201.938,128,212,128,224
		c0,17.688,14.313,32,32,32s32-14.313,32-32c0-11.344-6.25-20.844-15.125-26.531C181.063,94.469,208.406,32,224,32
		s42.938,62.5,47.156,165.5C262.25,203.156,256,212.656,256,224c0,17.688,14.313,32,32,32s32-14.313,32-32
		C320,212,313.125,201.938,303.375,196.469z"/>
	<path d="M400,288c-61.875,0-112,50.125-112,112s50.125,112,112,112s112-50.125,112-112S461.875,288,400,288z M480,416h-64v64h-32
		v-64h-64v-32h64v-64h32v64h64V416z"/>
	<g>
		<polygon points="372.906,256 405.344,256 384,128 320,128 320,160 356.906,160 		"/>
		<polygon points="37.781,480 91.125,160 128,160 128,128 64,128 0,512 288,512 288,480 		"/>
	</g>
</g>
</svg>
