<?xml version="1.0" encoding="utf-8"?>
<!-- Generator: Adobe Illustrator 16.0.0, SVG Export Plug-In . SVG Version: 6.00 Build 0)  -->
<!DOCTYPE svg PUBLIC "-//W3C//DTD SVG 1.1//EN" "http://www.w3.org/Graphics/SVG/1.1/DTD/svg11.dtd">
<svg version="1.1" id="Layer_1" xmlns="http://www.w3.org/2000/svg" xmlns:xlink="http://www.w3.org/1999/xlink" x="0px" y="0px"
	 width="512px" height="512px" viewBox="0 0 512 512" enable-background="new 0 0 512 512" xml:space="preserve">
<path d="M64,447.25c-35.344,0-64,28.656-64,64h512c0-35.344-28.656-64-64-64h-0.438V161.406l1.406,5.594
	c3.625,14.563,16.656,24.25,31,24.25c2.563,0,5.188-0.313,7.781-0.938c17.156-4.313,27.594-21.688,23.281-38.813L448-0.75H64
	L0.938,151.5c-4.25,17.125,6.156,34.5,23.313,38.813c2.594,0.625,5.188,0.938,7.781,0.938c14.344,0,27.375-9.688,31.031-24.25
	l1.375-5.563V447.25H64z M96,191.25c17.688,0,32-14.313,32-32c0,17.688,14.313,32,32,32s32-14.313,32-32c0,17.688,14.313,32,32,32
	s32-14.313,32-32c0,17.688,14.313,32,32,32s32-14.313,32-32c0,17.688,14.313,32,32,32s32-14.313,32-32c0,17.688,14.313,32,32,32v256
	h-96v-160c0-35.344-28.656-64-64-64s-64,28.656-64,64v160H96V191.25z M224,335.25c0-8.844,7.156-16,16-16s16,7.156,16,16
	s-7.156,16-16,16S224,344.094,224,335.25z"/>
</svg>
