<?xml version="1.0" encoding="utf-8"?>
<!-- Generator: Adobe Illustrator 16.0.0, SVG Export Plug-In . SVG Version: 6.00 Build 0)  -->
<!DOCTYPE svg PUBLIC "-//W3C//DTD SVG 1.1//EN" "http://www.w3.org/Graphics/SVG/1.1/DTD/svg11.dtd">
<svg version="1.1" id="Layer_1" xmlns="http://www.w3.org/2000/svg" xmlns:xlink="http://www.w3.org/1999/xlink" x="0px" y="0px"
	 width="512px" height="512px" viewBox="0 0 512 512" enable-background="new 0 0 512 512" xml:space="preserve">
<path d="M416-0.25H96l-96,96v53c0,29.781,20.438,54.594,48,61.75v301.25h416V210.5c27.563-7.156,48-31.969,48-61.75v-53L416-0.25z
	 M416,479.75v-224H288v224H80V210.5c27.563-7.156,48-31.969,48-61.75c0,35.344,28.656,64,64,64s64-28.656,64-64
	c0,35.344,28.656,64,64,64s64-28.656,64-64c0,29.781,20.438,54.594,48,61.75v269.25H416z M320,351.75v-64h64v64H320z M96,351.75h128
	v-96H96V351.75z M128,287.75h64v32h-64V287.75z"/>
</svg>
