<?xml version="1.0" encoding="utf-8"?>
<!-- Generator: Adobe Illustrator 16.0.0, SVG Export Plug-In . SVG Version: 6.00 Build 0)  -->
<!DOCTYPE svg PUBLIC "-//W3C//DTD SVG 1.1//EN" "http://www.w3.org/Graphics/SVG/1.1/DTD/svg11.dtd">
<svg version="1.1" id="Layer_1" xmlns="http://www.w3.org/2000/svg" xmlns:xlink="http://www.w3.org/1999/xlink" x="0px" y="0px"
	 width="512px" height="512px" viewBox="0 0 512 512" enable-background="new 0 0 512 512" xml:space="preserve">
<g>
	<path d="M480.007,0h-64c-15.5,0-28.75,11.063-31.5,26.281L377.632,64H31.991C20.897,64,10.6,69.75,4.772,79.188
		s-6.359,21.188-1.406,31.125l96,192c5.422,10.844,16.5,17.688,28.625,17.688h203.079l-5.813,32H159.991c-17.672,0-32,14.313-32,32
		s14.328,32,32,32h192.016c15.438,0,28.688-11.063,31.438-26.281L442.694,64h37.313c17.688,0,32-14.313,32-32S497.694,0,480.007,0z
		 M366.007,128l-5.813,32H99.772l-16-32H366.007z M147.772,256l-16-32h216.797l-5.813,32H147.772z"/>
	<path d="M191.991,448c-17.672,0-32,14.313-32,32s14.328,32,32,32s32-14.313,32-32S209.663,448,191.991,448z"/>
	<path d="M320.007,448c-17.688,0-32,14.313-32,32s14.313,32,32,32s32-14.313,32-32S337.694,448,320.007,448z"/>
</g>
</svg>
