<?xml version="1.0" encoding="utf-8"?>
<!-- Generator: Adobe Illustrator 16.0.0, SVG Export Plug-In . SVG Version: 6.00 Build 0)  -->
<!DOCTYPE svg PUBLIC "-//W3C//DTD SVG 1.1//EN" "http://www.w3.org/Graphics/SVG/1.1/DTD/svg11.dtd">
<svg version="1.1" id="Layer_1" xmlns="http://www.w3.org/2000/svg" xmlns:xlink="http://www.w3.org/1999/xlink" x="0px" y="0px"
	 width="512px" height="512px" viewBox="0 0 512 512" enable-background="new 0 0 512 512" xml:space="preserve">
<g>
	<polygon points="90.477,96 0.008,96 0.008,128 69.539,128 181.555,384 447.992,384 447.992,352 202.492,352 	"/>
	<path d="M239.992,416c-26.5,0-48,21.5-48,48s21.5,48,48,48s48-21.5,48-48S266.492,416,239.992,416z"/>
	<path d="M399.992,416c-26.5,0-48,21.5-48,48s21.5,48,48,48s48-21.5,48-48S426.492,416,399.992,416z"/>
	<path d="M389.773,203.625c56.219-56.188,56.25-147.375,0-203.625c16.969,84.875-67.875,135.75-67.875,135.75l-33.922-33.938
		v135.781h135.734L389.773,203.625z"/>
	<polygon points="479.992,160 426.305,288 245.648,288 191.992,160 159.992,160 223.977,320 447.992,320 511.992,160 	"/>
</g>
</svg>
