<?xml version="1.0" encoding="utf-8"?>
<!-- Generator: Adobe Illustrator 16.0.0, SVG Export Plug-In . SVG Version: 6.00 Build 0)  -->
<!DOCTYPE svg PUBLIC "-//W3C//DTD SVG 1.1//EN" "http://www.w3.org/Graphics/SVG/1.1/DTD/svg11.dtd">
<svg version="1.1" id="Layer_1" xmlns="http://www.w3.org/2000/svg" xmlns:xlink="http://www.w3.org/1999/xlink" x="0px" y="0px"
	 width="512px" height="512px" viewBox="0 0 512 512" enable-background="new 0 0 512 512" xml:space="preserve">
<g>
	<path d="M479.999,0h-64C400.53,0,387.28,11.063,384.53,26.281L377.655,64H31.999C20.905,64,10.608,69.75,4.78,79.188
		s-6.359,21.188-1.406,31.125l96,192c5.422,10.844,16.5,17.688,28.625,17.688h203.094l-5.813,32H159.999c-17.672,0-32,14.313-32,32
		s14.328,32,32,32h192c15.469,0,28.719-11.063,31.469-26.281L442.718,64h37.281c17.688,0,32-14.313,32-32S497.687,0,479.999,0z"/>
	<path d="M191.999,448c-17.672,0-32,14.313-32,32s14.328,32,32,32s32-14.313,32-32S209.67,448,191.999,448z"/>
	<path d="M319.999,448c-17.688,0-32,14.313-32,32s14.313,32,32,32s32-14.313,32-32S337.687,448,319.999,448z"/>
</g>
</svg>
