<?xml version="1.0" encoding="utf-8"?>
<!-- Generator: Adobe Illustrator 16.0.0, SVG Export Plug-In . SVG Version: 6.00 Build 0)  -->
<!DOCTYPE svg PUBLIC "-//W3C//DTD SVG 1.1//EN" "http://www.w3.org/Graphics/SVG/1.1/DTD/svg11.dtd">
<svg version="1.1" id="Layer_1" xmlns="http://www.w3.org/2000/svg" xmlns:xlink="http://www.w3.org/1999/xlink" x="0px" y="0px"
	 width="512px" height="512px" viewBox="0 0 512 512" enable-background="new 0 0 512 512" xml:space="preserve">
<g>
	<path d="M222.594,96C232.906,55.156,246.563,32,256,32s23.094,23.156,33.406,64h33.188c-13-55.875-35.281-96-66.594-96
		c-31.281,0-53.594,40.125-66.563,96H222.594z"/>
	<path d="M416,128h-87.25c3.406,21.75,5.656,44.875,6.625,68.469C345.125,201.938,352,212,352,224c0,17.688-14.313,32-32,32
		s-32-14.313-32-32c0-11.344,6.25-20.844,15.156-26.5c-1.063-25.844-3.563-49.125-7-69.5h-80.313
		c-3.406,20.375-5.906,43.625-6.969,69.469C217.75,203.156,224,212.656,224,224c0,17.688-14.313,32-32,32s-32-14.313-32-32
		c0-12,6.875-22.063,16.625-27.531c0.969-23.594,3.219-46.719,6.625-68.469H96L32,512h448L416,128z"/>
</g>
</svg>
