<?xml version="1.0" encoding="utf-8"?>
<!-- Generator: Adobe Illustrator 16.0.0, SVG Export Plug-In . SVG Version: 6.00 Build 0)  -->
<!DOCTYPE svg PUBLIC "-//W3C//DTD SVG 1.1//EN" "http://www.w3.org/Graphics/SVG/1.1/DTD/svg11.dtd">
<svg version="1.1" id="Layer_1" xmlns="http://www.w3.org/2000/svg" xmlns:xlink="http://www.w3.org/1999/xlink" x="0px" y="0px"
	 width="512px" height="512px" viewBox="0 0 512 512" enable-background="new 0 0 512 512" xml:space="preserve">
<g>
	<path d="M303.375,196.469C299.219,94.875,272.188,0,224,0s-75.219,94.875-79.375,196.469C134.875,201.938,128,212,128,224
		c0,17.688,14.313,32,32,32s32-14.313,32-32c0-11.344-6.25-20.844-15.125-26.531C181.063,94.469,208.406,32,224,32
		s42.938,62.5,47.156,165.5C262.25,203.156,256,212.656,256,224c0,17.688,14.313,32,32,32s32-14.313,32-32
		C320,212,313.125,201.938,303.375,196.469z"/>
	<g>
		<polygon points="372.906,256 405.344,256 384,128 320,128 320,160 356.906,160 		"/>
		<polygon points="37.781,480 91.125,160 128,160 128,128 64,128 0,512 288,512 288,480 		"/>
	</g>
	<path d="M480,384v-32c0-35.281-28.688-64-64-64s-64,28.719-64,64v32c-17.688,0-32,14.313-32,32v64c0,17.688,14.313,32,32,32h128
		c17.688,0,32-14.313,32-32v-64C512,398.313,497.688,384,480,384z M432,457.625V472h-32v-14.375c-4.844-4.406-8-10.563-8-17.625
		c0-13.25,10.75-24,24-24s24,10.75,24,24C440,447.063,436.844,453.219,432,457.625z M448,384h-64v-32c0-17.656,14.375-32,32-32
		s32,14.344,32,32V384z"/>
</g>
</svg>
