<?xml version="1.0" encoding="utf-8"?>
<!-- Generator: Adobe Illustrator 16.0.0, SVG Export Plug-In . SVG Version: 6.00 Build 0)  -->
<!DOCTYPE svg PUBLIC "-//W3C//DTD SVG 1.1//EN" "http://www.w3.org/Graphics/SVG/1.1/DTD/svg11.dtd">
<svg version="1.1" id="Layer_1" xmlns="http://www.w3.org/2000/svg" xmlns:xlink="http://www.w3.org/1999/xlink" x="0px" y="0px"
	 width="512px" height="512px" viewBox="0 0 512 512" enable-background="new 0 0 512 512" xml:space="preserve">
<g>
	<path d="M480.006,0h-64c-15.469,0-28.719,11.063-31.469,26.281L342.756,256H147.787L60.631,81.688
		C52.74,65.875,33.553,59.469,17.693,67.375C1.881,75.281-4.525,94.5,3.381,110.313l96,192c5.422,10.844,16.5,17.688,28.625,17.688
		H331.1l-5.813,32H160.006c-17.672,0-32,14.313-32,32s14.328,32,32,32h192c15.469,0,28.719-11.063,31.469-26.281L442.725,64h37.281
		c17.688,0,32-14.313,32-32S497.693,0,480.006,0z"/>
	<path d="M192.006,448c-17.672,0-32,14.313-32,32s14.328,32,32,32s32-14.313,32-32S209.678,448,192.006,448z"/>
	<path d="M320.006,448c-17.688,0-32,14.313-32,32s14.313,32,32,32s32-14.313,32-32S337.693,448,320.006,448z"/>
</g>
</svg>
