<?xml version="1.0" encoding="iso-8859-1"?>
<!-- Generator: Adobe Illustrator 18.1.1, SVG Export Plug-In . SVG Version: 6.00 Build 0)  -->
<svg version="1.1" id="Capa_1" xmlns="http://www.w3.org/2000/svg" xmlns:xlink="http://www.w3.org/1999/xlink" x="0px" y="0px"
	 viewBox="0 0 466.044 466.044" style="enable-background:new 0 0 466.044 466.044;" xml:space="preserve">
<g>
	<g>
		<path style="fill:#010002;" d="M233.022,373.914c128.692,0,233.022-63.078,233.022-140.893S361.713,92.129,233.022,92.129
			S0,155.207,0,233.022S104.33,373.914,233.022,373.914z M156.979,277.266l-22.354,18.866c-1.52,1.284-3.381,1.918-5.243,1.918
			c-2.309,0-4.609-0.984-6.218-2.886c-2.894-3.43-2.463-8.559,0.967-11.453l22.354-18.866c3.422-2.886,8.559-2.463,11.453,0.967
			C160.848,269.243,160.409,274.364,156.979,277.266z M398.479,207.945c3.422-2.894,8.559-2.463,11.453,0.967
			c2.894,3.43,2.463,8.559-0.967,11.453l-22.354,18.866c-1.52,1.284-3.382,1.918-5.243,1.918c-2.309,0-4.609-0.984-6.218-2.886
			c-2.894-3.43-2.463-8.559,0.967-11.453L398.479,207.945z M331.264,140.844c1.886-4.072,6.722-5.853,10.795-3.942l26.532,12.331
			c4.072,1.886,5.836,6.722,3.942,10.795c-1.374,2.967-4.308,4.706-7.373,4.706c-1.146,0-2.317-0.244-3.422-0.756l-26.532-12.331
			C331.142,149.745,329.378,144.916,331.264,140.844z M328.646,265.813c2.894,3.43,2.463,8.559-0.967,11.453l-22.354,18.866
			c-1.52,1.284-3.382,1.918-5.243,1.918c-2.309,0-4.609-0.984-6.218-2.886c-2.894-3.43-2.463-8.559,0.967-11.453l22.354-18.866
			C320.615,261.96,325.753,262.374,328.646,265.813z M224.788,110.305c1.504-4.227,6.137-6.438,10.38-4.942l27.572,9.779
			c4.235,1.504,6.438,6.145,4.942,10.38c-1.187,3.333-4.316,5.414-7.657,5.414c-0.902,0-1.821-0.154-2.715-0.471l-27.572-9.779
			C225.495,119.189,223.284,114.54,224.788,110.305z M166.051,183.226c0,6.381,3.064,12.445,8.389,17.753
			c4.528-7.389,14.274-14.542,34.091-17.753c6.893-1.114,14.94-1.78,24.491-1.78c9.551,0,17.598,0.667,24.491,1.78
			c19.817,3.211,29.564,10.364,34.091,17.753c5.324-5.316,8.389-11.38,8.389-17.753c0-4.487,3.642-8.129,8.129-8.129
			c4.487,0,8.129,3.642,8.129,8.129c0,30.019-36.562,53.535-83.229,53.535s-83.228-23.516-83.228-53.535
			c0-4.487,3.642-8.129,8.129-8.129S166.051,178.731,166.051,183.226z M123.879,132.87l26.597-12.168
			c4.072-1.878,8.901-0.065,10.77,4.007c1.87,4.081,0.073,8.909-4.007,10.77l-26.597,12.168c-1.097,0.504-2.243,0.74-3.381,0.74
			c-3.081,0-6.031-1.764-7.397-4.747C118.003,139.551,119.799,134.731,123.879,132.87z M50.982,226.812l22.354-18.866
			c3.43-2.894,8.559-2.463,11.453,0.967c2.894,3.43,2.463,8.559-0.967,11.453l-22.354,18.866c-1.52,1.284-3.381,1.918-5.243,1.918
			c-2.309,0-4.609-0.984-6.218-2.886C47.113,234.835,47.552,229.705,50.982,226.812z"/>
	</g>
</g>
<g>
</g>
<g>
</g>
<g>
</g>
<g>
</g>
<g>
</g>
<g>
</g>
<g>
</g>
<g>
</g>
<g>
</g>
<g>
</g>
<g>
</g>
<g>
</g>
<g>
</g>
<g>
</g>
<g>
</g>
</svg>
