<?xml version="1.0" encoding="iso-8859-1"?>
<!-- Generator: Adobe Illustrator 18.1.1, SVG Export Plug-In . SVG Version: 6.00 Build 0)  -->
<svg version="1.1" id="Capa_1" xmlns="http://www.w3.org/2000/svg" xmlns:xlink="http://www.w3.org/1999/xlink" x="0px" y="0px"
	 viewBox="0 0 20.775 20.775" style="enable-background:new 0 0 20.775 20.775;" xml:space="preserve">
<g>
	<g>
		<g>
			<path style="fill:#010002;" d="M10.332,0C4.596,0.031-0.03,4.706,0.001,10.443c0.03,5.737,4.708,10.362,10.442,10.332
				c5.74-0.031,10.363-4.706,10.332-10.442C20.743,4.594,16.071-0.03,10.332,0z M10.435,19.082
				c-4.802,0.024-8.711-3.846-8.738-8.648c-0.025-4.801,3.842-8.716,8.644-8.742c4.803-0.026,8.717,3.848,8.743,8.647
				C19.109,15.143,15.236,19.056,10.435,19.082z M11.974,14.933l-0.043-7.765L7.924,7.194l0.008,1.699L9.02,8.887l0.032,6.063
				l-1.154,0.004l0.009,1.623l5.029-0.027l-0.01-1.622L11.974,14.933z M10.447,6.022c0.98-0.004,1.571-0.66,1.566-1.466
				C11.987,3.73,11.411,3.1,10.468,3.104c-0.94,0.006-1.553,0.644-1.549,1.47C8.924,5.379,9.522,6.029,10.447,6.022z"/>
		</g>
	</g>
</g>
<g>
</g>
<g>
</g>
<g>
</g>
<g>
</g>
<g>
</g>
<g>
</g>
<g>
</g>
<g>
</g>
<g>
</g>
<g>
</g>
<g>
</g>
<g>
</g>
<g>
</g>
<g>
</g>
<g>
</g>
</svg>
