<?xml version="1.0" encoding="utf-8"?>
<!-- Generator: Adobe Illustrator 16.0.0, SVG Export Plug-In . SVG Version: 6.00 Build 0)  -->
<!DOCTYPE svg PUBLIC "-//W3C//DTD SVG 1.1//EN" "http://www.w3.org/Graphics/SVG/1.1/DTD/svg11.dtd">
<svg version="1.1" id="Layer_1" xmlns="http://www.w3.org/2000/svg" xmlns:xlink="http://www.w3.org/1999/xlink" x="0px" y="0px"
	 width="512px" height="512px" viewBox="0 0 512 512" enable-background="new 0 0 512 512" xml:space="preserve">
<path d="M32,480h480v32H32H0V0h32V480z M512,72H317.563c1.406,2.375,2.438,5,2.438,8v48c14.844,0,26.781,10.313,30.375,24H512v16
	h-34.438c1.406,2.375,2.438,5,2.438,8v48c14.844,0,26.781,10.313,30.375,24H512v8v8v56c0,9.719-4.563,18.125-11.406,24H512v16h-32
	v40c0,8.844-7.156,16-16,16s-16-7.156-16-16v-40H190.375c-3.625,13.688-15.531,24-30.375,24v48c0,2.969-1.031,5.625-2.438,8H512v16
	H64v-16h66.438c-1.406-2.375-2.438-5.031-2.438-8v-48c-14.844,0-26.75-10.313-30.375-24H64v-16h32v-56
	c0-9.719,4.563-18.125,11.406-24H64v-16h64v-40c0-8.844,7.156-16,16-16s16,7.156,16,16v40h107.406
	C260.563,242.125,256,233.719,256,224v-56H64v-16h193.625c3.625-13.688,15.531-24,30.375-24V80c0-3,1.031-5.625,2.438-8H64V56h448
	V72z M340.594,248h77.031c3.594-13.688,15.531-24,30.375-24v-48c0-3,1.031-5.625,2.438-8H352v56
	C352,233.719,347.438,242.125,340.594,248z M304,320c-8.844,0-16-7.156-16-16v-40H180.594c6.844,5.875,11.406,14.281,11.406,24v56
	h235.406C420.563,338.125,416,329.719,416,320v-56h-96v40C320,312.844,312.844,320,304,320z"/>
</svg>
