<?xml version="1.0" encoding="utf-8"?>
<!-- Generator: Adobe Illustrator 16.0.0, SVG Export Plug-In . SVG Version: 6.00 Build 0)  -->
<!DOCTYPE svg PUBLIC "-//W3C//DTD SVG 1.1//EN" "http://www.w3.org/Graphics/SVG/1.1/DTD/svg11.dtd">
<svg version="1.1" id="Layer_1" xmlns="http://www.w3.org/2000/svg" xmlns:xlink="http://www.w3.org/1999/xlink" x="0px" y="0px"
	 width="512px" height="512px" viewBox="0 0 512 512" enable-background="new 0 0 512 512" xml:space="preserve">
<path d="M176,448H80V256h96V448z M304,160h-96v288h96V160z M432,64h-96v384h96V64z M512,0v512H0V0H512z M480,32H32v56h288v16H32v48
	h160v16H32v48h160v16H32v48h32v16H32v48h32v16H32v48h32v16H32v56h448v-56h-32v-16h32v-48h-32v-16h32v-48h-32v-16h32v-48h-32v-16h32
	v-48h-32v-16h32v-48h-32V88h32V32z"/>
</svg>
