<?xml version="1.0" encoding="utf-8"?>
<!-- Generator: Adobe Illustrator 16.0.0, SVG Export Plug-In . SVG Version: 6.00 Build 0)  -->
<!DOCTYPE svg PUBLIC "-//W3C//DTD SVG 1.1//EN" "http://www.w3.org/Graphics/SVG/1.1/DTD/svg11.dtd">
<svg version="1.1" id="Layer_1" xmlns="http://www.w3.org/2000/svg" xmlns:xlink="http://www.w3.org/1999/xlink" x="0px" y="0px"
	 width="512px" height="512px" viewBox="0 0 512 512" enable-background="new 0 0 512 512" xml:space="preserve">
<path fill="#010101" d="M288,253.156c37.125-36.625,65-49.156,130.25-33.969c7.438-6.875,14.438-13.5,20.313-19.375
	C512.813,125.594,504.063,47.922,512,0c-47.938,7.969-214.188,1.141-288.375,75.359C158.063,140.938,95.375,313.5,80,384L0,512h48
	l64-112c56.563-14.75,180.875-73.375,259.813-139.875C358,251.688,305.25,246.594,288,253.156z M124.906,352.938
	C154.125,309.375,248,129,431.938,46.672C410.75,70.484,171.938,290.938,124.906,352.938c-4.469,6.625-6.906,10.5-6.906,10.5
	C119.25,360.813,121.656,357.25,124.906,352.938z"/>
</svg>
