<?xml version="1.0" encoding="utf-8"?>
<!-- Generator: Adobe Illustrator 16.0.0, SVG Export Plug-In . SVG Version: 6.00 Build 0)  -->
<!DOCTYPE svg PUBLIC "-//W3C//DTD SVG 1.1//EN" "http://www.w3.org/Graphics/SVG/1.1/DTD/svg11.dtd">
<svg version="1.1" id="Layer_1" xmlns="http://www.w3.org/2000/svg" xmlns:xlink="http://www.w3.org/1999/xlink" x="0px" y="0px"
	 width="512px" height="512px" viewBox="0 0 512 512" enable-background="new 0 0 512 512" xml:space="preserve">
<path d="M480,120h-64V88h-48c0-2.063-0.375-4.125-1.219-6.156C348.063,37,304.594,8,256,8c-48.625,0-92.063,29-110.75,73.844
	C144.375,83.875,144,85.938,144,88H96v32H32c-17.688,0-32,14.313-32,32v64c0,17.688,14.313,32,32,32h192
	c-0.125-11.531,5.938-22.25,15.875-28.063c9.969-5.781,22.281-5.781,32.25,0C282.063,225.75,288.156,236.469,288,248h192
	c17.688,0,32-14.313,32-32v-64C512,134.313,497.688,120,480,120z M160,120v-16c6.25,0,12.188-3.688,14.75-9.844
	C188.469,61.25,220.375,40,256,40s67.5,21.25,81.219,54.156C339.781,100.281,345.75,104,352,104v16H160z M304,280h176v224H32V280
	h176c-5.969,20.438,1.656,42.438,19,54.781c17.375,12.344,40.625,12.344,58,0C302.344,322.438,309.969,300.438,304,280z"/>
</svg>
