<?xml version="1.0" encoding="utf-8"?>
<!-- Generator: Adobe Illustrator 16.0.0, SVG Export Plug-In . SVG Version: 6.00 Build 0)  -->
<!DOCTYPE svg PUBLIC "-//W3C//DTD SVG 1.1//EN" "http://www.w3.org/Graphics/SVG/1.1/DTD/svg11.dtd">
<svg version="1.1" id="Layer_1" xmlns="http://www.w3.org/2000/svg" xmlns:xlink="http://www.w3.org/1999/xlink" x="0px" y="0px"
	 width="512px" height="512px" viewBox="0 0 512 512" enable-background="new 0 0 512 512" xml:space="preserve">
<path d="M480,128h-96v32h-32V0H160v160h-32v-32H32c-17.688,0-32,14.313-32,32v320c0,17.688,14.313,32,32,32h96v-32h256v32h96
	c17.688,0,32-14.313,32-32V160C512,142.313,497.688,128,480,128z M112,448H48c-8.844,0-16-7.156-16-16v-64c0-8.844,7.156-16,16-16
	s16,7.156,16,16v48h48c8.844,0,16,7.156,16,16S120.844,448,112,448z M112,224H64v48c0,8.844-7.156,16-16,16s-16-7.156-16-16v-64
	c0-8.844,7.156-16,16-16h64c8.844,0,16,7.156,16,16S120.844,224,112,224z M320,160H192V32h128V160z M480,432c0,8.844-7.156,16-16,16
	h-64c-8.844,0-16-7.156-16-16s7.156-16,16-16h48v-48c0-8.844,7.156-16,16-16s16,7.156,16,16V432z M480,272c0,8.844-7.156,16-16,16
	s-16-7.156-16-16v-48h-48c-8.844,0-16-7.156-16-16s7.156-16,16-16h64c8.844,0,16,7.156,16,16V272z"/>
</svg>
