<?xml version="1.0" encoding="utf-8"?>
<!-- Generator: Adobe Illustrator 16.0.0, SVG Export Plug-In . SVG Version: 6.00 Build 0)  -->
<!DOCTYPE svg PUBLIC "-//W3C//DTD SVG 1.1//EN" "http://www.w3.org/Graphics/SVG/1.1/DTD/svg11.dtd">
<svg version="1.1" id="Layer_1" xmlns="http://www.w3.org/2000/svg" xmlns:xlink="http://www.w3.org/1999/xlink" x="0px" y="0px"
	 width="512px" height="512px" viewBox="0 0 512 512" enable-background="new 0 0 512 512" xml:space="preserve">
<path d="M480,159.969h-32v-32h-13.875l-4-7.531c-18.25-34.25-45.813-61.313-78.469-79.438c-1-11.906-8.406-22.813-20.344-27.313
	c-48.25-18.219-102.344-18.25-150.625,0c-11.938,4.5-19.375,15.406-20.375,27.344c-32.625,18.125-60.188,45.188-78.438,79.406
	l-4,7.531H64v32H32c-17.594,0-32,14.406-32,32v256c0,17.594,14.406,32,32,32v16c0,8.844,7.156,16,16,16h32c8.844,0,16-7.156,16-16
	v-16h320v16c0,8.844,7.156,16,16,16h32c8.844,0,16-7.156,16-16v-16c17.594,0,32-14.406,32-32v-256
	C512,174.375,497.594,159.969,480,159.969z M128,159.969v-32h-13.188c14.75-24.406,35.063-44.25,59.063-58
	c5.281,3.625,11.594,5.688,18.125,5.688c3.75,0,7.563-0.688,11.281-2.094c33.781-12.719,71.719-12.719,105.406,0
	c10.188,3.781,20.625,1.688,28.906-3.875c24.219,13.75,44.719,33.656,59.594,58.281H384v32H128z"/>
</svg>
