<?xml version="1.0" encoding="utf-8"?>
<!-- Generator: Adobe Illustrator 16.0.0, SVG Export Plug-In . SVG Version: 6.00 Build 0)  -->
<!DOCTYPE svg PUBLIC "-//W3C//DTD SVG 1.1//EN" "http://www.w3.org/Graphics/SVG/1.1/DTD/svg11.dtd">
<svg version="1.1" id="Layer_1" xmlns="http://www.w3.org/2000/svg" xmlns:xlink="http://www.w3.org/1999/xlink" x="0px" y="0px"
	 width="512px" height="512px" viewBox="0 0 512 512" enable-background="new 0 0 512 512" xml:space="preserve">
<path d="M224,224h64v64h-64V224z M320,272v32c0,8.844-7.156,16-16,16h-96c-8.844,0-16-7.156-16-16v-32H0v176
	c0,35.344,28.656,64,64,64h384c35.344,0,64-28.656,64-64V272H320z M160,96V64c0-17.625,14.359-32,32-32h128
	c17.656,0,32,14.375,32,32v32h32V64c0-35.344-28.656-64-64-64H192c-35.344,0-64,28.656-64,64v32H160z M448,128h-64h-32H160h-32H64
	c-35.344,0-64,28.656-64,64v48h192v-32c0-8.844,7.156-16,16-16h96c8.844,0,16,7.156,16,16v32h192v-48
	C512,156.656,483.344,128,448,128z"/>
</svg>
