<?xml version="1.0" encoding="utf-8"?>
<!-- Generator: Adobe Illustrator 16.0.0, SVG Export Plug-In . SVG Version: 6.00 Build 0)  -->
<!DOCTYPE svg PUBLIC "-//W3C//DTD SVG 1.1//EN" "http://www.w3.org/Graphics/SVG/1.1/DTD/svg11.dtd">
<svg version="1.1" id="Layer_1" xmlns="http://www.w3.org/2000/svg" xmlns:xlink="http://www.w3.org/1999/xlink" x="0px" y="0px"
	 width="512px" height="512px" viewBox="0 0 512 512" enable-background="new 0 0 512 512" xml:space="preserve">
<path d="M448,128V96c0-52.938-43.063-96-96-96H160c-52.938,0-96,43.063-96,96v32c-35.344,0-64,28.656-64,64v192
	c0,35.344,28.656,64,64,64v32c0,17.688,14.313,32,32,32s32-14.313,32-32v-32h256v32c0,17.688,14.313,32,32,32s32-14.313,32-32v-32
	c35.344,0,64-28.656,64-64V192C512,156.656,483.344,128,448,128z M128,352c0,17.688-14.313,32-32,32s-32-14.313-32-32V224
	c0-17.688,14.313-32,32-32s32,14.313,32,32V352z M128,128V96c0-17.625,14.375-32,32-32h192c17.656,0,32,14.375,32,32v32H128z
	 M448,352c0,17.688-14.313,32-32,32s-32-14.313-32-32V224c0-17.688,14.313-32,32-32s32,14.313,32,32V352z"/>
</svg>
