<?xml version="1.0" encoding="utf-8"?>
<!-- Generator: Adobe Illustrator 16.0.0, SVG Export Plug-In . SVG Version: 6.00 Build 0)  -->
<!DOCTYPE svg PUBLIC "-//W3C//DTD SVG 1.1//EN" "http://www.w3.org/Graphics/SVG/1.1/DTD/svg11.dtd">
<svg version="1.1" id="Layer_1" xmlns="http://www.w3.org/2000/svg" xmlns:xlink="http://www.w3.org/1999/xlink" x="0px" y="0px"
	 width="512px" height="512px" viewBox="0 0 512 512" enable-background="new 0 0 512 512" xml:space="preserve">
<path d="M288,256h224v192c0,35.344-28.656,64-64,64H64c-35.344,0-64-28.656-64-64V256h224v32c0,17.688,14.313,32,32,32
	s32-14.313,32-32V256z M512,192v32H0v-32c0-35.344,28.656-64,64-64h32v-16c0-8.844,7.156-16,16-16h16V64c0-35.344,28.656-64,64-64
	h128c35.344,0,64,28.656,64,64v32h16c8.844,0,16,7.156,16,16v16h32C483.344,128,512,156.656,512,192z M192,112v16h128v-16
	c0-8.844,7.156-16,16-16h16V64c0-17.625-14.344-32-32-32H192c-17.641,0-32,14.375-32,32v32h16C184.844,96,192,103.156,192,112z"/>
</svg>
