<?xml version="1.0" encoding="utf-8"?>
<!-- Generator: Adobe Illustrator 16.0.0, SVG Export Plug-In . SVG Version: 6.00 Build 0)  -->
<!DOCTYPE svg PUBLIC "-//W3C//DTD SVG 1.1//EN" "http://www.w3.org/Graphics/SVG/1.1/DTD/svg11.dtd">
<svg version="1.1" id="Layer_1" xmlns="http://www.w3.org/2000/svg" xmlns:xlink="http://www.w3.org/1999/xlink" x="0px" y="0px"
	 width="512px" height="512px" viewBox="0 0 512 512" enable-background="new 0 0 512 512" xml:space="preserve">
<path d="M128,96V64c0-35.344,28.656-64,64-64h128c35.344,0,64,28.656,64,64v32h-32V64c0-17.625-14.344-32-32-32H192
	c-17.641,0-32,14.375-32,32v32H128z M448,384H304v32h-96v-32H64c-11.281,0-21.938-2.313-32-5.906V448c0,35.344,28.656,64,64,64h320
	c35.344,0,64-28.656,64-64v-69.906C469.938,381.688,459.281,384,448,384z M448,128H64c-35.344,0-64,28.656-64,64v96
	c0,35.344,28.656,64,64,64h144v-32h96v32h144c35.344,0,64-28.656,64-64v-96C512,156.656,483.344,128,448,128z"/>
</svg>
