<?xml version="1.0" encoding="utf-8"?>
<!-- Generator: Adobe Illustrator 16.0.0, SVG Export Plug-In . SVG Version: 6.00 Build 0)  -->
<!DOCTYPE svg PUBLIC "-//W3C//DTD SVG 1.1//EN" "http://www.w3.org/Graphics/SVG/1.1/DTD/svg11.dtd">
<svg version="1.1" id="Layer_1" xmlns="http://www.w3.org/2000/svg" xmlns:xlink="http://www.w3.org/1999/xlink" x="0px" y="0px"
	 width="512px" height="512px" viewBox="0 0 512 512" enable-background="new 0 0 512 512" xml:space="preserve">
<path d="M256,256v-64h64v64H256z M128,192H64v64h64V192z M32,380.813V160h352v64h32V99.188C416,79.75,400.5,64,381.344,64H368v16
	c0,17.625-14.344,32-32,32s-32-14.375-32-32V64H112v16c0,17.625-14.344,32-32,32S48,97.625,48,80V64H34.688
	C15.5,64,0,79.75,0,99.188v281.625C0,400.188,15.5,416,34.688,416H224v-32H34.688C33.219,384,32,382.5,32,380.813z M80,96
	c8.844,0,16-7.156,16-16V16c0-8.844-7.156-16-16-16S64,7.156,64,16v64C64,88.844,71.156,96,80,96z M336,96c8.844,0,16-7.156,16-16
	V16c0-8.844-7.156-16-16-16s-16,7.156-16,16v64C320,88.844,327.156,96,336,96z M429.25,338.75c-6.25-6.25-16.375-6.25-22.625,0
	L384,361.375l-22.625-22.625c-6.25-6.25-16.375-6.25-22.625,0s-6.25,16.375,0,22.625L361.375,384l-22.625,22.625
	c-6.25,6.25-6.25,16.375,0,22.625s16.375,6.25,22.625,0L384,406.625l22.625,22.625c6.25,6.25,16.375,6.25,22.625,0
	s6.25-16.375,0-22.625L406.625,384l22.625-22.625C435.5,355.125,435.5,345,429.25,338.75z M512,384c0,70.688-57.313,128-128,128
	s-128-57.313-128-128s57.313-128,128-128S512,313.313,512,384z M480,384c0-52.938-43.063-96-96-96s-96,43.063-96,96s43.063,96,96,96
	S480,436.938,480,384z M160,352h64v-64h-64V352z M160,256h64v-64h-64V256z M64,352h64v-64H64V352z"/>
</svg>
