<?xml version="1.0" encoding="utf-8"?>
<!-- Generator: Adobe Illustrator 16.0.0, SVG Export Plug-In . SVG Version: 6.00 Build 0)  -->
<!DOCTYPE svg PUBLIC "-//W3C//DTD SVG 1.1//EN" "http://www.w3.org/Graphics/SVG/1.1/DTD/svg11.dtd">
<svg version="1.1" id="Layer_1" xmlns="http://www.w3.org/2000/svg" xmlns:xlink="http://www.w3.org/1999/xlink" x="0px" y="0px"
	 width="512px" height="512px" viewBox="0 0 512 512" enable-background="new 0 0 512 512" xml:space="preserve">
<path d="M511.5,112c0,29.938-11.906,57-31.063,77.094c-27.156-73.406-89.063-129.875-165.813-149.406
	C335.156,15.594,365.344,0,399.5,0C461.375,0,511.5,50.125,511.5,112z M196.359,39.688C175.828,15.594,145.641,0,111.5,0
	C49.641,0-0.5,50.125-0.5,112c0,29.938,11.922,57,31.063,77.094C57.719,115.688,119.641,59.219,196.359,39.688z M463.5,272
	c0,50.531-18.031,96.813-48,132.875V464c0,26.5-21.5,48-48,48c-24.563,0-44.594-18.531-47.438-42.344
	c-20.344,6.656-42,10.344-64.563,10.344s-44.234-3.688-64.563-10.344C188.094,493.469,168.063,512,143.5,512c-26.5,0-48-21.5-48-48
	v-59.125c-29.953-36.063-48-82.344-48-132.875c0-114.875,93.125-208,208-208S463.5,157.125,463.5,272z M431.5,272
	c0-97.063-78.969-176-176-176c-97.047,0-176,78.938-176,176c0,97.031,78.953,176,176,176C352.531,448,431.5,369.031,431.5,272z
	 M271.5,128h-32v144c0,2.813,0.734,5.563,2.141,8l64.016,110.844l27.688-16L271.5,267.719V128z"/>
</svg>
