<?xml version="1.0" encoding="utf-8"?>
<!-- Generator: Adobe Illustrator 16.0.0, SVG Export Plug-In . SVG Version: 6.00 Build 0)  -->
<!DOCTYPE svg PUBLIC "-//W3C//DTD SVG 1.1//EN" "http://www.w3.org/Graphics/SVG/1.1/DTD/svg11.dtd">
<svg version="1.1" id="Layer_1" xmlns="http://www.w3.org/2000/svg" xmlns:xlink="http://www.w3.org/1999/xlink" x="0px" y="0px"
	 width="512px" height="512px" viewBox="0 0 512 512" enable-background="new 0 0 512 512" xml:space="preserve">
<path d="M224,0h64v64h-64V0z M224,512h64v-64h-64V512z M64,224H0v64h64V224z M448,224v64h64v-64H448z M354.156,458l16,27.688
	l27.688-16l-16-27.688L354.156,458z M114.141,42.313l16,27.688l27.719-16l-16-27.688L114.141,42.313z M442,381.844l27.719,16
	l15.969-27.719L458,354.156L442,381.844z M26.297,141.875l27.719,16l16-27.75l-27.719-16L26.297,141.875z M397.844,42.25
	l-27.719-15.938L354.156,54l27.688,16L397.844,42.25z M114.141,469.688l27.719,16l16-27.719l-27.719-16L114.141,469.688z
	 M485.688,141.813l-16-27.688l-27.688,16l16,27.688L485.688,141.813z M26.297,370.125l16,27.719l27.719-16l-16-27.719
	L26.297,370.125z M256,224c-17.672,0-32,14.313-32,32s14.328,32,32,32c17.688,0,32-14.313,32-32S273.688,224,256,224z M224,220.5
	c8.516-7.688,19.656-12.5,32-12.5s23.484,4.813,32,12.5V96h-64V220.5z M304,256c0,12.344-4.813,23.5-12.5,32H416v-64H291.5
	C299.188,232.5,304,243.656,304,256z"/>
</svg>
