<?xml version="1.0" encoding="utf-8"?>
<!-- Generator: Adobe Illustrator 16.0.0, SVG Export Plug-In . SVG Version: 6.00 Build 0)  -->
<!DOCTYPE svg PUBLIC "-//W3C//DTD SVG 1.1//EN" "http://www.w3.org/Graphics/SVG/1.1/DTD/svg11.dtd">
<svg version="1.1" id="Layer_1" xmlns="http://www.w3.org/2000/svg" xmlns:xlink="http://www.w3.org/1999/xlink" x="0px" y="0px"
	 width="512px" height="512px" viewBox="0 0 512 512" enable-background="new 0 0 512 512" xml:space="preserve">
<path d="M96,272l-32,0.031l-0.063-32H96V272z M97.719,146.125l-16,27.75l27.719,16l16-27.75L97.719,146.125z M448,256.031
	c0-106.031-85.969-192-192-192v384C362.031,448.031,448,362.063,448,256.031z M173.844,81.719l-27.719,16l16,27.719l27.719-16
	L173.844,81.719z M109.438,322.156l-27.75,16.031l16.031,27.688l27.719-16.031L109.438,322.156z M256,512
	C114.625,512,0,397.375,0,256S114.625,0,256,0s256,114.625,256,256S397.375,512,256,512z M256,480c123.5,0,224-100.5,224-224
	S379.5,32,256,32S32,132.5,32,256S132.5,480,256,480z M162.156,386.563l-16.031,27.75l27.719,15.969l16-27.719L162.156,386.563z"/>
</svg>
