<?xml version="1.0" encoding="utf-8"?>
<!-- Generator: Adobe Illustrator 16.0.0, SVG Export Plug-In . SVG Version: 6.00 Build 0)  -->
<!DOCTYPE svg PUBLIC "-//W3C//DTD SVG 1.1//EN" "http://www.w3.org/Graphics/SVG/1.1/DTD/svg11.dtd">
<svg version="1.1" id="Layer_1" xmlns="http://www.w3.org/2000/svg" xmlns:xlink="http://www.w3.org/1999/xlink" x="0px" y="0px"
	 width="512px" height="512px" viewBox="0 0 512 512" enable-background="new 0 0 512 512" xml:space="preserve">
<path d="M447.5,0h-384c-35.344,0-64,28.656-64,64v384c0,35.344,28.656,64,64,64h384c35.344,0,64-28.656,64-64V64
	C511.5,28.656,482.844,0,447.5,0z M479.5,224h-32v64h32v160c0,17.656-14.344,32-32,32h-160v-32h-64v32h-160
	c-17.641,0-32-14.344-32-32V288h32v-64h-32V64c0-17.625,14.359-32,32-32h160v32h64V32h160c17.656,0,32,14.375,32,32V224z
	 M421.781,160c8.844,15.313,3.594,34.875-11.719,43.719l-138.563,80c-4.953,2.844-10.469,4.281-16,4.281s-11.047-1.438-16-4.281
	l-138.563-80C85.625,194.875,80.391,175.313,89.219,160s28.328-20.563,43.719-11.719L255.5,219.063l122.563-70.781
	C393.313,139.438,412.906,144.688,421.781,160z"/>
</svg>
