<?xml version="1.0" encoding="utf-8"?>
<!-- Generator: Adobe Illustrator 16.0.0, SVG Export Plug-In . SVG Version: 6.00 Build 0)  -->
<!DOCTYPE svg PUBLIC "-//W3C//DTD SVG 1.1//EN" "http://www.w3.org/Graphics/SVG/1.1/DTD/svg11.dtd">
<svg version="1.1" id="Layer_1" xmlns="http://www.w3.org/2000/svg" xmlns:xlink="http://www.w3.org/1999/xlink" x="0px" y="0px"
	 width="512px" height="512px" viewBox="0 0 512 512" enable-background="new 0 0 512 512" xml:space="preserve">
<path fill="#010101" d="M318.438,194.344c-26.563,21.672-48.313,36.156-59,36.141c-42.469,0.016-90.094-38.641-123.906-32.172
	c-33.844,6.469-55.5,83.484-55.5,83.484L9.938,296.156C124,123.375,305.344,12.406,512,0c0,0-16.188,26.734-49.156,59.781
	c-20.406-0.063-41.969-1.578-59.719-6.328c5.563,11.078,17.844,23.156,32.594,33.313c-7.75,7.594-15.688,15.281-23.844,23.109
	c-23,0.406-48.313-0.766-68.781-6.25c6.188,12.219,20.438,25.563,37.156,36.25c-5.031,4.688-10.031,9.25-14.969,13.797
	c-27.906,2.156-69.938,3.422-100.563-4.781C272.875,164.969,295,183.141,318.438,194.344z M224,384h-64v-32h16
	c8.844,0,16-7.156,16-16s-7.156-16-16-16H80c-8.844,0-16,7.156-16,16s7.156,16,16,16h16v32H32c-17.688,0-32,14.313-32,32v64
	c0,17.688,14.313,32,32,32h192c17.688,0,32-14.313,32-32v-64C256,398.313,241.688,384,224,384z"/>
</svg>
