<?xml version="1.0" encoding="utf-8"?>
<!-- Generator: Adobe Illustrator 16.0.0, SVG Export Plug-In . SVG Version: 6.00 Build 0)  -->
<!DOCTYPE svg PUBLIC "-//W3C//DTD SVG 1.1//EN" "http://www.w3.org/Graphics/SVG/1.1/DTD/svg11.dtd">
<svg version="1.1" id="Layer_1" xmlns="http://www.w3.org/2000/svg" xmlns:xlink="http://www.w3.org/1999/xlink" x="0px" y="0px"
	 width="512px" height="512px" viewBox="0 0 512 512" enable-background="new 0 0 512 512" xml:space="preserve">
<path d="M153.422,16h-26.359V0h26.359V16z M100.719,0H74.359v16h26.359V0z M416.938,0h-26.344v16h26.344V0z M364.25,0h-26.375v16
	h26.375V0z M469.656,0h-26.375v16h26.375V0z M311.531,0h-26.359v16h26.359V0z M206.125,0h-26.359v16h26.359V0z M496,480H264v-16h-16
	v16H32V264h16v-16H32V16h16V0H32H0v512h512v-32v-16h-16V480z M496,437.625h16v-26.344h-16V437.625z M496,384.938h16v-26.375h-16
	V384.938z M496,68.719h16V42.344h-16V68.719z M496,121.406h16V95.063h-16V121.406z M496,226.813h16v-26.344h-16V226.813z
	 M496,332.25h16v-26.375h-16V332.25z M496,174.125h16V147.75h-16V174.125z M496,0v16h16V0H496z M248,437.625h16v-26.344h-16V437.625
	z M264,358.563h-16v26.375h16V358.563z M248,121.406h16V95.063h-16V121.406z M264,253.188h-5.188V248h-26.344v16H248v15.531h16
	V253.188z M264,42.344h-16v26.375h16V42.344z M264,305.875h-16v26.375h16V305.875z M258.828,16H264V0h-5.172H248h-15.531v16H248
	H258.828z M100.719,248H74.359v16h26.359V248z M469.656,264v-16h-26.375v16H469.656z M496,253.188V264v15.531h16V264v-10.813V248
	h-16V253.188z M234.922,209.719L248,220.188v6.625h8.313l28.875,23.125V264h17.594l98.781,79.031l77.219-270.219l-61.563-17.625
	l-50.781,177.781L264,151v-3.25h-4.094l-46.828-37.469L144.219,248h-17.156v16h9.156L67.375,401.688l57.25,28.625L234.922,209.719z"
	/>
</svg>
