<?xml version="1.0" encoding="utf-8"?>
<!-- Generator: Adobe Illustrator 16.0.0, SVG Export Plug-In . SVG Version: 6.00 Build 0)  -->
<!DOCTYPE svg PUBLIC "-//W3C//DTD SVG 1.1//EN" "http://www.w3.org/Graphics/SVG/1.1/DTD/svg11.dtd">
<svg version="1.1" id="Layer_1" xmlns="http://www.w3.org/2000/svg" xmlns:xlink="http://www.w3.org/1999/xlink" x="0px" y="0px"
	 width="512px" height="512px" viewBox="0 0 512 512" enable-background="new 0 0 512 512" xml:space="preserve">
<path d="M480,128c-14.844,0-26.781,10.313-30.375,24H400l67.844-90.438C471.594,63.094,475.688,64,480,64c17.688,0,32-14.313,32-32
	S497.688,0,480,0s-32,14.313-32,32c0,7.5,2.969,14.125,7.313,19.563L380,152h-61.625c-3.625-13.688-15.531-24-30.375-24
	c-17.672,0-32,14.313-32,32c0,7.781,3.125,14.656,7.734,20.188L204.5,263.125l-44.875-8.938C158.625,237.375,145.031,224,128,224
	c-17.672,0-32,14.313-32,32s14.328,32,32,32c12.641,0,23.328-7.5,28.531-18.125l37.766,7.563l-54.922,76.844
	C135.828,352.938,132.031,352,128,352c-17.672,0-32,14.313-32,32s14.328,32,32,32s32-14.313,32-32
	c0-7.781-3.109-14.656-7.734-20.188l59.234-82.938l44.875,8.969C257.375,306.625,270.984,320,288,320c17.688,0,32-14.313,32-32
	c0-7.5-2.969-14.125-7.313-19.563L388,168h61.625c3.625,13.688,15.531,24,30.375,24c17.688,0,32-14.313,32-32S497.688,128,480,128z
	 M300.156,258.438C296.406,256.906,292.313,256,288,256c-12.641,0-23.344,7.5-28.547,18.125l-37.75-7.531l54.922-76.906
	C280.188,191.063,283.969,192,288,192c14.844,0,26.75-10.313,30.375-24H368L300.156,258.438z M512,480v32H0V0h32v480H512z"/>
</svg>
