<?xml version="1.0" encoding="utf-8"?>
<!-- Generator: Adobe Illustrator 16.0.0, SVG Export Plug-In . SVG Version: 6.00 Build 0)  -->
<!DOCTYPE svg PUBLIC "-//W3C//DTD SVG 1.1//EN" "http://www.w3.org/Graphics/SVG/1.1/DTD/svg11.dtd">
<svg version="1.1" id="Layer_1" xmlns="http://www.w3.org/2000/svg" xmlns:xlink="http://www.w3.org/1999/xlink" x="0px" y="0px"
	 width="512px" height="512px" viewBox="0 0 512 512" enable-background="new 0 0 512 512" xml:space="preserve">
<path d="M96,48V16c0-8.844,7.156-16,16-16s16,7.156,16,16v32c0,8.844-7.156,16-16,16S96,56.844,96,48z M480,62v420
	c0,16.594-14.313,30-32,30H64c-17.672,0-32-13.406-32-30V62c0-16.563,14.328-30,32-30h16v16c0,17.625,14.359,32,32,32
	s32-14.375,32-32V32h224v16c0,17.625,14.375,32,32,32s32-14.375,32-32V32h16C465.688,32,480,45.438,480,62z M448,128H64v351.844
	L448,480V128z M400,64c8.844,0,16-7.156,16-16V16c0-8.844-7.156-16-16-16s-16,7.156-16,16v32C384,56.844,391.156,64,400,64z
	 M112,224h288c8.844,0,16-7.156,16-16s-7.156-16-16-16H112c-8.844,0-16,7.156-16,16S103.156,224,112,224z M112,320h288
	c8.844,0,16-7.156,16-16s-7.156-16-16-16H112c-8.844,0-16,7.156-16,16S103.156,320,112,320z M112,416h288c8.844,0,16-7.156,16-16
	s-7.156-16-16-16H112c-8.844,0-16,7.156-16,16S103.156,416,112,416z"/>
</svg>
