<?xml version="1.0" encoding="utf-8"?>
<!-- Generator: Adobe Illustrator 16.0.0, SVG Export Plug-In . SVG Version: 6.00 Build 0)  -->
<!DOCTYPE svg PUBLIC "-//W3C//DTD SVG 1.1//EN" "http://www.w3.org/Graphics/SVG/1.1/DTD/svg11.dtd">
<svg version="1.1" id="Layer_1" xmlns="http://www.w3.org/2000/svg" xmlns:xlink="http://www.w3.org/1999/xlink" x="0px" y="0px"
	 width="512px" height="512px" viewBox="0 0 512 512" enable-background="new 0 0 512 512" xml:space="preserve">
<path d="M96,48V16c0-8.844,7.156-16,16-16s16,7.156,16,16v32c0,8.844-7.156,16-16,16S96,56.844,96,48z M512,96v352
	c0,35.344-28.656,64-64,64H64c-35.344,0-64-28.656-64-64V96c0-35.344,28.656-64,64-64v16c0,26.469,21.531,48,48,48s48-21.531,48-48
	V32h192v16c0,26.469,21.531,48,48,48s48-21.531,48-48V32C483.344,32,512,60.656,512,96z M480,160H32v288c0,17.656,14.359,32,32,32
	h384c17.656,0,32-14.344,32-32V160z M400,64c8.844,0,16-7.156,16-16V16c0-8.844-7.156-16-16-16s-16,7.156-16,16v32
	C384,56.844,391.156,64,400,64z M112,224h288c8.844,0,16-7.156,16-16s-7.156-16-16-16H112c-8.844,0-16,7.156-16,16
	S103.156,224,112,224z M112,288h288c8.844,0,16-7.156,16-16s-7.156-16-16-16H112c-8.844,0-16,7.156-16,16S103.156,288,112,288z
	 M112,352h288c8.844,0,16-7.156,16-16s-7.156-16-16-16H112c-8.844,0-16,7.156-16,16S103.156,352,112,352z M112,416h160
	c8.844,0,16-7.156,16-16s-7.156-16-16-16H112c-8.844,0-16,7.156-16,16S103.156,416,112,416z"/>
</svg>
