<?xml version="1.0" encoding="utf-8"?>
<!-- Generator: Adobe Illustrator 16.0.0, SVG Export Plug-In . SVG Version: 6.00 Build 0)  -->
<!DOCTYPE svg PUBLIC "-//W3C//DTD SVG 1.1//EN" "http://www.w3.org/Graphics/SVG/1.1/DTD/svg11.dtd">
<svg version="1.1" id="Layer_1" xmlns="http://www.w3.org/2000/svg" xmlns:xlink="http://www.w3.org/1999/xlink" x="0px" y="0px"
	 width="512px" height="512px" viewBox="0 0 512 512" enable-background="new 0 0 512 512" xml:space="preserve">
<path d="M48,416H16c-8.844,0-16-7.156-16-16s7.156-16,16-16h32c8.844,0,16,7.156,16,16S56.844,416,48,416z M512,64v384
	c0,35.344-28.656,64-64,64H96c-35.344,0-64-28.656-64-64h16c26.469,0,48-21.531,48-48s-21.531-48-48-48H32V160h16
	c26.469,0,48-21.531,48-48S74.469,64,48,64H32C32,28.656,60.656,0,96,0h352C483.344,0,512,28.656,512,64z M480,64
	c0-17.656-14.344-32-32-32H160v448h288c17.656,0,32-14.375,32-32V64z M16,128h32c8.844,0,16-7.156,16-16s-7.156-16-16-16H16
	c-8.844,0-16,7.156-16,16S7.156,128,16,128z M432,64H208c-8.844,0-16,7.156-16,16s7.156,16,16,16h224c8.844,0,16-7.156,16-16
	S440.844,64,432,64z M432,128H208c-8.844,0-16,7.156-16,16s7.156,16,16,16h224c8.844,0,16-7.156,16-16S440.844,128,432,128z
	 M432,192H208c-8.844,0-16,7.156-16,16s7.156,16,16,16h224c8.844,0,16-7.156,16-16S440.844,192,432,192z M432,256H208
	c-8.844,0-16,7.156-16,16s7.156,16,16,16h224c8.844,0,16-7.156,16-16S440.844,256,432,256z M432,320H208c-8.844,0-16,7.156-16,16
	s7.156,16,16,16h224c8.844,0,16-7.156,16-16S440.844,320,432,320z M336,384H208c-8.844,0-16,7.156-16,16s7.156,16,16,16h128
	c8.844,0,16-7.156,16-16S344.844,384,336,384z"/>
</svg>
