<?xml version="1.0" encoding="utf-8"?>
<!-- Generator: Adobe Illustrator 16.0.0, SVG Export Plug-In . SVG Version: 6.00 Build 0)  -->
<!DOCTYPE svg PUBLIC "-//W3C//DTD SVG 1.1//EN" "http://www.w3.org/Graphics/SVG/1.1/DTD/svg11.dtd">
<svg version="1.1" id="Layer_1" xmlns="http://www.w3.org/2000/svg" xmlns:xlink="http://www.w3.org/1999/xlink" x="0px" y="0px"
	 width="512px" height="512px" viewBox="0 0 512 512" enable-background="new 0 0 512 512" xml:space="preserve">
<path d="M459.656,301.328l-67.906,67.875c-40.531,40.563-106.5,40.563-147.063,0c-40.547-40.531-40.547-106.5,0-147.063
	l67.875-67.875l45.25,45.25l-67.875,67.875c-15.594,15.594-15.594,40.969,0,56.563s40.969,15.594,56.563,0l67.906-67.875
	c37.406-37.438,37.406-98.313,0-135.75L391.75,97.703c-37.406-37.438-98.313-37.438-135.75,0L97.609,256.078
	c-37.438,37.438-37.438,98.344,0,135.75l22.625,22.656c28.234,28.219,69.813,35.094,104.625,20.75
	c22.516,15.063,47.953,23.5,73.953,26.5c-62.563,60.094-162.219,59.594-223.828-2l-22.625-22.625
	c-62.391-62.406-62.391-163.906,0-226.281L210.75,52.453c62.375-62.406,163.875-62.406,226.281,0l22.625,22.625
	C522.031,137.453,522.031,238.953,459.656,301.328z"/>
</svg>
