<?xml version="1.0" encoding="utf-8"?>
<!-- Generator: Adobe Illustrator 16.0.0, SVG Export Plug-In . SVG Version: 6.00 Build 0)  -->
<!DOCTYPE svg PUBLIC "-//W3C//DTD SVG 1.1//EN" "http://www.w3.org/Graphics/SVG/1.1/DTD/svg11.dtd">
<svg version="1.1" id="Layer_1" xmlns="http://www.w3.org/2000/svg" xmlns:xlink="http://www.w3.org/1999/xlink" x="0px" y="0px"
	 width="512px" height="512px" viewBox="0 0 512 512" enable-background="new 0 0 512 512" xml:space="preserve">
<g>
	<path d="M47.672,502.953c-4.219,0-8.297-1.656-11.313-4.688c-3.438-3.438-5.125-8.25-4.594-13.094l22.625-203.625
		c0.406-3.625,2.016-7,4.594-9.563L307.875,23.078c18.688-18.719,49.188-18.719,67.875,0l90.563,90.531
		c18.688,18.688,18.688,49.125,0,67.875l-181.047,181c-3,3-7.063,4.688-11.313,4.688h-90.5c-8.844,0-16-7.156-16-16v-90.5
		c0-4.25,1.688-8.313,4.688-11.313l135.734-135.75c6.25-6.25,16.375-6.25,22.625,0s6.25,16.375,0,22.625L199.453,267.297v67.875
		h67.875l176.359-176.313c6.25-6.25,6.25-16.406,0-22.625l-90.563-90.531c-6.25-6.219-16.375-6.25-22.625,0L85.578,290.641
		L65.781,468.828l178.203-19.781l199.703-199.688c6.25-6.25,16.375-6.25,22.625,0s6.25,16.375,0,22.625L262.641,475.641
		c-2.563,2.563-5.938,4.188-9.547,4.594L49.438,502.859C48.844,502.922,48.25,502.953,47.672,502.953z"/>
</g>
</svg>
