<?xml version="1.0" encoding="utf-8"?>
<!-- Generator: Adobe Illustrator 16.0.0, SVG Export Plug-In . SVG Version: 6.00 Build 0)  -->
<!DOCTYPE svg PUBLIC "-//W3C//DTD SVG 1.1//EN" "http://www.w3.org/Graphics/SVG/1.1/DTD/svg11.dtd">
<svg version="1.1" id="Layer_1" xmlns="http://www.w3.org/2000/svg" xmlns:xlink="http://www.w3.org/1999/xlink" x="0px" y="0px"
	 width="512px" height="512px" viewBox="0 0 512 512" enable-background="new 0 0 512 512" xml:space="preserve">
<path d="M416,256h-48.281v189l-62.406-327.688l26-26c3-3,4.688-7.063,4.688-11.313c0-44.125-35.875-80-80-80
	c-44.109,0-80,35.875-80,80c0,4.25,1.688,8.313,4.688,11.313l26.016,26L144.281,445L144,256H96c-35.344,0-64,28.656-64,64v192h128
	c0-17.688,14.313-32,32-32s32,14.313,32,32h64c0-17.688,14.313-32,32-32s32,14.313,32,32h128V320C480,284.656,451.344,256,416,256z
	 M299.125,256h-86.266l26.859-141c0.984-5.188-0.656-10.563-4.406-14.313l-26.906-26.906C211.469,50.25,231.641,32,256,32
	s44.531,18.25,47.594,41.781l-26.906,26.906c-3.75,3.75-5.391,9.125-4.406,14.313"/>
</svg>
