<?xml version="1.0" encoding="utf-8"?>
<!-- Generator: Adobe Illustrator 16.0.0, SVG Export Plug-In . SVG Version: 6.00 Build 0)  -->
<!DOCTYPE svg PUBLIC "-//W3C//DTD SVG 1.1//EN" "http://www.w3.org/Graphics/SVG/1.1/DTD/svg11.dtd">
<svg version="1.1" id="Layer_1" xmlns="http://www.w3.org/2000/svg" xmlns:xlink="http://www.w3.org/1999/xlink" x="0px" y="0px"
	 width="512px" height="512px" viewBox="0 0 512 512" enable-background="new 0 0 512 512" xml:space="preserve">
<path d="M448,288h-64h-20.469l-57.219-171.688l25-25c3-3,4.688-7.063,4.688-11.313c0-44.125-35.875-80-80-80
	c-44.109,0-80,35.875-80,80c0,4.25,1.688,8.313,4.688,11.313l25,25L148.469,288H128H64c-17.672,0-32,14.313-32,32v192h448V320
	C480,302.313,465.688,288,448,288z M320,320c-17.688,0-32-14.313-32-32h-64c0,17.688-14.313,32-32,32h-32
	c6.891,0,13-4.406,15.172-10.938l64-192c1.922-5.75,0.422-12.094-3.859-16.375l-26.906-26.906C211.469,50.25,231.641,32,256,32
	s44.531,18.25,47.594,41.781l-26.906,26.906c-4.281,4.281-5.781,10.625-3.859,16.375l63.984,192C339,315.594,345.125,320,352,320
	H320z"/>
</svg>
