<?xml version="1.0" encoding="utf-8"?>
<!-- Generator: Adobe Illustrator 16.0.0, SVG Export Plug-In . SVG Version: 6.00 Build 0)  -->
<!DOCTYPE svg PUBLIC "-//W3C//DTD SVG 1.1//EN" "http://www.w3.org/Graphics/SVG/1.1/DTD/svg11.dtd">
<svg version="1.1" id="Layer_1" xmlns="http://www.w3.org/2000/svg" xmlns:xlink="http://www.w3.org/1999/xlink" x="0px" y="0px"
	 width="512px" height="512px" viewBox="0 0 512 512" enable-background="new 0 0 512 512" xml:space="preserve">
<path d="M448.344,244.688l-135.75,135.75c-28.094,28.063-73.781,28.063-101.844,0c-28.078-28.063-28.063-73.75,0-101.813
	l135.75-135.75l22.625,22.625L233.391,301.25c-15.625,15.594-15.625,40.969-0.016,56.563c15.594,15.625,40.969,15.625,56.563,0
	l135.781-135.75c37.406-37.438,37.406-98.313,0-135.75c-37.438-37.438-98.344-37.438-135.781,0L86.297,289.938
	c-37.438,37.438-37.438,98.344,0,135.781c37.438,37.406,98.328,37.406,135.766,0l0.047-0.063
	c12.016,4.969,24.813,7.406,37.609,7.656l-15.031,15.031c-49.984,49.969-131.031,49.969-181.016,0
	c-49.984-50-49.984-131.031,0-181.031L267.313,63.688c50-50,131.031-50,181.031,0C498.313,113.656,498.313,194.688,448.344,244.688z
	"/>
</svg>
