<?xml version="1.0" encoding="utf-8"?>
<!-- Generator: Adobe Illustrator 16.0.0, SVG Export Plug-In . SVG Version: 6.00 Build 0)  -->
<!DOCTYPE svg PUBLIC "-//W3C//DTD SVG 1.1//EN" "http://www.w3.org/Graphics/SVG/1.1/DTD/svg11.dtd">
<svg version="1.1" id="Layer_1" xmlns="http://www.w3.org/2000/svg" xmlns:xlink="http://www.w3.org/1999/xlink" x="0px" y="0px"
	 width="512px" height="512px" viewBox="0 0 512 512" enable-background="new 0 0 512 512" xml:space="preserve">
<path d="M256,56c-30.875,0-56,25.125-56,56s25.125,56,56,56s56-25.125,56-56S286.875,56,256,56z M256,144c-17.672,0-32-14.313-32-32
	s14.328-32,32-32s32,14.313,32,32S273.672,144,256,144z M448,368h-96c-17.594,0-32-14.406-32-32V183.094
	c19.5-17.563,32-42.781,32-71.094c0-53.031-42.969-96-96-96s-96,42.969-96,96c0,28.313,12.5,53.531,32,71.094V336
	c0,17.594-14.406,32-32,32H64c-35.344,0-64,28.656-64,64c0,11.719,3.375,22.563,8.875,32v32h494.25v-32
	c5.5-9.438,8.875-20.281,8.875-32C512,396.656,483.344,368,448,368z M184,112c0-39.688,32.297-72,72-72c39.688,0,72,32.313,72,72
	s-32.313,72-72,72C216.297,184,184,151.688,184,112z M448,464H64c-8.844,0-16-7.156-16-16s7.156-16,16-16h384
	c8.844,0,16,7.156,16,16S456.844,464,448,464z"/>
</svg>
