<?xml version="1.0" encoding="utf-8"?>
<!-- Generator: Adobe Illustrator 16.0.0, SVG Export Plug-In . SVG Version: 6.00 Build 0)  -->
<!DOCTYPE svg PUBLIC "-//W3C//DTD SVG 1.1//EN" "http://www.w3.org/Graphics/SVG/1.1/DTD/svg11.dtd">
<svg version="1.1" id="Layer_1" xmlns="http://www.w3.org/2000/svg" xmlns:xlink="http://www.w3.org/1999/xlink" x="0px" y="0px"
	 width="512px" height="512px" viewBox="0 0 512 512" enable-background="new 0 0 512 512" xml:space="preserve">
<path d="M487.344,240L261.063,466.25c-43.656,43.688-114.734,43.688-158.391,0L57.422,421c-43.672-43.625-43.672-114.75,0-158.375
	l226.266-226.25c31.188-31.188,81.938-31.188,113.125,0l45.281,45.25c31.188,31.188,31.188,81.938,0,113.125l-181.031,181
	c-31.203,31.25-81.953,31.188-113.141,0c-15.109-15.125-23.438-35.188-23.438-56.563c0.016-21.375,8.344-41.438,23.438-56.563
	l181.016-181l22.625,22.625l-181.016,181c-9.047,9.063-14.063,21.125-14.063,33.938s5,24.875,14.063,33.938
	c18.719,18.75,49.172,18.75,67.891,0l181.031-181c18.688-18.688,18.688-49.125,0-67.875L374.188,59
	c-18.719-18.75-49.156-18.75-67.875,0L80.047,285.25c-31.203,31.25-31.188,81.938,0,113.125l45.25,45.25
	c31.203,31.25,81.938,31.25,113.141,0l226.281-226.25L487.344,240z"/>
</svg>
