<?xml version="1.0" encoding="utf-8"?>
<!-- Generator: Adobe Illustrator 16.0.0, SVG Export Plug-In . SVG Version: 6.00 Build 0)  -->
<!DOCTYPE svg PUBLIC "-//W3C//DTD SVG 1.1//EN" "http://www.w3.org/Graphics/SVG/1.1/DTD/svg11.dtd">
<svg version="1.1" id="Layer_1" xmlns="http://www.w3.org/2000/svg" xmlns:xlink="http://www.w3.org/1999/xlink" x="0px" y="0px"
	 width="512px" height="512px" viewBox="0 0 512 512" enable-background="new 0 0 512 512" xml:space="preserve">
<path d="M308.375,0L512,203.64l-67.906,22.625L285.75,67.89L308.375,0z M407.313,263.094L248.938,104.719L90.5,172.594L0,444.125
	L67.891,512l271.547-90.531L407.313,263.094z M76.531,475.375l-8.641-8.625L207.86,326.781c17.844,8.5,39.734,5.5,54.484-9.25
	c18.75-18.719,18.75-49.094,0-67.875c-18.75-18.734-49.141-18.734-67.875,0c-14.75,14.75-17.703,36.656-9.25,54.469l-139.953,140
	l-8.641-8.656l79.688-239.125l125.313-53.688l127.75,127.75l-53.719,125.25L76.531,475.375z"/>
</svg>
