<?xml version="1.0" encoding="utf-8"?>
<!-- Generator: Adobe Illustrator 16.0.0, SVG Export Plug-In . SVG Version: 6.00 Build 0)  -->
<!DOCTYPE svg PUBLIC "-//W3C//DTD SVG 1.1//EN" "http://www.w3.org/Graphics/SVG/1.1/DTD/svg11.dtd">
<svg version="1.1" id="Layer_1" xmlns="http://www.w3.org/2000/svg" xmlns:xlink="http://www.w3.org/1999/xlink" x="0px" y="0px"
	 width="512px" height="512px" viewBox="0 0 512 512" enable-background="new 0 0 512 512" xml:space="preserve">
<path fill="#010101" d="M32,352H0v-32h32V352z M32,256H0v32h32V256z M32,192H0v32h32V192z M32,64H0v32h32V64z M32,128H0v32h32V128z
	 M160,512h32v-32h-32V512z M352,512h32v-32h-32V512z M416,512h32v-32h-32V512z M480,0H0v32h480v480h32V32V0H480z M288,512h32v-32
	h-32V512z M224,512h32v-32h-32V512z M217.703,203.781l-181,181.031l90.5,90.5l181.016-181L217.703,203.781z M0,512h96L0,416V512z
	 M364.75,147.234c-24.969-25-65.5-25-90.5,0l-22.641,22.594l90.516,90.547l22.625-22.641
	C389.813,212.734,389.813,172.219,364.75,147.234z"/>
</svg>
