<?xml version="1.0" encoding="utf-8"?>
<!-- Generator: Adobe Illustrator 16.0.0, SVG Export Plug-In . SVG Version: 6.00 Build 0)  -->
<!DOCTYPE svg PUBLIC "-//W3C//DTD SVG 1.1//EN" "http://www.w3.org/Graphics/SVG/1.1/DTD/svg11.dtd">
<svg version="1.1" id="Layer_1" xmlns="http://www.w3.org/2000/svg" xmlns:xlink="http://www.w3.org/1999/xlink" x="0px" y="0px"
	 width="512px" height="512px" viewBox="0 0 512 512" enable-background="new 0 0 512 512" xml:space="preserve">
<path d="M272.813,468.031L0,512l44-272.781l27.906,27.906l-14.156,87.75c27.406-6.938,57.188,0.531,78,21.375
	c20.875,20.844,28.313,50.625,21.406,78l87.719-14.125L272.813,468.031z M59.469,158.406v67.875h67.875L285.75,67.89L217.875,0
	L59.469,158.406z M172.625,271.531v67.906H240.5l158.375-158.406L331,113.14L172.625,271.531z M353.625,452.562L512,294.156
	l-67.875-67.875L285.75,384.687l1.25,1.25v67.875h67.875L353.625,452.562z"/>
</svg>
