<?xml version="1.0" encoding="utf-8"?>
<!-- Generator: Adobe Illustrator 16.0.0, SVG Export Plug-In . SVG Version: 6.00 Build 0)  -->
<!DOCTYPE svg PUBLIC "-//W3C//DTD SVG 1.1//EN" "http://www.w3.org/Graphics/SVG/1.1/DTD/svg11.dtd">
<svg version="1.1" id="Layer_1" xmlns="http://www.w3.org/2000/svg" xmlns:xlink="http://www.w3.org/1999/xlink" x="0px" y="0px"
	 width="512px" height="512px" viewBox="0 0 512 512" enable-background="new 0 0 512 512" xml:space="preserve">
<path d="M345.938,80l-19.406-19.438c76.813,27.875,132.688,99.688,136.938,185h46.281L432,323.313l-77.75-77.75h44.688
	c-4.188-57.5-42.094-105.5-94-124.563L345.938,80z M391,304.938c-19.031,51.906-67.063,89.813-124.563,94V354.25L188.688,432
	l77.75,77.75v-46.281c85.313-4.25,157.125-60.125,185-136.969L432,345.938L391,304.938z M207.063,391
	c-51.906-19.031-89.813-67.063-94-124.563h44.688L80,188.688l-77.75,77.75h46.281c4.281,85.313,60.156,157.125,136.969,185
	L166.063,432L207.063,391z M121,207.063c19.063-51.906,67.063-89.813,124.563-94v44.688L323.313,80l-77.75-77.75v46.281
	c-85.313,4.281-157.125,60.156-185,136.969L80,166.063L121,207.063z M160,256c0,53.031,42.969,96,96,96s96-42.969,96-96
	s-42.969-96-96-96S160,202.969,160,256z"/>
</svg>
