<?xml version="1.0" encoding="utf-8"?>
<!-- Generator: Adobe Illustrator 16.0.0, SVG Export Plug-In . SVG Version: 6.00 Build 0)  -->
<!DOCTYPE svg PUBLIC "-//W3C//DTD SVG 1.1//EN" "http://www.w3.org/Graphics/SVG/1.1/DTD/svg11.dtd">
<svg version="1.1" id="Layer_1" xmlns="http://www.w3.org/2000/svg" xmlns:xlink="http://www.w3.org/1999/xlink" x="0px" y="0px"
	 width="512px" height="512px" viewBox="0 0 512 512" enable-background="new 0 0 512 512" xml:space="preserve">
<path d="M416,256c0,88.344-71.656,160-160,160c-88.375,0-160-71.656-160-160c0-88.375,71.625-160,160-160
	C344.344,96,416,167.625,416,256z M272,64.813c93.125,7.75,167.469,82.063,175.188,175.188h64
	C503.219,111.438,400.563,8.781,272,0.813V64.813z M64.813,240C72.563,146.875,146.875,72.563,240,64.813v-64
	C111.438,8.781,8.781,111.438,0.813,240H64.813z M240,447.188C146.875,439.469,72.563,365.125,64.813,272h-64
	C8.781,400.563,111.438,503.219,240,511.188V447.188z M447.188,272C439.469,365.125,365.125,439.469,272,447.188v64
	C400.563,503.219,503.219,400.563,511.188,272H447.188z"/>
</svg>
