<?xml version="1.0" encoding="utf-8"?>
<!-- Generator: Adobe Illustrator 16.0.0, SVG Export Plug-In . SVG Version: 6.00 Build 0)  -->
<!DOCTYPE svg PUBLIC "-//W3C//DTD SVG 1.1//EN" "http://www.w3.org/Graphics/SVG/1.1/DTD/svg11.dtd">
<svg version="1.1" id="Layer_1" xmlns="http://www.w3.org/2000/svg" xmlns:xlink="http://www.w3.org/1999/xlink" x="0px" y="0px"
	 width="512px" height="512px" viewBox="0 0 512 512" enable-background="new 0 0 512 512" xml:space="preserve">
<path d="M512,256c0,141.375-114.625,256-256,256c106.031,0,192-85.969,192-192s-85.969-192-192-192S64,213.969,64,320
	s85.969,192,192,192C114.625,512,0,397.375,0,256S114.625,0,256,0S512,114.625,512,256z M256,256c-70.688,0-128,57.313-128,128
	c0,66.281,50.563,120.156,115.094,126.688C213.938,504.719,192,478.938,192,448c0-35.344,28.656-64,64-64s64,28.656,64,64
	c0,30.938-21.938,56.719-51.094,62.688C333.438,504.156,384,450.281,384,384C384,313.313,326.688,256,256,256z"/>
</svg>
