<?xml version="1.0" encoding="utf-8"?>
<!-- Generator: Adobe Illustrator 16.0.0, SVG Export Plug-In . SVG Version: 6.00 Build 0)  -->
<!DOCTYPE svg PUBLIC "-//W3C//DTD SVG 1.1//EN" "http://www.w3.org/Graphics/SVG/1.1/DTD/svg11.dtd">
<svg version="1.1" id="Layer_1" xmlns="http://www.w3.org/2000/svg" xmlns:xlink="http://www.w3.org/1999/xlink" x="0px" y="0px"
	 width="512px" height="512px" viewBox="0 0 512 512" enable-background="new 0 0 512 512" xml:space="preserve">
<path d="M37.063,303.594h218.531c8.375,0,16.656-2.219,24-6.438l189.375-109.344c7.063,21.906,10.625,44.563,10.625,67.781
	c0,123.5-100.5,224-224,224C149.313,479.594,59.188,404.625,37.063,303.594 M0.406,271.594c8.313,133.906,119.219,240,255.188,240
	c141.375,0,256-114.625,256-256c0-40.938-9.844-79.469-26.938-113.781L263.594,269.438c-2.5,1.438-5.25,2.156-8,2.156H0.406
	L0.406,271.594z M0.406,239.594h239.188V0.406C111.031,8.375,8.375,111.031,0.406,239.594z M37.094,207.594
	c18.594-84.969,85.531-151.906,170.5-170.5v170.5H37.094z M303.594,37c45.438,9.813,86.219,33.281,117.469,67.656l-117.469,67.813
	V37 M271.594,0.406v227.469l197.219-113.844C425.719,49.25,353.906,5.5,271.594,0.406L271.594,0.406z"/>
</svg>
