<?xml version="1.0" encoding="utf-8"?>
<!-- Generator: Adobe Illustrator 16.0.0, SVG Export Plug-In . SVG Version: 6.00 Build 0)  -->
<!DOCTYPE svg PUBLIC "-//W3C//DTD SVG 1.1//EN" "http://www.w3.org/Graphics/SVG/1.1/DTD/svg11.dtd">
<svg version="1.1" id="Layer_1" xmlns="http://www.w3.org/2000/svg" xmlns:xlink="http://www.w3.org/1999/xlink" x="0px" y="0px"
	 width="512px" height="512px" viewBox="0 0 512 512" enable-background="new 0 0 512 512" xml:space="preserve">
<path d="M85.938,147.75l28.313,16.313C102.969,185.969,96,210.406,96,236.688c0,88.219,71.781,160,160,160s160-71.781,160-160h32
	c0,106.031-85.969,192-192,192c-106.063,0-192-85.969-192-192C64,204.563,72,174.344,85.938,147.75z M256,460.688
	c-123.5,0-224-100.5-224-224C32,156.813,74.188,86.75,137.313,47.063l-16.063-27.75C48.563,64.469,0,144.813,0,236.688
	c0,141.375,114.625,256,256,256s256-114.625,256-256h-32C480,360.188,379.5,460.688,256,460.688z M352,236.688
	c0,52.938-43.063,96-96,96s-96-43.063-96-96h-32c0,70.688,57.313,128,128,128s128-57.313,128-128H352z"/>
</svg>
