<?xml version="1.0" encoding="utf-8"?>
<!-- Generator: Adobe Illustrator 16.0.0, SVG Export Plug-In . SVG Version: 6.00 Build 0)  -->
<!DOCTYPE svg PUBLIC "-//W3C//DTD SVG 1.1//EN" "http://www.w3.org/Graphics/SVG/1.1/DTD/svg11.dtd">
<svg version="1.1" id="Layer_1" xmlns="http://www.w3.org/2000/svg" xmlns:xlink="http://www.w3.org/1999/xlink" x="0px" y="0px"
	 width="512px" height="512px" viewBox="0 0 512 512" enable-background="new 0 0 512 512" xml:space="preserve">
<path d="M240,0h32v512h-32V0z M128,480h96v-64h-96V480z M64,384h160v-64H64V384z M0,288h224v-64H0V288z M96,192h128v-64H96V192z
	 M160,96h64V32h-64V96z M288,480h96v-64h-96V480z M288,384h160v-64H288V384z M288,224v64h224v-64H288z M416,128H288v64h128V128z
	 M352,32h-64v64h64V32z"/>
</svg>
