<?xml version="1.0" encoding="utf-8"?>
<!-- Generator: Adobe Illustrator 16.0.0, SVG Export Plug-In . SVG Version: 6.00 Build 0)  -->
<!DOCTYPE svg PUBLIC "-//W3C//DTD SVG 1.1//EN" "http://www.w3.org/Graphics/SVG/1.1/DTD/svg11.dtd">
<svg version="1.1" id="Layer_1" xmlns="http://www.w3.org/2000/svg" xmlns:xlink="http://www.w3.org/1999/xlink" x="0px" y="0px"
	 width="512px" height="512px" viewBox="0 0 512 512" enable-background="new 0 0 512 512" xml:space="preserve">
<path d="M128,416h96v64h-96V416z M96,384h128v-64H96V384z M64,288h160v-64H64V288z M32,192h192v-64H32V192z M0,96h224V32H0V96z
	 M288,480h96v-64h-96V480z M288,384h128v-64H288V384z M288,288h160v-64H288V288z M288,192h192v-64H288V192z M288,32v64h224V32H288z
	 M240,512h32V0h-32V512z"/>
</svg>
