<?xml version="1.0" encoding="utf-8"?>
<!-- Generator: Adobe Illustrator 16.0.0, SVG Export Plug-In . SVG Version: 6.00 Build 0)  -->
<!DOCTYPE svg PUBLIC "-//W3C//DTD SVG 1.1//EN" "http://www.w3.org/Graphics/SVG/1.1/DTD/svg11.dtd">
<svg version="1.1" id="Layer_1" xmlns="http://www.w3.org/2000/svg" xmlns:xlink="http://www.w3.org/1999/xlink" x="0px" y="0px"
	 width="512px" height="512px" viewBox="0 0 512 512" enable-background="new 0 0 512 512" xml:space="preserve">
<path d="M405.688,174.75l9.813-4.063V64h32V0h-384v64h32v106.688l9.875,4.063C138.25,188.469,159.5,220.375,159.5,256
	s-21.25,67.5-54.125,81.219l-9.875,4.125V448h-32v64h384v-64h-32V341.344l-9.813-4.125C372.75,323.5,351.5,291.625,351.5,256
	S372.75,188.469,405.688,174.75z M319.5,256c0,44.938,24.813,85.5,64,106.125V448h-32c-16.125-38.75-54-64-96-64
	s-79.875,25.25-96,64h-32v-85.875c39.188-20.625,64-61.188,64-106.125s-24.75-85.5-64-106.125V64h256v85.875
	C344.313,170.5,319.5,211.063,319.5,256z M159.5,96h192v36c-39.875,28.25-64,74.125-64,124v32h-64v-32c0-49.875-24.063-95.75-64-124
	V96z"/>
</svg>
