<?xml version="1.0" encoding="utf-8"?>
<!-- Generator: Adobe Illustrator 16.0.0, SVG Export Plug-In . SVG Version: 6.00 Build 0)  -->
<!DOCTYPE svg PUBLIC "-//W3C//DTD SVG 1.1//EN" "http://www.w3.org/Graphics/SVG/1.1/DTD/svg11.dtd">
<svg version="1.1" id="Layer_1" xmlns="http://www.w3.org/2000/svg" xmlns:xlink="http://www.w3.org/1999/xlink" x="0px" y="0px"
	 width="512px" height="512px" viewBox="0 0 512 512" enable-background="new 0 0 512 512" xml:space="preserve">
<path d="M415.5,32h32V0h-384v32h32v32h15.25c-23.25,63.156-3.25,134.656,50.531,175.969c8.344,6.406,17.313,11.531,26.5,16.031
	c-9.188,4.5-18.156,9.625-26.5,16.031C107.5,313.313,87.5,384.844,110.75,448H95.5v32h-32v32h384v-32h-32v-32h-15.25
	c23.25-63.156,3.25-134.688-50.5-175.969c-8.313-6.406-17.313-11.531-26.5-16.031c9.188-4.5,18.188-9.625,26.5-16.031
	C403.5,198.688,423.5,127.188,400.25,64h15.25V32z M368.75,70.156c21.313,51.219,5.5,110.625-38.5,144.438
	c-13,9.969-27.563,16.656-42.75,20.75v41.313c15.188,4.094,29.75,10.75,42.75,20.75c44,33.813,59.813,93.219,38.5,144.438
	L366.188,448h-32.563c5.438-26.844-2.813-55.625-24.25-75.188c-11.063-10-24.188-16.281-37.875-19.063V222.656
	c18.938-2.813,37.313-10.469,53-23.344c13.313-10.875,23.063-24.5,29.813-39.313H156.75c6.719,14.813,16.5,28.438,29.75,39.313
	c15.688,12.875,34.063,20.531,53,23.344V353.75c-13.688,2.781-26.813,9.063-37.813,19.063c-21.5,19.563-29.719,48.344-24.25,75.188
	h-32.594l-2.563-6.156c-21.344-51.219-5.531-110.625,38.5-144.438c12.969-10,27.594-16.656,42.719-20.781v-41.281
	c-15.125-4.094-29.719-10.781-42.719-20.75c-44.031-33.813-59.844-93.219-38.5-144.438L144.844,64h221.344L368.75,70.156z"/>
</svg>
