<?xml version="1.0" encoding="utf-8"?>
<!-- Generator: Adobe Illustrator 16.0.0, SVG Export Plug-In . SVG Version: 6.00 Build 0)  -->
<!DOCTYPE svg PUBLIC "-//W3C//DTD SVG 1.1//EN" "http://www.w3.org/Graphics/SVG/1.1/DTD/svg11.dtd">
<svg version="1.1" id="Layer_1" xmlns="http://www.w3.org/2000/svg" xmlns:xlink="http://www.w3.org/1999/xlink" x="0px" y="0px"
	 width="512px" height="512px" viewBox="0 0 512 512" enable-background="new 0 0 512 512" xml:space="preserve">
<path d="M352,0H160c-17.688,0-32,14.313-32,32v192c0,17.688,14.313,32,32,32v256h192V256c17.688,0,32-14.313,32-32V32
	C384,14.313,369.688,0,352,0z M320,480H192V256h56v140.625c-13.688,3.625-24,15.531-24,30.375c0,17.688,14.313,32,32,32
	s32-14.313,32-32c0-14.844-10.313-26.75-24-30.375V256h56V480z M256,224c-53.031,0-96-42.969-96-96s42.969-96,96-96s96,42.969,96,96
	S309.031,224,256,224z M248,48c0-4.438,3.594-8,8-8s8,3.563,8,8s-3.594,8-8,8S248,52.438,248,48z M264,208c0,4.438-3.594,8-8,8
	s-8-3.563-8-8s3.594-8,8-8S264,203.563,264,208z M222.938,54.719c2.188,3.844,0.875,8.719-2.938,10.906
	c-3.813,2.219-8.719,0.938-10.938-2.906C206.875,58.875,208.188,54,212,51.813C215.813,49.594,220.719,50.875,222.938,54.719z
	 M302.938,193.281c2.188,3.844,0.875,8.719-2.938,10.906c-3.813,2.219-8.719,0.938-10.938-2.906
	c-2.188-3.844-0.875-8.719,2.938-10.906C295.813,188.156,300.719,189.438,302.938,193.281z M190.719,81.063
	c3.844,2.219,5.125,7.125,2.906,10.938c-2.188,3.813-7.063,5.125-10.906,2.938c-3.844-2.219-5.125-7.125-2.906-10.938
	C182,80.188,186.875,78.875,190.719,81.063z M329.281,161.063c3.813,2.219,5.125,7.125,2.938,10.938
	c-2.219,3.813-7.125,5.125-10.938,2.938c-3.844-2.219-5.125-7.125-2.938-10.938C320.563,160.188,325.469,158.875,329.281,161.063z
	 M176,136c-4.438,0-8-3.594-8-8s3.563-8,8-8s8,3.594,8,8S180.438,136,176,136z M336,120c4.406,0,8,3.594,8,8s-3.594,8-8,8
	c-4.438,0-8-3.594-8-8S331.594,120,336,120z M193.625,164c2.219,3.813,0.938,8.719-2.906,10.938
	c-3.844,2.188-8.719,0.875-10.938-2.938s-0.906-8.719,2.938-10.938C186.563,158.875,191.438,160.188,193.625,164z M321.281,81.063
	c3.813-2.188,8.719-0.875,10.938,2.938c2.188,3.813,0.875,8.75-2.938,10.938c-3.844,2.219-8.719,0.875-10.938-2.938
	C316.156,88.188,317.469,83.25,321.281,81.063z M220,190.375c3.813,2.188,5.125,7.063,2.938,10.906
	c-2.219,3.844-7.125,5.125-10.938,2.938c-3.813-2.219-5.125-7.094-2.938-10.938C211.281,189.438,216.188,188.156,220,190.375z
	 M292,65.656c-3.813-2.219-5.125-7.156-2.938-10.938c2.219-3.781,7.125-5.125,10.938-2.938c3.813,2.219,5.125,7.125,2.938,10.938
	C300.719,66.563,295.813,67.844,292,65.656z M312,128c0,4.438-3.594,8-8,8h-40v8c0,4.438-3.563,8-8,8s-8-3.563-8-8v-8h-8
	c-4.438,0-8-3.563-8-8s3.563-8,8-8h8V80c0-4.438,3.563-8,8-8s8,3.563,8,8v40h40C308.406,120,312,123.563,312,128z"/>
</svg>
