<?xml version="1.0" encoding="utf-8"?>
<!-- Generator: Adobe Illustrator 16.0.0, SVG Export Plug-In . SVG Version: 6.00 Build 0)  -->
<!DOCTYPE svg PUBLIC "-//W3C//DTD SVG 1.1//EN" "http://www.w3.org/Graphics/SVG/1.1/DTD/svg11.dtd">
<svg version="1.1" id="Layer_1" xmlns="http://www.w3.org/2000/svg" xmlns:xlink="http://www.w3.org/1999/xlink" x="0px" y="0px"
	 width="512px" height="512px" viewBox="0 0 512 512" enable-background="new 0 0 512 512" xml:space="preserve">
<path d="M109.438,189.875l-27.719-16l16-27.75l27.719,16L109.438,189.875z M189.844,109.438l-16-27.719l-27.719,16l16,27.719
	L189.844,109.438z M512,256c0,141.375-114.625,256-256,256S0,397.375,0,256S114.625,0,256,0S512,114.625,512,256z M480,256
	c0-123.5-100.5-224-224-224S32,132.5,32,256s100.5,224,224,224S480,379.5,480,256z M256,64.031V256H64c0,106.031,85.969,192,192,192
	v0.031c106.031,0,192-85.969,192-192S362.031,64.031,256,64.031z"/>
</svg>
