<?xml version="1.0" encoding="utf-8"?>
<!-- Generator: Adobe Illustrator 16.0.0, SVG Export Plug-In . SVG Version: 6.00 Build 0)  -->
<!DOCTYPE svg PUBLIC "-//W3C//DTD SVG 1.1//EN" "http://www.w3.org/Graphics/SVG/1.1/DTD/svg11.dtd">
<svg version="1.1" id="Layer_1" xmlns="http://www.w3.org/2000/svg" xmlns:xlink="http://www.w3.org/1999/xlink" x="0px" y="0px"
	 width="512px" height="512px" viewBox="0 0 512 512" enable-background="new 0 0 512 512" xml:space="preserve">
<path d="M463.5,224h-16c-8.813,0-16,7.156-16,16h-17.375c-3.313-39.094-17.625-75.031-40.813-103.938
	C368.125,101.063,361.5,66.219,351.5,32l-32-32h-192l-32,32c-9.938,34.219-16.563,69.031-21.75,104.031
	C47.375,168.906,31.5,210.563,31.5,256s15.875,87.094,42.25,119.969c5.188,35,11.813,69.813,21.75,104.031l32,32h192l32-32
	c10-34.219,16.625-69.063,21.813-104.031c23.188-28.938,37.5-64.875,40.813-103.969H431.5c0,8.844,7.188,16,16,16h16
	c8.875,0,16-7.156,16-16v-32C479.5,231.156,472.375,224,463.5,224z M223.5,416c-88.188,0-160-71.781-160-160s71.813-160,160-160
	c88.25,0,160,71.781,160,160S311.75,416,223.5,416z M237.063,248H319.5v16h-82.438c-2.125,3.563-5.438,6.125-9.563,7.188V288h-8
	v-16.813c-4.063-1.063-7.438-3.625-9.531-7.188H191.5v-16h18.469c2.094-3.563,5.469-6.125,9.531-7.188V160h8v80.813
	C231.625,241.875,234.938,244.438,237.063,248z M191.5,320h64v32h-64V320z M207.5,128c0-8.844,7.188-16,16-16s16,7.156,16,16
	s-7.188,16-16,16S207.5,136.844,207.5,128z M239.5,384c0,8.844-7.188,16-16,16s-16-7.156-16-16s7.188-16,16-16
	S239.5,375.156,239.5,384z M111.5,256c0,8.844-7.125,16-16,16c-8.813,0-16-7.156-16-16c0-8.813,7.188-16,16-16
	C104.375,240,111.5,247.188,111.5,256z M335.5,256c0-8.813,7.188-16,16-16c8.875,0,16,7.188,16,16c0,8.844-7.125,16-16,16
	C342.688,272,335.5,264.844,335.5,256z"/>
</svg>
