<?xml version="1.0" encoding="utf-8"?>
<!-- Generator: Adobe Illustrator 16.0.0, SVG Export Plug-In . SVG Version: 6.00 Build 0)  -->
<!DOCTYPE svg PUBLIC "-//W3C//DTD SVG 1.1//EN" "http://www.w3.org/Graphics/SVG/1.1/DTD/svg11.dtd">
<svg version="1.1" id="Layer_1" xmlns="http://www.w3.org/2000/svg" xmlns:xlink="http://www.w3.org/1999/xlink" x="0px" y="0px"
	 width="512px" height="512px" viewBox="0 0 512 512" enable-background="new 0 0 512 512" xml:space="preserve">
<path d="M272,96c-77.375,0-141.938,54.969-156.75,128H96c-8.813,0-16,7.156-16,16v32c0,8.844,7.188,16,16,16h19.25
	c14.813,73.031,79.375,128,156.75,128c88.375,0,160-71.625,160-160S360.375,96,272,96z M272,384c-70.563,0-128-57.406-128-128
	c0-70.563,57.438-128,128-128c70.625,0,128,57.438,128,128C400,326.594,342.625,384,272,384z M272,432
	c33.063,0,63.875-9.313,90.313-25.219L336,512H208l-26.313-105.219C208.125,422.688,239,432,272,432z M272,80
	c-33,0-63.875,9.313-90.313,25.219L208,0h128l26.313,105.219C335.875,89.313,305.063,80,272,80z M368,240v32H256V160h32v80H368z"/>
</svg>
