<?xml version="1.0" encoding="utf-8"?>
<!-- Generator: Adobe Illustrator 16.0.0, SVG Export Plug-In . SVG Version: 6.00 Build 0)  -->
<!DOCTYPE svg PUBLIC "-//W3C//DTD SVG 1.1//EN" "http://www.w3.org/Graphics/SVG/1.1/DTD/svg11.dtd">
<svg version="1.1" id="Layer_1" xmlns="http://www.w3.org/2000/svg" xmlns:xlink="http://www.w3.org/1999/xlink" x="0px" y="0px"
	 width="512px" height="512px" viewBox="0 0 512 512" enable-background="new 0 0 512 512" xml:space="preserve">
<path fill="#010101" d="M111.993,95.995c8.839,0,16.009,7.192,15.998,15.998l0.011,249.376l259.862-259.861
	c4.11-4.11,8.839-4.685,11.313-4.685c2.476,0,7.227,0.597,11.314,4.685c4.109,4.066,4.706,8.816,4.685,11.313
	c0.021,2.409-0.619,7.204-4.685,11.314L150.63,383.998l249.377,0.01c8.806-0.01,15.987,7.172,15.998,15.998
	c-0.011,8.807-7.192,15.988-15.998,16H95.995V111.993C96.006,103.188,103.188,96.006,111.993,95.995 M111.993,63.999
	c-26.517,0-47.984,21.511-47.995,47.995v336.009h336.009c26.483-0.012,47.983-21.512,47.995-47.996
	c-0.012-26.504-21.512-48.006-47.995-47.994L227.881,352l205.238-205.237c18.761-18.761,18.761-49.166,0-67.882
	c-9.369-9.369-21.655-14.054-33.941-14.054c-12.285,0-24.571,4.685-33.94,14.054L159.999,284.119l-0.011-172.126
	C159.999,85.51,138.498,64.009,111.993,63.999L111.993,63.999z"/>
</svg>
