<?xml version="1.0" encoding="utf-8"?>
<!-- Generator: Adobe Illustrator 16.0.0, SVG Export Plug-In . SVG Version: 6.00 Build 0)  -->
<!DOCTYPE svg PUBLIC "-//W3C//DTD SVG 1.1//EN" "http://www.w3.org/Graphics/SVG/1.1/DTD/svg11.dtd">
<svg version="1.1" id="Layer_1" xmlns="http://www.w3.org/2000/svg" xmlns:xlink="http://www.w3.org/1999/xlink" x="0px" y="0px"
	 width="512px" height="512px" viewBox="0 0 512 512" enable-background="new 0 0 512 512" xml:space="preserve">
<path d="M160,240.5h-32v-32h32V240.5z M224,208.5h-32v32h32V208.5z M192,176.5h-32v32h32V176.5z M256,176.5h-32v32h32V176.5z
	 M224,144.5h-32v32h32V144.5z M288,144.5h-32v32h32V144.5z M256,112.5h-32v32h32V112.5z M320,112.5h-32v32h32V112.5z M288,80.5h-32
	v32h32V80.5z M352,80.5h-32v32h32V80.5z M320,48.5h-32v32h32V48.5z M384,48.5h-32v32h32V48.5z M352,16.5h-32v32h32V16.5z M416,16.5
	h-32v32h32V16.5z M384,496.5h32v-32h-32V496.5z M320,496.5h32v-32h-32V496.5z M352,464.5h32v-32h-32V464.5z M288,464.5h32v-32h-32
	V464.5z M320,432.5h32v-32h-32V432.5z M256,432.5h32v-32h-32V432.5z M288,400.5h32v-32h-32V400.5z M224,400.5h32v-32h-32V400.5z
	 M256,368.5h32v-32h-32V368.5z M192,368.5h32v-32h-32V368.5z M224,336.5h32v-32h-32V336.5z M160,336.5h32v-32h-32V336.5z M192,304.5
	h32v-32h-32V304.5z M128,304.5h32v-32h-32V304.5z M128,240.5H96v32h32V240.5z M192,240.5h-32v32h32V240.5z"/>
</svg>
