<?xml version="1.0" encoding="utf-8"?>
<!-- Generator: Adobe Illustrator 16.0.0, SVG Export Plug-In . SVG Version: 6.00 Build 0)  -->
<!DOCTYPE svg PUBLIC "-//W3C//DTD SVG 1.1//EN" "http://www.w3.org/Graphics/SVG/1.1/DTD/svg11.dtd">
<svg version="1.1" id="Layer_1" xmlns="http://www.w3.org/2000/svg" xmlns:xlink="http://www.w3.org/1999/xlink" x="0px" y="0px"
	 width="512px" height="512px" viewBox="0 0 512 512" enable-background="new 0 0 512 512" xml:space="preserve">
<path fill="#010101" d="M288,352c0,17.688-14.313,32-32,32s-32-14.313-32-32s14.313-32,32-32S288,334.313,288,352z M160,224
	c-17.688,0-32,14.313-32,32s14.313,32,32,32s32-14.313,32-32S177.688,224,160,224z M256,224c-17.688,0-32,14.313-32,32
	s14.313,32,32,32s32-14.313,32-32S273.688,224,256,224z M352,224c-17.688,0-32,14.313-32,32s14.313,32,32,32s32-14.313,32-32
	S369.688,224,352,224z M352,128c-17.688,0-32,14.313-32,32s14.313,32,32,32s32-14.313,32-32S369.688,128,352,128z M352,32
	c-17.688,0-32,14.313-32,32s14.313,32,32,32s32-14.313,32-32S369.688,32,352,32z M256,128c-17.688,0-32,14.313-32,32
	s14.313,32,32,32s32-14.313,32-32S273.688,128,256,128z M352,416c-17.688,0-32,14.313-32,32s14.313,32,32,32s32-14.313,32-32
	S369.688,416,352,416z M352,320c-17.688,0-32,14.313-32,32s14.313,32,32,32s32-14.313,32-32S369.688,320,352,320z"/>
</svg>
