<?xml version="1.0" encoding="utf-8"?>
<!-- Generator: Adobe Illustrator 16.0.0, SVG Export Plug-In . SVG Version: 6.00 Build 0)  -->
<!DOCTYPE svg PUBLIC "-//W3C//DTD SVG 1.1//EN" "http://www.w3.org/Graphics/SVG/1.1/DTD/svg11.dtd">
<svg version="1.1" id="Layer_1" xmlns="http://www.w3.org/2000/svg" xmlns:xlink="http://www.w3.org/1999/xlink" x="0px" y="0px"
	 width="512px" height="512px" viewBox="0 0 512 512" enable-background="new 0 0 512 512" xml:space="preserve">
<path d="M96,288H32v-64h64V288z M160,160H96v64h64V160z M224,96h-64v64h64V96z M288,32h-64v64h64V32z M160,288H96v64h64V288z
	 M224,352h-64v64h64V352z M288,416h-64v64h64V416z M288,224h-64v64h64V224z M352,160h-64v64h64V160z M416,96h-64v64h64V96z M480,32
	h-64v64h64V32z M352,288h-64v64h64V288z M416,352h-64v64h64V352z M480,416h-64v64h64V416z"/>
</svg>
