<?xml version="1.0" encoding="utf-8"?>
<!-- Generator: Adobe Illustrator 16.0.0, SVG Export Plug-In . SVG Version: 6.00 Build 0)  -->
<!DOCTYPE svg PUBLIC "-//W3C//DTD SVG 1.1//EN" "http://www.w3.org/Graphics/SVG/1.1/DTD/svg11.dtd">
<svg version="1.1" id="Layer_1" xmlns="http://www.w3.org/2000/svg" xmlns:xlink="http://www.w3.org/1999/xlink" x="0px" y="0px"
	 width="512px" height="512px" viewBox="0 0 512 512" enable-background="new 0 0 512 512" xml:space="preserve">
<path fill="#010101" d="M48,256c0-8.813,7.188-16,16-16l0,0c8.813,0,16,7.188,16,16l0,0c0,8.813-7.188,16-16,16l0,0
	C55.188,272,48,264.813,48,256L48,256z M112,224c0,8.813,7.188,16,16,16l0,0c8.813,0,16-7.188,16-16l0,0c0-8.813-7.188-16-16-16l0,0
	C119.188,208,112,215.188,112,224L112,224z M176,352c0,8.813,7.188,16,16,16l0,0c8.813,0,16-7.188,16-16l0,0c0-8.813-7.188-16-16-16
	l0,0C183.188,336,176,343.188,176,352L176,352z M240,352c0,8.813,7.188,16,16,16l0,0c8.813,0,16-7.188,16-16l0,0
	c0-8.813-7.188-16-16-16l0,0C247.188,336,240,343.188,240,352L240,352z M240,160c0,8.813,7.188,16,16,16l0,0c8.813,0,16-7.188,16-16
	l0,0c0-8.813-7.188-16-16-16l0,0C247.188,144,240,151.188,240,160L240,160z M240,416c0,8.813,7.188,16,16,16l0,0
	c8.813,0,16-7.188,16-16l0,0c0-8.813-7.188-16-16-16l0,0C247.188,400,240,407.188,240,416L240,416z M176,160c0,8.813,7.188,16,16,16
	l0,0c8.813,0,16-7.188,16-16l0,0c0-8.813-7.188-16-16-16l0,0C183.188,144,176,151.188,176,160L176,160z M240,96
	c0,8.813,7.188,16,16,16l0,0c8.813,0,16-7.188,16-16l0,0c0-8.813-7.188-16-16-16l0,0C247.188,80,240,87.188,240,96L240,96z M176,224
	c0,8.813,7.188,16,16,16l0,0c8.813,0,16-7.188,16-16l0,0c0-8.813-7.188-16-16-16l0,0C183.188,208,176,215.188,176,224L176,224z
	 M240,224c0,8.813,7.188,16,16,16l0,0c8.813,0,16-7.188,16-16l0,0c0-8.813-7.188-16-16-16l0,0C247.188,208,240,215.188,240,224
	L240,224z M304,224c0,8.813,7.188,16,16,16l0,0c8.813,0,16-7.188,16-16l0,0c0-8.813-7.188-16-16-16l0,0
	C311.188,208,304,215.188,304,224L304,224z M368,224c0,8.813,7.188,16,16,16l0,0c8.813,0,16-7.188,16-16l0,0c0-8.813-7.188-16-16-16
	l0,0C375.188,208,368,215.188,368,224L368,224z M112,288c0,8.813,7.188,16,16,16l0,0c8.813,0,16-7.188,16-16l0,0
	c0-8.813-7.188-16-16-16l0,0C119.188,272,112,279.188,112,288L112,288z M176,288c0,8.813,7.188,16,16,16l0,0c8.813,0,16-7.188,16-16
	l0,0c0-8.813-7.188-16-16-16l0,0C183.188,272,176,279.188,176,288L176,288z M240,288c0,8.813,7.188,16,16,16l0,0
	c8.813,0,16-7.188,16-16l0,0c0-8.813-7.188-16-16-16l0,0C247.188,272,240,279.188,240,288L240,288z M304,288c0,8.813,7.188,16,16,16
	l0,0c8.813,0,16-7.188,16-16l0,0c0-8.813-7.188-16-16-16l0,0C311.188,272,304,279.188,304,288L304,288z M368,288
	c0,8.813,7.188,16,16,16l0,0c8.813,0,16-7.188,16-16l0,0c0-8.813-7.188-16-16-16l0,0C375.188,272,368,279.188,368,288L368,288z
	 M432,224c0,8.813,7.188,16,16,16l0,0c8.813,0,16-7.188,16-16l0,0c0-8.813-7.188-16-16-16l0,0C439.188,208,432,215.188,432,224
	L432,224z M432,288c0,8.813,7.188,16,16,16l0,0c8.813,0,16-7.188,16-16l0,0c0-8.813-7.188-16-16-16l0,0
	C439.188,272,432,279.188,432,288L432,288z"/>
</svg>
