<?xml version="1.0" encoding="utf-8"?>
<!-- Generator: Adobe Illustrator 16.0.0, SVG Export Plug-In . SVG Version: 6.00 Build 0)  -->
<!DOCTYPE svg PUBLIC "-//W3C//DTD SVG 1.1//EN" "http://www.w3.org/Graphics/SVG/1.1/DTD/svg11.dtd">
<svg version="1.1" id="Layer_1" xmlns="http://www.w3.org/2000/svg" xmlns:xlink="http://www.w3.org/1999/xlink" x="0px" y="0px"
	 width="512px" height="512px" viewBox="0 0 512 512" enable-background="new 0 0 512 512" xml:space="preserve">
<g>
	<path d="M256,0c-61.844,0-112,57.313-112,128s50.156,128,112,128s112-57.313,112-128S317.844,0,256,0z M256,224
		c-44.156,0-80-35.813-80-80c0-19.438,7.219-37.016,18.719-50.875C202.406,113.219,226.781,128,256,128s53.625-14.781,61.281-34.875
		C328.781,106.984,336,124.563,336,144C336,188.188,300.188,224,256,224z"/>
	<path d="M352,288h-32l-64,128l-64-128h-32c-53.031,0-96,42.969-96,96v96c0,17.688,14.313,32,32,32h320c17.688,0,32-14.313,32-32
		v-96C448,330.969,405.031,288,352,288z"/>
</g>
</svg>
