<?xml version="1.0" encoding="utf-8"?>
<!-- Generator: Adobe Illustrator 16.0.0, SVG Export Plug-In . SVG Version: 6.00 Build 0)  -->
<!DOCTYPE svg PUBLIC "-//W3C//DTD SVG 1.1//EN" "http://www.w3.org/Graphics/SVG/1.1/DTD/svg11.dtd">
<svg version="1.1" id="Layer_1" xmlns="http://www.w3.org/2000/svg" xmlns:xlink="http://www.w3.org/1999/xlink" x="0px" y="0px"
	 width="512px" height="512px" viewBox="0 0 512 512" enable-background="new 0 0 512 512" xml:space="preserve">
<g>
	<path d="M160,256h192c17.688,0,32-14.328,32-32v-96C384,57.313,326.688,0,256,0S128,57.313,128,128v96
		C128,241.672,142.313,256,160,256z M256,32c0,0,0,97,96,96c0,53.016-43,96-96,96s-96-42.984-96-96C160,128,256,129,256,32z"/>
	<path d="M384,288h-80l32,32l-80,96l-80-96l32-32h-80c-35.344,0-64,28.656-64,64v128c0,17.688,14.313,32,32,32h32h256h32
		c17.688,0,32-14.313,32-32V352C448,316.656,419.344,288,384,288z"/>
</g>
</svg>
