<?xml version="1.0" encoding="utf-8"?>
<!-- Generator: Adobe Illustrator 16.0.0, SVG Export Plug-In . SVG Version: 6.00 Build 0)  -->
<!DOCTYPE svg PUBLIC "-//W3C//DTD SVG 1.1//EN" "http://www.w3.org/Graphics/SVG/1.1/DTD/svg11.dtd">
<svg version="1.1" id="Layer_1" xmlns="http://www.w3.org/2000/svg" xmlns:xlink="http://www.w3.org/1999/xlink" x="0px" y="0px"
	 width="512px" height="512px" viewBox="0 0 512 512" enable-background="new 0 0 512 512" xml:space="preserve">
<path d="M336,400c0,8.844-7.156,16-16,16H192c-8.844,0-16-7.156-16-16s7.156-16,16-16h128C328.844,384,336,391.156,336,400z
	 M416,160c0,59.063-32.375,110.094-80,137.813V368H176v-70.188C128.375,270.094,96,219.063,96,160C96,71.625,167.625,0,256,0
	S416,71.625,416,160z M320,64c-186,44-96,160-96,160c0-64,47-79,48-77c-33,32-48,141-48,141h32c0,0,0-32,0-64C347,229,320,75,320,64
	z M320,432H192c-8.844,0-16,7.156-16,16s7.156,16,16,16h128c8.844,0,16-7.156,16-16S328.844,432,320,432z M240,512h32
	c17.688,0,32-14.313,32-32h-96C208,497.688,222.313,512,240,512z"/>
</svg>
