<?xml version="1.0" encoding="utf-8"?>
<!-- Generator: Adobe Illustrator 16.0.0, SVG Export Plug-In . SVG Version: 6.00 Build 0)  -->
<!DOCTYPE svg PUBLIC "-//W3C//DTD SVG 1.1//EN" "http://www.w3.org/Graphics/SVG/1.1/DTD/svg11.dtd">
<svg version="1.1" id="Layer_1" xmlns="http://www.w3.org/2000/svg" xmlns:xlink="http://www.w3.org/1999/xlink" x="0px" y="0px"
	 width="512px" height="512px" viewBox="0 0 512 512" enable-background="new 0 0 512 512" xml:space="preserve">
<path fill="#010101" d="M63,64V32C63,14.313,77.313,0,95,0h160c17.688,0,32,14.313,32,32v32H63z M511,160v288
	c0,35.188-28.813,64-64,64H63c-35.188,0-64-28.813-64-64V160c0-35.188,28.813-64,64-64h384C482.188,96,511,124.813,511,160z
	 M447,416H255v32h192V416z M447,352H255v32h192V352z"/>
</svg>
