<?xml version="1.0" encoding="utf-8"?>
<!-- Generator: Adobe Illustrator 16.0.0, SVG Export Plug-In . SVG Version: 6.00 Build 0)  -->
<!DOCTYPE svg PUBLIC "-//W3C//DTD SVG 1.1//EN" "http://www.w3.org/Graphics/SVG/1.1/DTD/svg11.dtd">
<svg version="1.1" id="Layer_1" xmlns="http://www.w3.org/2000/svg" xmlns:xlink="http://www.w3.org/1999/xlink" x="0px" y="0px"
	 width="512px" height="512px" viewBox="0 0 512 512" enable-background="new 0 0 512 512" xml:space="preserve">
<path fill="#010101" d="M237.563,416H0V32h192l64,64h256v161c-29.188-39.219-75.469-65-128-65c-88.219,0-160,71.781-160,160
	C224,374.781,228.938,396.375,237.563,416z M512,352c0,70.656-57.281,128-128,128c-70.688,0-128-57.344-128-128s57.313-128,128-128
	C454.719,224,512,281.344,512,352z M480,384v-64h-64v-64h-64v64h-64v64h64v64h64v-64H480z"/>
</svg>
