<?xml version="1.0" encoding="utf-8"?>
<!-- Generator: Adobe Illustrator 16.0.0, SVG Export Plug-In . SVG Version: 6.00 Build 0)  -->
<!DOCTYPE svg PUBLIC "-//W3C//DTD SVG 1.1//EN" "http://www.w3.org/Graphics/SVG/1.1/DTD/svg11.dtd">
<svg version="1.1" id="Layer_1" xmlns="http://www.w3.org/2000/svg" xmlns:xlink="http://www.w3.org/1999/xlink" x="0px" y="0px"
	 width="512px" height="512px" viewBox="0 0 512 512" enable-background="new 0 0 512 512" xml:space="preserve">
<path fill="#010101" d="M237.563,416H0V32h192l64,64h256v161c-29.188-39.219-75.469-65-128-65c-88.219,0-160,71.781-160,160
	C224,374.781,228.938,396.375,237.563,416z M474.5,442.5c-24.969,25-57.75,37.5-90.5,37.5s-65.531-12.5-90.5-37.5
	c-49.969-49.938-50-131.031,0-181c25-25,57.75-37.5,90.5-37.5s65.531,12.5,90.5,37.5C524.469,311.438,524.5,392.5,474.5,442.5z
	 M306.156,407.719l133.563-133.563C423.563,262.5,404.344,256,384,256c-25.625,0-49.75,10-67.875,28.125S288,326.344,288,352
	C288,372.344,294.5,391.563,306.156,407.719z M480,351.969c0-20.063-6.313-39.094-17.688-55.156l-133.5,133.5
	C344.875,441.688,363.906,448,384,448c25.656,0,49.75-10,67.875-28.125S480,377.625,480,351.969z"/>
</svg>
