<?xml version="1.0" encoding="utf-8"?>
<!-- Generator: Adobe Illustrator 16.0.0, SVG Export Plug-In . SVG Version: 6.00 Build 0)  -->
<!DOCTYPE svg PUBLIC "-//W3C//DTD SVG 1.1//EN" "http://www.w3.org/Graphics/SVG/1.1/DTD/svg11.dtd">
<svg version="1.1" id="Layer_1" xmlns="http://www.w3.org/2000/svg" xmlns:xlink="http://www.w3.org/1999/xlink" x="0px" y="0px"
	 width="512px" height="512px" viewBox="0 0 512 512" enable-background="new 0 0 512 512" xml:space="preserve">
<g>
	<rect x="16" y="432" fill="#010101" width="32" height="32"/>
	<rect x="16" y="368" fill="#010101" width="32" height="32"/>
	<rect x="16" y="304" fill="#010101" width="32" height="32"/>
	<rect x="16" y="240" fill="#010101" width="32" height="32"/>
	<rect x="16" y="176" fill="#010101" width="32" height="32"/>
	<rect x="16" y="112" fill="#010101" width="32" height="32"/>
	<rect x="16" y="48" fill="#010101" width="32" height="32"/>
	<rect x="80" y="48" fill="#010101" width="32" height="32"/>
	<rect x="144" y="48" fill="#010101" width="32" height="32"/>
	<rect x="464" y="368" fill="#010101" width="32" height="32"/>
	<rect x="464" y="304" fill="#010101" width="32" height="32"/>
	<rect x="464" y="240" fill="#010101" width="32" height="32"/>
	<rect x="464" y="176" fill="#010101" width="32" height="32"/>
	<rect x="80" y="432" fill="#010101" width="32" height="32"/>
	<rect x="144" y="432" fill="#010101" width="32" height="32"/>
	<rect x="208" y="432" fill="#010101" width="32" height="32"/>
	<rect x="272" y="432" fill="#010101" width="32" height="32"/>
	<rect x="336" y="432" fill="#010101" width="32" height="32"/>
	<rect x="400" y="432" fill="#010101" width="32" height="32"/>
	<rect x="464" y="432" fill="#010101" width="32" height="32"/>
	<rect x="208" y="80" fill="#010101" width="32" height="32"/>
	<rect x="272" y="112" fill="#010101" width="32" height="32"/>
	<rect x="336" y="112" fill="#010101" width="32" height="32"/>
	<rect x="400" y="112" fill="#010101" width="32" height="32"/>
	<rect x="464" y="112" fill="#010101" width="32" height="32"/>
</g>
</svg>
