<?xml version="1.0" encoding="utf-8"?>
<!-- Generator: Adobe Illustrator 16.0.0, SVG Export Plug-In . SVG Version: 6.00 Build 0)  -->
<!DOCTYPE svg PUBLIC "-//W3C//DTD SVG 1.1//EN" "http://www.w3.org/Graphics/SVG/1.1/DTD/svg11.dtd">
<svg version="1.1" id="Layer_1" xmlns="http://www.w3.org/2000/svg" xmlns:xlink="http://www.w3.org/1999/xlink" x="0px" y="0px"
	 width="512px" height="512px" viewBox="0 0 512 512" enable-background="new 0 0 512 512" xml:space="preserve">
<path fill="#010101" d="M237.563,416.006H0v-384h192l64,64h256v161c-29.188-39.219-75.469-65-128-65c-88.219,0-160,71.781-160,160
	C224,374.787,228.938,396.381,237.563,416.006z M474.5,261.506c49.969,49.938,50,131,0,181c-49.969,50-131.063,49.969-181,0
	c-49.969-49.938-50-131.031,0-181C343.5,211.506,424.563,211.537,474.5,261.506z M474.5,306.756l-45.25-45.25L384,306.756
	l-45.25-45.25l-45.25,45.25l45.25,45.25l-45.25,45.25l45.25,45.25l45.25-45.25l45.25,45.25l45.25-45.25l-45.25-45.25L474.5,306.756z
	"/>
</svg>
