<?xml version="1.0" encoding="utf-8"?>
<!-- Generator: Adobe Illustrator 16.0.0, SVG Export Plug-In . SVG Version: 6.00 Build 0)  -->
<!DOCTYPE svg PUBLIC "-//W3C//DTD SVG 1.1//EN" "http://www.w3.org/Graphics/SVG/1.1/DTD/svg11.dtd">
<svg version="1.1" id="Layer_1" xmlns="http://www.w3.org/2000/svg" xmlns:xlink="http://www.w3.org/1999/xlink" x="0px" y="0px"
	 width="512px" height="512px" viewBox="0 0 512 512" enable-background="new 0 0 512 512" xml:space="preserve">
<path d="M480,208h-38.281c-4.531-17.563-11.438-34.125-20.469-49.375l27.094-27.063v-45.25l-22.625-22.625h-45.281L353.375,90.75
	c-15.25-9-31.813-15.938-49.375-20.438V32L272,0h-32l-32,32v38.313c-17.563,4.5-34.156,11.438-49.375,20.438l-27.094-27.063h-45.25
	L63.656,86.313v45.25l27.063,27.063c-9,15.25-15.875,31.813-20.438,49.375H32L0,240v32l32,32h38.281
	c4.563,17.563,11.438,34.125,20.438,49.375l-27.063,27.063v45.281l22.625,22.625h45.25l27.094-27.094
	c15.25,9.031,31.813,15.938,49.375,20.469V480l32,32h32l32-32v-38.281c17.563-4.531,34.125-11.438,49.375-20.438l27.063,27.063
	h45.281l22.625-22.625v-45.281l-27.063-27.063c9-15.25,15.906-31.813,20.438-49.375H480l32-32v-32L480,208z M256,384
	c-70.688,0-128-57.313-128-128s57.313-128,128-128s128,57.313,128,128S326.688,384,256,384z"/>
</svg>
