<?xml version="1.0" encoding="utf-8"?>
<!-- Generator: Adobe Illustrator 16.0.0, SVG Export Plug-In . SVG Version: 6.00 Build 0)  -->
<!DOCTYPE svg PUBLIC "-//W3C//DTD SVG 1.1//EN" "http://www.w3.org/Graphics/SVG/1.1/DTD/svg11.dtd">
<svg version="1.1" id="Layer_1" xmlns="http://www.w3.org/2000/svg" xmlns:xlink="http://www.w3.org/1999/xlink" x="0px" y="0px"
	 width="512px" height="512px" viewBox="0 0 512 512" enable-background="new 0 0 512 512" xml:space="preserve">
<path d="M416,400l96-64V176l-96-64l-96,64v32H48c-26.5,0-48,21.5-48,48s21.5,48,48,48h16v-32h32v32h32v-32h32v32h160v32L416,400z
	 M448,320V192c0-8.844,7.156-16,16-16s16,7.156,16,16v128c0,8.844-7.156,16-16,16S448,328.844,448,320z"/>
</svg>
