<?xml version="1.0" encoding="utf-8"?>
<!-- Generator: Adobe Illustrator 16.0.0, SVG Export Plug-In . SVG Version: 6.00 Build 0)  -->
<!DOCTYPE svg PUBLIC "-//W3C//DTD SVG 1.1//EN" "http://www.w3.org/Graphics/SVG/1.1/DTD/svg11.dtd">
<svg version="1.1" id="Layer_1" xmlns="http://www.w3.org/2000/svg" xmlns:xlink="http://www.w3.org/1999/xlink" x="0px" y="0px"
	 width="512px" height="512px" viewBox="0 0 512 512" enable-background="new 0 0 512 512" xml:space="preserve">
<path d="M320,0H192c-26.516,0-48,21.5-48,48v64c0,26.5,21.484,48,48,48h16c0,17.688,14.328,32,32,32v304c0,8.844,7.156,16,16,16
	s16-7.156,16-16v-48h32v48c0,8.844,7.156,16,16,16s16-7.156,16-16v-64c0-8.844-7.156-16-16-16h-48V192c17.688,0,32-14.313,32-32h16
	c26.5,0,48-21.5,48-48V48C368,21.5,346.5,0,320,0z M336,112c0,8.813-7.188,16-16,16H192c-8.828,0-16-7.188-16-16V48
	c0-8.813,7.172-16,16-16h128c8.813,0,16,7.188,16,16V112z"/>
</svg>
