<?xml version="1.0" encoding="utf-8"?>
<!-- Generator: Adobe Illustrator 16.0.0, SVG Export Plug-In . SVG Version: 6.00 Build 0)  -->
<!DOCTYPE svg PUBLIC "-//W3C//DTD SVG 1.1//EN" "http://www.w3.org/Graphics/SVG/1.1/DTD/svg11.dtd">
<svg version="1.1" id="Layer_1" xmlns="http://www.w3.org/2000/svg" xmlns:xlink="http://www.w3.org/1999/xlink" x="0px" y="0px"
	 width="512px" height="512px" viewBox="0 0 512 512" enable-background="new 0 0 512 512" xml:space="preserve">
<path d="M431.938,80.063c-43.75-43.75-114.656-43.75-158.406,0c-35.859,35.875-72.672,120.375-60.656,173.813L47.266,419.5v45.25
	h45.25V419.5h45.25v-45.313h45.266l75.109-75.063c53.391,12,137.922-24.813,173.797-60.688
	C475.656,194.688,475.656,123.75,431.938,80.063z M369.688,142.25c-24.969-24.938-37.625-52.813-28.281-62.188
	c9.375-9.375,37.25,3.313,62.25,28.25c24.969,25,37.625,52.875,28.281,62.25C422.563,179.938,394.688,167.25,369.688,142.25z"/>
</svg>
