<?xml version="1.0" encoding="utf-8"?>
<!-- Generator: Adobe Illustrator 16.0.0, SVG Export Plug-In . SVG Version: 6.00 Build 0)  -->
<!DOCTYPE svg PUBLIC "-//W3C//DTD SVG 1.1//EN" "http://www.w3.org/Graphics/SVG/1.1/DTD/svg11.dtd">
<svg version="1.1" id="Layer_1" xmlns="http://www.w3.org/2000/svg" xmlns:xlink="http://www.w3.org/1999/xlink" x="0px" y="0px"
	 width="512px" height="512px" viewBox="0 0 512 512" enable-background="new 0 0 512 512" xml:space="preserve">
<path d="M211.313,368.563L332.344,247.5c39.438,13.938,85,5.5,116.563-26c43.719-43.75,43.719-114.688,0-158.375
	c-43.75-43.75-114.656-43.75-158.406,0c-31.531,31.5-39.969,77.063-26.031,116.5L30.297,413.813l11.313,56.563l56.563,11.313
	l22.625-22.625h45.25v-45.25h45.266V368.563z M381,131c-12.469-12.5-12.469-32.75,0-45.25c12.5-12.5,32.781-12.5,45.281,0
	c12.469,12.5,12.469,32.75,0,45.25C413.781,143.5,393.5,143.5,381,131z"/>
</svg>
