<?xml version="1.0" encoding="utf-8"?>
<!-- Generator: Adobe Illustrator 16.0.0, SVG Export Plug-In . SVG Version: 6.00 Build 0)  -->
<!DOCTYPE svg PUBLIC "-//W3C//DTD SVG 1.1//EN" "http://www.w3.org/Graphics/SVG/1.1/DTD/svg11.dtd">
<svg version="1.1" id="Layer_1" xmlns="http://www.w3.org/2000/svg" xmlns:xlink="http://www.w3.org/1999/xlink" x="0px" y="0px"
	 width="512px" height="512px" viewBox="0 0 512 512" enable-background="new 0 0 512 512" xml:space="preserve">
<path d="M461.594,95.672l-67.875-67.906c-25-24.969-65.531-24.969-90.531,0l-45.25,45.281c-25,24.969-25,65.5,0,90.5l22.625,22.625
	L31.656,435.078l22.625,22.625l45.25,45.25l20.219-20.219l-22.625-22.625l20.25-20.25L140,462.484l20.25-20.25L115,396.984
	l188.188-188.188l22.625,22.625c25,25,65.531,25,90.531,0l45.25-45.25C486.594,161.172,486.594,120.641,461.594,95.672z
	 M393.719,208.797c-12.5,12.469-32.781,12.5-45.281,0l-67.875-67.875c-12.469-12.5-12.469-32.813,0-45.25l45.25-45.25
	c12.469-12.5,32.781-12.5,45.25,0l67.906,67.875c12.469,12.469,12.469,32.75,0,45.25L393.719,208.797z"/>
</svg>
