<?xml version="1.0" encoding="utf-8"?>
<!-- Generator: Adobe Illustrator 16.0.0, SVG Export Plug-In . SVG Version: 6.00 Build 0)  -->
<!DOCTYPE svg PUBLIC "-//W3C//DTD SVG 1.1//EN" "http://www.w3.org/Graphics/SVG/1.1/DTD/svg11.dtd">
<svg version="1.1" id="Layer_1" xmlns="http://www.w3.org/2000/svg" xmlns:xlink="http://www.w3.org/1999/xlink" x="0px" y="0px"
	 width="512px" height="512px" viewBox="0 0 512 512" enable-background="new 0 0 512 512" xml:space="preserve">
<path d="M256,0c-58.313,0-105.594,142.813-105.594,240c0,51.063,13.031,88.219,33.906,112c9.406,10.75,40.563,16.125,71.719,16.125
	c31.094,0,62.188-5.375,71.594-16.063c20.906-23.75,33.969-60.938,33.969-112.063C361.594,142.813,314.344,0,256,0z
	 M304.906,329.406c-3.938,1.844-15.406,4.844-32.875,6.094L272,256c0-8.844-7.188-16-16-16c-8.844,0-16,7.188-16,16l0.031,79.5
	c-17.531-1.25-29.031-4.25-32.969-6.125c-16.125-19.469-24.656-50.313-24.656-89.375c0-103.563,50.469-208,73.594-208
	s73.594,104.438,73.594,208C329.594,279.125,321.063,309.969,304.906,329.406z M192,374.875V448c0,17.688,14.313,32,32,32
	c0,17.688,14.313,32,32,32s32-14.313,32-32c17.688,0,32-14.313,32-32v-73.125c-21.188,8.063-49.813,9.25-63.969,9.25
	S213.219,382.938,192,374.875z M288.031,432c0,8.844-7.156,16-16,16h-32c-8.844,0-16-7.156-16-16s7.156-16,16-16h32
	C280.875,416,288.031,423.156,288.031,432z M304,208c0,8.844-7.156,16-16,16h-64c-8.844,0-16-7.156-16-16s7.156-16,16-16h64
	C296.844,192,304,199.156,304,208z M224.031,160c0-8.844,7.156-16,16-16H272c8.844,0,16,7.156,16,16s-7.156,16-16,16h-31.969
	C231.188,176,224.031,168.844,224.031,160z"/>
</svg>
