<?xml version="1.0" encoding="utf-8"?>
<!-- Generator: Adobe Illustrator 16.0.0, SVG Export Plug-In . SVG Version: 6.00 Build 0)  -->
<!DOCTYPE svg PUBLIC "-//W3C//DTD SVG 1.1//EN" "http://www.w3.org/Graphics/SVG/1.1/DTD/svg11.dtd">
<svg version="1.1" id="Layer_1" xmlns="http://www.w3.org/2000/svg" xmlns:xlink="http://www.w3.org/1999/xlink" x="0px" y="0px"
	 width="512px" height="512px" viewBox="0 0 512 512" enable-background="new 0 0 512 512" xml:space="preserve">
<path d="M208,336h-32V48c0-26.5,21.531-48,48-48s48,21.5,48,48v288h-32V48c0-8.813-7.188-16-16-16s-16,7.188-16,16V336z M288,32
	c8.813,0,16,7.188,16,16v288h32V48c0-26.5-21.531-48-48-48c-6.406,0-12.5,1.313-18.063,3.625
	c7.625,7.875,13.156,17.813,15.938,28.813C286.594,32.313,287.25,32,288,32z M144,352v64c15.188,9.5,31.375,16.5,48,21.75V448
	c0,17.688,14.313,32,32,32c0,17.688,14.313,32,32,32s32-14.313,32-32c17.688,0,32-14.313,32-32v-10.25
	c16.594-5.25,32.781-12.25,48-21.75v-64H144z"/>
</svg>
