<?xml version="1.0" encoding="utf-8"?>
<!-- Generator: Adobe Illustrator 16.0.0, SVG Export Plug-In . SVG Version: 6.00 Build 0)  -->
<!DOCTYPE svg PUBLIC "-//W3C//DTD SVG 1.1//EN" "http://www.w3.org/Graphics/SVG/1.1/DTD/svg11.dtd">
<svg version="1.1" id="Layer_1" xmlns="http://www.w3.org/2000/svg" xmlns:xlink="http://www.w3.org/1999/xlink" x="0px" y="0px"
	 width="512px" height="512px" viewBox="0 0 512 512" enable-background="new 0 0 512 512" xml:space="preserve">
<path d="M352,432v32c0,8.844-7.156,16-16,16h-16c0,17.688-14.313,32-32,32h-64c-17.672,0-32-14.313-32-32h-16
	c-8.844,0-16-7.156-16-16v-32c0-8.844,7.156-16,16-16h160C344.844,416,352,423.156,352,432z M416,160
	c0,16.688-2.563,32.75-7.281,47.875l-58.188,153.719C346.469,374.594,334.344,384,320,384H192c-14.313,0-26.469-9.406-30.563-22.406
	l-58.156-153.719C98.563,192.75,96,176.688,96,160C96,71.625,167.625,0,256,0S416,71.625,416,160z M272,64c0-8.844-7.156-16-16-16
	c-61.75,0-112,50.25-112,112c0,8.844,7.156,16,16,16s16-7.156,16-16c0-44.125,35.891-80,80-80C264.844,80,272,72.844,272,64z"/>
</svg>
