<?xml version="1.0" encoding="utf-8"?>
<!-- Generator: Adobe Illustrator 16.0.0, SVG Export Plug-In . SVG Version: 6.00 Build 0)  -->
<!DOCTYPE svg PUBLIC "-//W3C//DTD SVG 1.1//EN" "http://www.w3.org/Graphics/SVG/1.1/DTD/svg11.dtd">
<svg version="1.1" id="Layer_1" xmlns="http://www.w3.org/2000/svg" xmlns:xlink="http://www.w3.org/1999/xlink" x="0px" y="0px"
	 width="512px" height="512px" viewBox="0 0 512 512" enable-background="new 0 0 512 512" xml:space="preserve">
<path fill="#010101" d="M154.156,380.438l-22.625-22.625l226.281-226.281l22.625,22.625L154.156,380.438z M263.125,316.75
	l-63.688,63.688l-22.656,22.656l-22.625,22.625c-12.5,12.5-32.75,12.5-45.25,0l-22.625-22.625c-12.5-12.531-12.5-32.75,0-45.281
	l22.625-22.625l22.625-22.625l63.719-63.719c-35.656-16.906-79.5-11-108.969,18.469l-45.25,45.25
	c-37.438,37.438-37.438,98.344,0,135.781l22.625,22.625c37.438,37.438,98.344,37.438,135.781,0l45.25-45.25
	C274.156,396.25,280.031,352.375,263.125,316.75z M470.969,63.656l-22.625-22.625c-37.438-37.438-98.344-37.438-135.781,0
	l-45.25,45.25c-29.469,29.469-35.375,73.313-18.469,108.969l63.719-63.719l22.625-22.625l22.625-22.625
	c12.5-12.5,32.75-12.5,45.281,0l22.625,22.625c12.5,12.5,12.469,32.781,0,45.25l-22.625,22.625l-22.656,22.656l-63.719,63.719
	c35.656,16.875,79.531,11,109-18.469l45.25-45.25C508.406,162,508.406,101.094,470.969,63.656z"/>
</svg>
