<?xml version="1.0" encoding="utf-8"?>
<!-- Generator: Adobe Illustrator 16.0.0, SVG Export Plug-In . SVG Version: 6.00 Build 0)  -->
<!DOCTYPE svg PUBLIC "-//W3C//DTD SVG 1.1//EN" "http://www.w3.org/Graphics/SVG/1.1/DTD/svg11.dtd">
<svg version="1.1" id="Layer_1" xmlns="http://www.w3.org/2000/svg" xmlns:xlink="http://www.w3.org/1999/xlink" x="0px" y="0px"
	 width="512px" height="512px" viewBox="0 0 512 512" enable-background="new 0 0 512 512" xml:space="preserve">
<g>
	<path d="M500.281,443.719l-96.875-96.906c-15.563,21.875-34.688,41-56.563,56.594l96.875,96.875
		c15.625,15.625,40.938,15.625,56.563,0S515.906,459.344,500.281,443.719z"/>
	<path d="M416,208C416,93.125,322.875,0,208,0S0,93.125,0,208s93.125,208,208,208S416,322.875,416,208z M232.25,307.625
		c-2.094,11.594-1.281,23.844-5.844,34.938c-3.75,7.5,0.078,16.406-2.75,23.844C218.422,366.938,213.359,368,208,368
		c-88.219,0-160-71.781-160-160c0-34.688,11.375-66.594,30.203-92.844c-0.547,2.219-1.109,4.438-1.156,6.75
		c-0.547,8.734,0.969,18.188,6.891,24.969c3.016,3.953,8.344,5.156,11.172,9.328c3.625,5.063,10.922,5.078,14.484,10.234
		c3.219,4.406,6.75,8.594,10.094,12.922c2.438,3.031,3.031,7.609,6.797,9.438c8.547,4.344,19.031,3.125,27.141,8.578
		c14.094,8.234,27.688,17.688,42.984,23.625c5.266,2.453,13.109-0.344,16.453,5.547c2.516,6.969-5.625,11.109-6.781,17.328
		c-0.891,3.938,0.719,8.594-2.281,11.844c3.156,7.813,8.344,14.594,12.953,21.563c3.828,5.594,10.609,8.125,14.625,13.5
		C234.313,295.938,232.781,302.094,232.25,307.625z M244,363.563c2.141-4.344,3.906-8.875,6.969-12.688c1.625-1.844,1-5.469,4.031-6
		c4.406-0.969,10.375-0.5,12.188-5.719c-0.656-0.656-1.25-1.344-1.844-1.969c2.75-0.063,5.469-0.313,8.219-0.281
		c6.219-8.094,13.594-15.375,18.063-24.625c2.594-4.875,9-4.938,12.375-8.969c2.844-3.094,6.188-5.969,8.125-9.781
		c1.313-5.406-0.656-11.75,3.125-16.438c3.656-4.219,8.563-7.875,9.531-13.719c1.094-3.563-1.188-7.094-4.375-8.531
		c-10.531-5.313-23.344-4.281-33.25-11.125c-3.031-2.75-1.969-7.609-4.594-10.688c-3.438-4.547-9.438-5.328-14.5-6.922
		c-4.125-1.078-7.031-4.391-10.813-6.156c-9.188-4.578-19.531-6.875-29.781-6.297c-4.031,0.172-8.188,1.719-10.281,5.391
		c-1.063,2.188-3.578,0.75-5.172,0.109c-8.203-4.047-17.109-8.219-22.125-16.281c-1.047-1.984-3.125-2.875-5.031-3.781
		c0.984-4.422,5-7.781,4.594-12.547c-5.203-1.75-10.453,1.016-15.703,0.406c-3.234-0.484-2.875-4.469-3.203-6.906
		c-0.641-4.828,0.453-10.281,4.75-13.172c5.297-3.844,12.375-7.953,19.016-5.094c5.594,2.391,5.703,9.906,10.969,12.656
		c3.109-5.266-0.875-11.094-0.922-16.609c3.031-4.469,8.016-6.875,11.875-10.469c2.828-2.188-1.203-5.844,1.219-8.234
		c4.734-6.469,9.688-13.266,16.797-17.281c4.734-2.766,10.281-0.328,15.406-0.719c4-1.313,6.156-5.453,9.813-7.328
		c5.375-3.172,11.844-2.609,17.719-1.609c-1.969-3.922-3.656-10.031-8.719-10.547c-4.031,1.484-5.063,7.031-9.469,8.313
		c-4.156,2.422-8.219-0.969-10.938-3.906c-4.844,1.984-9.797,3.859-14.969,4.828c10.625-4.703,22.281-6.813,32.656-12.109
		c1.531-0.906,4.281-2.344,2.969-4.484c-3.25-5.969-10.313-8.578-13.625-14.531c-2.156-3.125-2.438-7.406-5.344-9.953
		c-4.156-1.813-8.469,2.453-12.656,0.547c-5.219-2.531-8.859-7.859-14.75-9.063c-3.25-0.734-7.516-1.547-10.047,1.172
		c-1.781,5.734,2.406,11.141,2.656,16.797c-2.297,4.438-3.563,9.234-5.109,13.953c-0.969,3.375-4.656,4.828-7.891,4.078
		c-0.156-3.281,1.75-8.172-2.359-9.734c-7.781-3.141-15.891-5.563-23.516-9.047c-5.016-1.734-10.094-7.344-6.359-12.625
		c4.813-6.469,12.563-9.641,18.688-14.563c0.547-0.422,1.016-0.984,1.516-1.484C195.938,49.141,201.813,48,208,48
		c3.922,0,7.594,0.875,11.453,1.156c-2.078,1.156-4.172,2.297-6,3.828c3.031,1.516,6.484,0.906,9.734,1.406
		c7.734,0.391,12.625,8.5,20.375,8.578c1.594-3.938-4.781-3.141-5.484-6.359c3.016-0.328,6.359,1.125,9.109-0.453
		c0.281-1.484-0.344-2.359-1.188-3.094c9.922,2.438,19.484,5.703,28.594,9.906c-0.031,0.75,0.047,1.5-0.531,2.297
		c-1.969,3.844-9.063,2.297-9.219,7.141c2.75,7.047,8.188,12.906,13.906,17.766c3.938,2.906,10.156,5.672,14.438,1.922
		c3.656-3.563,4.969-9.656,8.688-13.031C341.75,108.188,368,154.953,368,208C368,283.797,314.875,347.125,244,363.563z"/>
</g>
</svg>
