<?xml version="1.0" encoding="utf-8"?>
<!-- Generator: Adobe Illustrator 16.0.0, SVG Export Plug-In . SVG Version: 6.00 Build 0)  -->
<!DOCTYPE svg PUBLIC "-//W3C//DTD SVG 1.1//EN" "http://www.w3.org/Graphics/SVG/1.1/DTD/svg11.dtd">
<svg version="1.1" id="Layer_1" xmlns="http://www.w3.org/2000/svg" xmlns:xlink="http://www.w3.org/1999/xlink" x="0px" y="0px"
	 width="512px" height="512px" viewBox="0 0 512 512" enable-background="new 0 0 512 512" xml:space="preserve">
<g>
	<path d="M497.936,430.066L325.217,257.348c-16.531,27.953-39.906,51.313-67.844,67.844L430.061,497.91
		c18.781,18.781,49.188,18.781,67.906,0C516.686,479.223,516.686,448.816,497.936,430.066z M475.311,475.316
		c-6.25,6.25-16.375,6.25-22.625,0l-45.281-45.25c-6.25-6.25-6.25-16.375,0-22.625c6.281-6.25,16.375-6.25,22.656,0l45.25,45.25
		C481.561,458.941,481.561,469.066,475.311,475.316z"/>
	<path d="M319.998,160.004c0-88.359-71.625-160-160-160s-160,71.641-160,160c0,88.375,71.625,160,160,160
		S319.998,248.379,319.998,160.004z M159.998,272.004c-61.75,0-112-50.25-112-112s50.25-112,112-112s112,50.25,112,112
		S221.748,272.004,159.998,272.004z"/>
</g>
</svg>
