<?xml version="1.0" encoding="utf-8"?>
<!-- Generator: Adobe Illustrator 16.0.0, SVG Export Plug-In . SVG Version: 6.00 Build 0)  -->
<!DOCTYPE svg PUBLIC "-//W3C//DTD SVG 1.1//EN" "http://www.w3.org/Graphics/SVG/1.1/DTD/svg11.dtd">
<svg version="1.1" id="Layer_1" xmlns="http://www.w3.org/2000/svg" xmlns:xlink="http://www.w3.org/1999/xlink" x="0px" y="0px"
	 width="512px" height="512px" viewBox="0 0 512 512" enable-background="new 0 0 512 512" xml:space="preserve">
<path d="M336,416c-8.844,0-16-7.156-16-16s7.156-16,16-16h48v-32h-48c-8.844,0-16-7.156-16-16s7.156-16,16-16h48v-32h-48
	c-8.844,0-16-7.156-16-16s7.156-16,16-16h48v-32v-32c0-17.688-14.313-32-32-32h-16V80c0-44.125-35.875-80-80-80
	c-44.109,0-80,35.875-80,80v112h-16c-17.672,0-32,14.313-32,32v256c0,17.688,14.328,32,32,32h192c17.688,0,32-14.313,32-32v-64H336z
	 M304,160h-16c-17.672,0-32,14.313-32,32h-48V80c0-26.469,21.531-48,48-48s48,21.531,48,48V160z"/>
</svg>
