<?xml version="1.0" encoding="utf-8"?>
<!-- Generator: Adobe Illustrator 16.0.0, SVG Export Plug-In . SVG Version: 6.00 Build 0)  -->
<!DOCTYPE svg PUBLIC "-//W3C//DTD SVG 1.1//EN" "http://www.w3.org/Graphics/SVG/1.1/DTD/svg11.dtd">
<svg version="1.1" id="Layer_1" xmlns="http://www.w3.org/2000/svg" xmlns:xlink="http://www.w3.org/1999/xlink" x="0px" y="0px"
	 width="512px" height="512px" viewBox="0 0 512 512" enable-background="new 0 0 512 512" xml:space="preserve">
<path d="M416,288h32c0-35.344-28.656-64-64-64v-96C384,57.313,326.688,0,256,0S128,57.313,128,128v96c-35.344,0-64,28.656-64,64h32
	v160H64c0,35.344,28.656,64,64,64h256c35.344,0,64-28.656,64-64h-32V288z M288,448h-64l11.938-71.625
	C228.813,370.5,224,361.938,224,352c0-17.688,14.313-32,32-32s32,14.313,32,32c0,9.938-4.813,18.5-11.938,24.375L288,448z M320,224
	H192v-96c0-35.313,28.703-64,64-64c35.281,0,64,28.688,64,64V224z"/>
</svg>
