<?xml version="1.0" encoding="utf-8"?>
<!-- Generator: Adobe Illustrator 16.0.0, SVG Export Plug-In . SVG Version: 6.00 Build 0)  -->
<!DOCTYPE svg PUBLIC "-//W3C//DTD SVG 1.1//EN" "http://www.w3.org/Graphics/SVG/1.1/DTD/svg11.dtd">
<svg version="1.1" id="Layer_1" xmlns="http://www.w3.org/2000/svg" xmlns:xlink="http://www.w3.org/1999/xlink" x="0px" y="0px"
	 width="512px" height="512px" viewBox="0 0 512 512" enable-background="new 0 0 512 512" xml:space="preserve">
<g>
	<path d="M288,496c-44.109,0-80-35.875-80-80V160c-0.063-12.797,4.906-24.891,13.984-34.016c18.125-18.219,49.906-18.219,68.031,0
		c9.078,9.125,14.047,21.219,13.984,34.094V384c0,8.844-7.156,16-16,16s-16-7.156-16-16V160c0.016-4.359-1.641-8.391-4.656-11.438
		c-6.063-6.063-16.625-6.063-22.688,0c-3.016,3.047-4.672,7.078-4.656,11.359V416c0,26.469,21.531,48,48,48s48-21.531,48-48V128
		c0-44.109-35.891-80-80-80s-80,35.891-80,80v224c0,8.844-7.156,16-16,16s-16-7.156-16-16V128c0-61.75,50.25-112,112-112
		s112,50.25,112,112v288C368,460.125,332.125,496,288,496z"/>
</g>
</svg>
