<?xml version="1.0" encoding="utf-8"?>
<!-- Generator: Adobe Illustrator 16.0.0, SVG Export Plug-In . SVG Version: 6.00 Build 0)  -->
<!DOCTYPE svg PUBLIC "-//W3C//DTD SVG 1.1//EN" "http://www.w3.org/Graphics/SVG/1.1/DTD/svg11.dtd">
<svg version="1.1" id="Layer_1" xmlns="http://www.w3.org/2000/svg" xmlns:xlink="http://www.w3.org/1999/xlink" x="0px" y="0px"
	 width="512px" height="512px" viewBox="0 0 512 512" enable-background="new 0 0 512 512" xml:space="preserve">
<path d="M352,144.672V69.797c70.906,33.875,120.906,103.875,126.813,186.063h-63.781C410.406,210.484,386.594,170.859,352,144.672z
	 M288,15.859h-64v192h64V15.859z M160,144.672V69.797C89.063,103.672,39.063,173.672,33.156,255.859h63.781
	C101.563,210.484,125.375,170.859,160,144.672z M97.594,287.859H32.813C40.688,398.578,129.25,487.203,240,495.078v-64.75
	C164.813,422.703,105.219,363.172,97.594,287.859z M414.375,287.859C406.75,363.172,347.188,422.703,272,430.328v64.75
	c110.719-7.875,199.313-96.5,207.188-207.219H414.375z"/>
</svg>
