<?xml version="1.0" encoding="utf-8"?>
<!-- Generator: Adobe Illustrator 16.0.0, SVG Export Plug-In . SVG Version: 6.00 Build 0)  -->
<!DOCTYPE svg PUBLIC "-//W3C//DTD SVG 1.1//EN" "http://www.w3.org/Graphics/SVG/1.1/DTD/svg11.dtd">
<svg version="1.1" id="Layer_1" xmlns="http://www.w3.org/2000/svg" xmlns:xlink="http://www.w3.org/1999/xlink" x="0px" y="0px"
	 width="512px" height="512px" viewBox="0 0 512 512" enable-background="new 0 0 512 512" xml:space="preserve">
<g>
	<path d="M165.813,146.344l-32.344-56c-23.563,16-43.594,36.563-59.5,60.188l55.594,32.094
		C139.656,168.719,151.875,156.438,165.813,146.344z"/>
	<path d="M113.406,210.219l-55.375-32c-12.094,25.031-19.938,52.5-22,81.625h64C101.781,242.313,106.406,225.625,113.406,210.219z"
		/>
	<path d="M100.563,291.844h-64.75c2.063,29.188,9.688,56.781,21.875,81.781l56.031-32.344
		C106.719,325.938,102.344,309.344,100.563,291.844z"/>
	<path d="M161.219,477.188c25.031,12.125,52.656,19.781,81.813,21.844v-64.813c-17.438-1.75-33.781-6.75-49.125-13.625
		L161.219,477.188z"/>
	<path d="M129.969,368.813l-56.25,32.469c16,23.531,36.375,43.781,59.938,59.719l32.438-56.125
		C152.094,394.906,140.063,382.656,129.969,368.813z"/>
	<path d="M417.406,291.844c-1.75,17.406-6.75,33.781-13.625,49.125l56.594,32.656c12.156-25.031,19.781-52.625,21.844-81.781
		H417.406z"/>
	<path d="M352.031,404.906l32.438,56.25c23.531-16,43.781-36.375,59.75-59.938l-56.156-32.406
		C378.094,382.781,365.844,394.813,352.031,404.906z"/>
	<path d="M275.031,434.313v64.75c29.188-2.063,56.781-9.688,81.781-21.875l-32.344-56.031
		C309.125,428.156,292.531,432.531,275.031,434.313z"/>
	<path d="M418.031,259.844h64c-2.094-29.156-9.625-56.688-21.813-81.688l-55.688,32.156
		C411.563,225.688,416.281,242.281,418.031,259.844z"/>
	<path d="M388.438,182.656l55.906-32.25c-16-23.563-36.156-44.063-59.719-60.063l-32.344,56.031
		C366.219,156.438,378.344,168.781,388.438,182.656z"/>
	<rect x="227.031" y="19.844" width="64" height="192"/>
</g>
</svg>
