<?xml version="1.0" encoding="utf-8"?>
<!-- Generator: Adobe Illustrator 16.0.0, SVG Export Plug-In . SVG Version: 6.00 Build 0)  -->
<!DOCTYPE svg PUBLIC "-//W3C//DTD SVG 1.1//EN" "http://www.w3.org/Graphics/SVG/1.1/DTD/svg11.dtd">
<svg version="1.1" id="Layer_1" xmlns="http://www.w3.org/2000/svg" xmlns:xlink="http://www.w3.org/1999/xlink" x="0px" y="0px"
	 width="512px" height="512px" viewBox="0 0 512 512" enable-background="new 0 0 512 512" xml:space="preserve">
<g>
	<rect x="226.531" y="19.25" width="64" height="192"/>
	<g>
		<path d="M57.188,373.031l56.031-32.344c-7-15.344-11.375-31.938-13.156-49.438h-64.75C37.375,320.438,45,348.031,57.188,373.031z"
			/>
		<path d="M99.531,259.25c4.719-46.688,29.625-87.344,65.781-113.5l-32.344-56c-55.219,37.438-92.438,99.031-97.438,169.5H99.531z"
			/>
		<path d="M193.406,420l-32.688,56.594c25.031,12.125,52.656,19.781,81.813,21.844v-64.813
			C225.094,431.875,208.75,426.875,193.406,420z"/>
		<path d="M165.594,404.281c-14-9.969-26.031-22.219-36.125-36.063l-56.25,32.469c16,23.531,36.375,43.781,59.938,59.719
			L165.594,404.281z"/>
	</g>
	<path d="M459.875,373.031c12.156-25.031,19.781-52.625,21.844-81.781h-64.813c-1.75,17.406-6.75,33.781-13.625,49.125
		L459.875,373.031z"/>
	<path d="M387.563,368.219c-9.969,13.969-22.219,26-36.031,36.094l32.438,56.25c23.531-16,43.781-36.375,59.75-59.938
		L387.563,368.219z"/>
	<path d="M323.969,420.563c-15.344,7-31.938,11.375-49.438,13.156v64.75c29.188-2.063,56.781-9.688,81.781-21.875L323.969,420.563z"
		/>
	<path d="M417.531,259.25h64c-2.094-29.156-9.625-56.688-21.813-81.688l-55.688,32.156
		C411.063,225.094,415.781,241.688,417.531,259.25z"/>
	<path d="M387.938,182.063l55.906-32.25c-16-23.563-36.156-44.063-59.719-60.063l-32.344,56.031
		C365.719,155.844,377.844,168.188,387.938,182.063z"/>
	<rect x="226.531" y="19.25" width="64" height="192"/>
</g>
</svg>
