<?xml version="1.0" encoding="utf-8"?>
<!-- Generator: Adobe Illustrator 16.0.0, SVG Export Plug-In . SVG Version: 6.00 Build 0)  -->
<!DOCTYPE svg PUBLIC "-//W3C//DTD SVG 1.1//EN" "http://www.w3.org/Graphics/SVG/1.1/DTD/svg11.dtd">
<svg version="1.1" id="Layer_1" xmlns="http://www.w3.org/2000/svg" xmlns:xlink="http://www.w3.org/1999/xlink" x="0px" y="0px"
	 width="512px" height="512px" viewBox="0 0 512 512" enable-background="new 0 0 512 512" xml:space="preserve">
<g>
	<path d="M256.125-0.531c-141.375,0-256,114.625-256,256s114.625,256,256,256s256-114.625,256-256S397.5-0.531,256.125-0.531z
		 M256.125,447.469c-105.875,0-192-86.125-192-192s86.125-192,192-192s192,86.125,192,192S362,447.469,256.125,447.469z"/>
	<path d="M256.125,127.469c-26.531,0-48,21.5-48,48v160c0,26.5,21.469,48,48,48s48-21.5,48-48v-160
		C304.125,148.969,282.656,127.469,256.125,127.469z"/>
</g>
</svg>
