<?xml version="1.0" encoding="utf-8"?>
<!-- Generator: Adobe Illustrator 16.0.0, SVG Export Plug-In . SVG Version: 6.00 Build 0)  -->
<!DOCTYPE svg PUBLIC "-//W3C//DTD SVG 1.1//EN" "http://www.w3.org/Graphics/SVG/1.1/DTD/svg11.dtd">
<svg version="1.1" id="Layer_1" xmlns="http://www.w3.org/2000/svg" xmlns:xlink="http://www.w3.org/1999/xlink" x="0px" y="0px"
	 width="512px" height="512px" viewBox="0 0 512 512" enable-background="new 0 0 512 512" xml:space="preserve">
<g>
	<path d="M418.156,258.953h64c-2.094-29.156-9.625-56.688-21.813-81.688l-55.688,32.156
		C411.688,224.797,416.406,241.391,418.156,258.953z"/>
	<path d="M388.563,181.766l55.906-32.25c-16-23.563-36.156-44.063-59.719-60.063l-32.344,56.031
		C366.344,155.547,378.469,167.891,388.563,181.766z"/>
	<path d="M417.531,290.953c-8.156,80.625-75.625,144-158.375,144c-88.219,0-160-71.781-160-160c0-53.375,26.5-100.375,66.781-129.5
		l-32.344-56c-59.375,40.281-98.438,108.313-98.438,185.5c0,123.719,100.313,224,224,224c118.313,0,214.969-91.781,223.188-208
		H417.531z"/>
	<rect x="227.156" y="18.953" width="64" height="192"/>
</g>
</svg>
