<?xml version="1.0" encoding="utf-8"?>
<!-- Generator: Adobe Illustrator 16.0.0, SVG Export Plug-In . SVG Version: 6.00 Build 0)  -->
<!DOCTYPE svg PUBLIC "-//W3C//DTD SVG 1.1//EN" "http://www.w3.org/Graphics/SVG/1.1/DTD/svg11.dtd">
<svg version="1.1" id="Layer_1" xmlns="http://www.w3.org/2000/svg" xmlns:xlink="http://www.w3.org/1999/xlink" x="0px" y="0px"
	 width="512px" height="512px" viewBox="0 0 512 512" enable-background="new 0 0 512 512" xml:space="preserve">
<path d="M480.203,271.469c0,123.5-100.5,224-224.016,224s-224-100.5-224-224c0-89.125,52.453-166,128-202.063v74.875
	c-38.625,29.25-64,75.125-64,127.188c0,88.25,71.781,160,160,160c88.203,0,160.016-71.75,160.016-160
	c0-52.063-25.375-97.938-64-127.188V69.406C427.703,105.469,480.203,182.344,480.203,271.469z M288.203,15.469h-64.016v192h64.016
	V15.469z"/>
</svg>
