<?xml version="1.0" encoding="utf-8"?>
<!-- Generator: Adobe Illustrator 16.0.0, SVG Export Plug-In . SVG Version: 6.00 Build 0)  -->
<!DOCTYPE svg PUBLIC "-//W3C//DTD SVG 1.1//EN" "http://www.w3.org/Graphics/SVG/1.1/DTD/svg11.dtd">
<svg version="1.1" id="Layer_1" xmlns="http://www.w3.org/2000/svg" xmlns:xlink="http://www.w3.org/1999/xlink" x="0px" y="0px"
	 width="512px" height="512px" viewBox="0 0 512 512" enable-background="new 0 0 512 512" xml:space="preserve">
<path d="M255.953,215.469c-8.844,0-16-7.125-16-16v-160c0-8.813,7.156-16,16-16s16,7.188,16,16v160
	C271.953,208.344,264.797,215.469,255.953,215.469z M319.969,81.656v34.063c65.438,25.688,112,89.313,112,163.75
	c0,97.063-79,176-176.016,176c-97.047,0-176-78.938-176-176c0-74.438,46.547-138.063,112-163.75V81.656
	c-83.453,27.063-144,105.5-144,197.813c0,114.688,93.313,208,208,208c114.703,0,208.016-93.313,208.016-208
	C463.969,187.156,403.406,108.719,319.969,81.656z"/>
</svg>
