<?xml version="1.0" encoding="utf-8"?>
<!-- Generator: Adobe Illustrator 16.0.0, SVG Export Plug-In . SVG Version: 6.00 Build 0)  -->
<!DOCTYPE svg PUBLIC "-//W3C//DTD SVG 1.1//EN" "http://www.w3.org/Graphics/SVG/1.1/DTD/svg11.dtd">
<svg version="1.1" id="Layer_1" xmlns="http://www.w3.org/2000/svg" xmlns:xlink="http://www.w3.org/1999/xlink" x="0px" y="0px"
	 width="512px" height="512px" viewBox="0 0 512 512" enable-background="new 0 0 512 512" xml:space="preserve">
<path d="M416,224.141l-128,128v-64c0,0-128-32-192,64c0-106.031,85.969-192,192-192v-64L416,224.141z M512,256.141
	c0,141.375-114.625,256-256,256c-141.391,0-256-114.625-256-256s114.609-256,256-256C397.375,0.141,512,114.766,512,256.141z
	 M480,256.141c0-123.5-100.5-224-224-224c-123.516,0-224,100.5-224,224s100.484,224,224,224C379.5,480.141,480,379.641,480,256.141z
	"/>
</svg>
