<?xml version="1.0" encoding="utf-8"?>
<!-- Generator: Adobe Illustrator 16.0.0, SVG Export Plug-In . SVG Version: 6.00 Build 0)  -->
<!DOCTYPE svg PUBLIC "-//W3C//DTD SVG 1.1//EN" "http://www.w3.org/Graphics/SVG/1.1/DTD/svg11.dtd">
<svg version="1.1" id="Layer_1" xmlns="http://www.w3.org/2000/svg" xmlns:xlink="http://www.w3.org/1999/xlink" x="0px" y="0px"
	 width="512px" height="512px" viewBox="0 0 512 512" enable-background="new 0 0 512 512" xml:space="preserve">
<path d="M96.156,223.641l128,128v-64c0,0,128-32,192,64c0-106.031-85.969-192-192-192v-64L96.156,223.641z M0.156,255.641
	c0,141.375,114.625,256,256,256c141.406,0,256-114.625,256-256s-114.594-256-256-256C114.781-0.359,0.156,114.266,0.156,255.641z
	 M32.156,255.641c0-123.5,100.5-224,224-224c123.531,0,224,100.5,224,224s-100.469,224-224,224
	C132.656,479.641,32.156,379.141,32.156,255.641z"/>
</svg>
