<?xml version="1.0" encoding="utf-8"?>
<!-- Generator: Adobe Illustrator 16.0.0, SVG Export Plug-In . SVG Version: 6.00 Build 0)  -->
<!DOCTYPE svg PUBLIC "-//W3C//DTD SVG 1.1//EN" "http://www.w3.org/Graphics/SVG/1.1/DTD/svg11.dtd">
<svg version="1.1" id="Layer_1" xmlns="http://www.w3.org/2000/svg" xmlns:xlink="http://www.w3.org/1999/xlink" x="0px" y="0px"
	 width="512px" height="512px" viewBox="0 0 512 512" enable-background="new 0 0 512 512" xml:space="preserve">
<g>
	<path d="M163.156,215.123c6.875,21.344,18.063,41.438,33.375,57.813v0.063c33.188,32,85.719,32,118.906,0
		c16.75-17.828,28.188-40,35.188-63.328c0.656-3.547,4.063-5.297,6.344-7.734c12.25-12.25,14.656-32.922,5.469-47.641
		c-1.25-2.234-3.5-4.172-3.375-6.938c0-18.766,0.094-37.563-0.031-56.313c-0.5-22.641-6.969-46.188-22.844-62.953
		c-12.813-13.547-30.406-21.609-48.563-25.063c-22.938-4.375-46.938-4.156-69.656,1.625c-19.688,4.969-38.188,16.5-49.625,33.594
		c-10.125,14.859-14.563,32.906-15.313,50.688c-0.281,19.094-0.063,38.234-0.125,57.375c0.438,3.828-2.813,6.422-4.281,9.594
		c-8.656,15.703-4.844,37.094,9.063,48.516C161.219,206.857,161.875,211.295,163.156,215.123z"/>
	<path d="M416,360.998h-32c-31.25,0-57.156-22.406-62.781-52c-19.563,13.125-41.906,20-65.219,20
		c-23.531,0-46.031-7.031-65.219-19.875c-5.688,29.531-31.594,51.875-62.781,51.875H96c0,0-58,16-96,96v23c0,17.688,14.344,32,32,32
		h448c17.688,0,32-14.313,32-32v-23C474,376.998,416,360.998,416,360.998z"/>
</g>
</svg>
