<?xml version="1.0" encoding="utf-8"?>
<!-- Generator: Adobe Illustrator 16.0.0, SVG Export Plug-In . SVG Version: 6.00 Build 0)  -->
<!DOCTYPE svg PUBLIC "-//W3C//DTD SVG 1.1//EN" "http://www.w3.org/Graphics/SVG/1.1/DTD/svg11.dtd">
<svg version="1.1" id="Layer_1" xmlns="http://www.w3.org/2000/svg" xmlns:xlink="http://www.w3.org/1999/xlink" x="0px" y="0px"
	 width="512px" height="512px" viewBox="0 0 512 512" enable-background="new 0 0 512 512" xml:space="preserve">
<path d="M384,128h-18.25c-6-22.938-24.188-41.031-47.375-46.375C313.031,58.438,294.969,40.25,272,34.25V16c0-8.844-7.156-16-16-16
	s-16,7.156-16,16v18.25c-22.938,6-41.031,24.188-46.375,47.375C170.438,86.969,152.25,105.063,146.25,128H128
	c-8.844,0-16,7.156-16,16s7.156,16,16,16h18.25c6,22.938,24.188,41.031,47.375,46.375c5.344,23.188,23.438,41.375,46.375,47.375V448
	h-16c-8.844,0-16,7.156-16,16s7.156,16,16,16h16v16c0,8.844,7.156,16,16,16s16-7.156,16-16v-16h16c8.844,0,16-7.156,16-16
	s-7.156-16-16-16h-16v-32h16c8.844,0,16-7.156,16-16s-7.156-16-16-16h-16V253.75c22.969-6,41.031-24.188,46.375-47.375
	c23.188-5.344,41.375-23.438,47.375-46.375H384c8.844,0,16-7.156,16-16S392.844,128,384,128z M304,176h-16v16
	c0,17.625-14.375,32-32,32s-32-14.375-32-32v-16h-16c-17.625,0-32-14.375-32-32s14.375-32,32-32h16V96c0-17.625,14.375-32,32-32
	s32,14.375,32,32v16h16c17.656,0,32,14.375,32,32S321.656,176,304,176z"/>
</svg>
